ISO-10303-21;
HEADER;
FILE_DESCRIPTION (( 'STEP AP214' ),
    '1' );
FILE_NAME ('Base Mounting Bracket.STEP',
    '2026-04-30T16:19:57',
    ( '' ),
    ( '' ),
    'SwSTEP 2.0',
    'SolidWorks 2022',
    '' );
FILE_SCHEMA (( 'AUTOMOTIVE_DESIGN' ));
ENDSEC;

DATA;
#1 = VERTEX_POINT ( 'NONE', #460 ) ;
#2 = CIRCLE ( 'NONE', #228, 6.000000000000000000 ) ;
#3 = VECTOR ( 'NONE', #207, 1000.000000000000000 ) ;
#4 = CARTESIAN_POINT ( 'NONE',  ( -1.730300007898921688, 1.586010497144013653, 14.00000000000000000 ) ) ;
#5 = EDGE_CURVE ( 'NONE', #46, #76, #516, .T. ) ;
#6 = FACE_BOUND ( 'NONE', #160, .T. ) ;
#7 = DIRECTION ( 'NONE',  ( -3.469446951953615372E-15, -1.000000000000000000, 0.000000000000000000 ) ) ;
#8 = CARTESIAN_POINT ( 'NONE',  ( -1.730300007898921688, 1.586010497144013653, 14.00000000000000000 ) ) ;
#9 = EDGE_LOOP ( 'NONE', ( #213, #218, #194, #512 ) ) ;
#10 = ORIENTED_EDGE ( 'NONE', *, *, #67, .T. ) ;
#11 = CARTESIAN_POINT ( 'NONE',  ( -7.730300007898922132, -2.413989502855986569, 14.00000000000000000 ) ) ;
#12 = CARTESIAN_POINT ( 'NONE',  ( -7.730300007898922132, 1.586010497144013653, 14.00000000000000000 ) ) ;
#13 = ORIENTED_EDGE ( 'NONE', *, *, #166, .F. ) ;
#14 = ORIENTED_EDGE ( 'NONE', *, *, #572, .T. ) ;
#15 = VECTOR ( 'NONE', #163, 1000.000000000000000 ) ;
#16 = EDGE_CURVE ( 'NONE', #421, #381, #684, .T. ) ;
#17 = VECTOR ( 'NONE', #139, 1000.000000000000000 ) ;
#18 = DIRECTION ( 'NONE',  ( 0.000000000000000000, 1.000000000000000000, 0.000000000000000000 ) ) ;
#19 = APPLICATION_CONTEXT ( 'automotive_design' ) ;
#20 = FACE_OUTER_BOUND ( 'NONE', #523, .T. ) ;
#21 = ORIENTED_EDGE ( 'NONE', *, *, #236, .F. ) ;
#22 = MANIFOLD_SOLID_BREP ( 'Ölçek1', #602 ) ;
#23 = DIRECTION ( 'NONE',  ( 0.000000000000000000, 0.000000000000000000, 1.000000000000000000 ) ) ;
#24 = DIRECTION ( 'NONE',  ( 2.602085213965199795E-16, -2.891205793294684736E-16, 1.000000000000000000 ) ) ;
#25 = CARTESIAN_POINT ( 'NONE',  ( -2.290300007898922185, 1.586010497144013653, 12.00000000000000000 ) ) ;
#26 = LINE ( 'NONE', #447, #359 ) ;
#27 = CARTESIAN_POINT ( 'NONE',  ( -1.730300007898921688, 1.586010497144013653, 20.00000000000000000 ) ) ;
#28 = VECTOR ( 'NONE', #449, 1000.000000000000000 ) ;
#29 = CIRCLE ( 'NONE', #446, 1.499999999999999556 ) ;
#30 = CIRCLE ( 'NONE', #399, 6.000000000000000000 ) ;
#31 = CYLINDRICAL_SURFACE ( 'NONE', #577, 2.999999999999999112 ) ;
#32 = EDGE_CURVE ( 'NONE', #262, #65, #92, .T. ) ;
#33 = FACE_OUTER_BOUND ( 'NONE', #484, .T. ) ;
#34 = EDGE_LOOP ( 'NONE', ( #114, #331, #302, #703 ) ) ;
#35 = APPLICATION_PROTOCOL_DEFINITION ( 'draft international standard', 'automotive_design', 1998, #19 ) ;
#36 = UNCERTAINTY_MEASURE_WITH_UNIT (LENGTH_MEASURE( 1.000000000000000082E-05 ), #271, 'distance_accuracy_value', 'NONE');
#37 = CARTESIAN_POINT ( 'NONE',  ( 32.26969999210109563, 8.086010497143959697, -1.030516413378325270E-14 ) ) ;
#38 = ORIENTED_EDGE ( 'NONE', *, *, #172, .T. ) ;
#39 = ORIENTED_EDGE ( 'NONE', *, *, #184, .F. ) ;
#40 = APPLICATION_PROTOCOL_DEFINITION ( 'draft international standard', 'automotive_design', 1998, #543 ) ;
#41 = DIRECTION ( 'NONE',  ( 0.000000000000000000, 0.000000000000000000, -1.000000000000000000 ) ) ;
#42 = ORIENTED_EDGE ( 'NONE', *, *, #536, .F. ) ;
#43 = CIRCLE ( 'NONE', #167, 1.500000000000004885 ) ;
#44 = VECTOR ( 'NONE', #239, 1000.000000000000000 ) ;
#45 = LINE ( 'NONE', #519, #479 ) ;
#46 = VERTEX_POINT ( 'NONE', #27 ) ;
#47 =( NAMED_UNIT ( * ) SI_UNIT ( $, .STERADIAN. ) SOLID_ANGLE_UNIT ( ) );
#48 = CARTESIAN_POINT ( 'NONE',  ( 16.26969999210111339, 13.58601049714401476, -6.141827791438931452E-15 ) ) ;
#49 = VERTEX_POINT ( 'NONE', #453 ) ;
#50 = ADVANCED_FACE ( 'NONE', ( #33 ), #735, .F. ) ;
#51 = DIRECTION ( 'NONE',  ( -0.000000000000000000, -1.000000000000000000, -0.000000000000000000 ) ) ;
#52 = ORIENTED_EDGE ( 'NONE', *, *, #547, .T. ) ;
#53 = CARTESIAN_POINT ( 'NONE',  ( 12.26969999210106188, -2.413989502856069613, -5.100993705852832207E-15 ) ) ;
#54 = MECHANICAL_DESIGN_GEOMETRIC_PRESENTATION_REPRESENTATION (  '', ( #680 ), #203 ) ;
#55 = VECTOR ( 'NONE', #400, 1000.000000000000000 ) ;
#56 = DIRECTION ( 'NONE',  ( -3.491481338843133355E-15, -1.000000000000000000, 9.085131966639173460E-31 ) ) ;
#57 = EDGE_CURVE ( 'NONE', #250, #660, #173, .T. ) ;
#58 = ORIENTED_EDGE ( 'NONE', *, *, #599, .T. ) ;
#59 = DIRECTION ( 'NONE',  ( -1.000000000000000000, -0.000000000000000000, -1.927470528863118802E-16 ) ) ;
#60 = CARTESIAN_POINT ( 'NONE',  ( 16.26969999210110984, 13.58601049714401476, -13.99999999999999822 ) ) ;
#61 = ORIENTED_EDGE ( 'NONE', *, *, #758, .F. ) ;
#62 = DIRECTION ( 'NONE',  ( -1.000000000000000000, 3.469446951953610639E-15, 2.602085213965210149E-16 ) ) ;
#63 = CARTESIAN_POINT ( 'NONE',  ( -1.730300007898921688, 1.586010497144013653, 20.00000000000000000 ) ) ;
#64 = ORIENTED_EDGE ( 'NONE', *, *, #236, .T. ) ;
#65 = VERTEX_POINT ( 'NONE', #283 ) ;
#66 = CARTESIAN_POINT ( 'NONE',  ( -1.730300007898930348, 1.586010497144013653, -14.00000000000000355 ) ) ;
#67 = EDGE_CURVE ( 'NONE', #280, #483, #287, .T. ) ;
#68 = PLANE ( 'NONE',  #644 ) ;
#69 = CIRCLE ( 'NONE', #448, 5.500000000000005329 ) ;
#70 = ORIENTED_EDGE ( 'NONE', *, *, #57, .F. ) ;
#71 = DIRECTION ( 'NONE',  ( 0.000000000000000000, 1.000000000000000000, 0.000000000000000000 ) ) ;
#72 = CARTESIAN_POINT ( 'NONE',  ( -2.290300007898921741, 1.586010497144013653, 15.00000000000000178 ) ) ;
#73 = DIRECTION ( 'NONE',  ( -1.000000000000000000, 3.469446951953610639E-15, 2.602085213965210149E-16 ) ) ;
#74 = CARTESIAN_POINT ( 'NONE',  ( 32.26969999210110984, 11.08601049714395792, -1.012146711391114998E-14 ) ) ;
#75 = EDGE_CURVE ( 'NONE', #539, #250, #576, .T. ) ;
#76 = VERTEX_POINT ( 'NONE', #584 ) ;
#77 = DIRECTION ( 'NONE',  ( -0.000000000000000000, -1.000000000000000000, -0.000000000000000000 ) ) ;
#78 = DIRECTION ( 'NONE',  ( 0.000000000000000000, 1.000000000000000000, 0.000000000000000000 ) ) ;
#79 = VERTEX_POINT ( 'NONE', #477 ) ;
#80 = EDGE_LOOP ( 'NONE', ( #21, #756, #582, #443 ) ) ;
#81 = CIRCLE ( 'NONE', #690, 6.000000000000000000 ) ;
#82 = VECTOR ( 'NONE', #556, 1000.000000000000000 ) ;
#83 = LINE ( 'NONE', #661, #508 ) ;
#84 = DIRECTION ( 'NONE',  ( 0.000000000000000000, 0.000000000000000000, 1.000000000000000000 ) ) ;
#85 = EDGE_LOOP ( 'NONE', ( #317, #567 ) ) ;
#86 = LINE ( 'NONE', #324, #82 ) ;
#87 = ADVANCED_FACE ( 'NONE', ( #176 ), #165, .T. ) ;
#88 = DIRECTION ( 'NONE',  ( -0.000000000000000000, -1.000000000000000000, -0.000000000000000000 ) ) ;
#89 = ORIENTED_EDGE ( 'NONE', *, *, #223, .T. ) ;
#90 = EDGE_CURVE ( 'NONE', #344, #65, #343, .T. ) ;
#91 = DIRECTION ( 'NONE',  ( -0.000000000000000000, -1.000000000000000000, -0.000000000000000000 ) ) ;
#92 = LINE ( 'NONE', #393, #716 ) ;
#93 = ORIENTED_EDGE ( 'NONE', *, *, #148, .T. ) ;
#94 = DIRECTION ( 'NONE',  ( 0.000000000000000000, 0.000000000000000000, 1.000000000000000000 ) ) ;
#95 = AXIS2_PLACEMENT_3D ( 'NONE', #463, #62, #427 ) ;
#96 = FACE_BOUND ( 'NONE', #299, .T. ) ;
#97 = CARTESIAN_POINT ( 'NONE',  ( -1.730300007898933901, 1.586010497144013653, -20.00000000000000711 ) ) ;
#98 = FACE_OUTER_BOUND ( 'NONE', #639, .T. ) ;
#99 = ORIENTED_EDGE ( 'NONE', *, *, #126, .F. ) ;
#100 = ADVANCED_FACE ( 'NONE', ( #474 ), #230, .F. ) ;
#101 = ORIENTED_EDGE ( 'NONE', *, *, #308, .T. ) ;
#102 = CARTESIAN_POINT ( 'NONE',  ( 10.76969999210108142, 3.086010497144014764, 20.00000000000000000 ) ) ;
#103 = CARTESIAN_POINT ( 'NONE',  ( -2.290300007898931067, 1.586010497144013653, -12.00000000000000000 ) ) ;
#104 = ORIENTED_EDGE ( 'NONE', *, *, #16, .F. ) ;
#105 = ADVANCED_FACE ( 'NONE', ( #471 ), #295, .T. ) ;
#106 = VECTOR ( 'NONE', #298, 1000.000000000000000 ) ;
#107 = CIRCLE ( 'NONE', #157, 1.499999999999999556 ) ;
#108 = FACE_OUTER_BOUND ( 'NONE', #333, .T. ) ;
#109 = ORIENTED_EDGE ( 'NONE', *, *, #172, .F. ) ;
#110 = CARTESIAN_POINT ( 'NONE',  ( -1.730300007898930348, -2.413989502855986569, -14.00000000000000355 ) ) ;
#111 = ORIENTED_EDGE ( 'NONE', *, *, #16, .T. ) ;
#112 = CARTESIAN_POINT ( 'NONE',  ( 10.76969999210108142, 3.086010497144014764, -20.00000000000000711 ) ) ;
#113 = VERTEX_POINT ( 'NONE', #354 ) ;
#114 = ORIENTED_EDGE ( 'NONE', *, *, #274, .F. ) ;
#115 = DIRECTION ( 'NONE',  ( -3.469446951953610639E-15, -1.000000000000000000, -2.891205793294675861E-16 ) ) ;
#116 = VECTOR ( 'NONE', #91, 1000.000000000000000 ) ;
#117 = DIRECTION ( 'NONE',  ( 0.000000000000000000, 0.000000000000000000, 1.000000000000000000 ) ) ;
#118 = ORIENTED_EDGE ( 'NONE', *, *, #712, .T. ) ;
#119 = DIRECTION ( 'NONE',  ( 0.000000000000000000, 0.000000000000000000, 1.000000000000000000 ) ) ;
#120 = DIRECTION ( 'NONE',  ( -0.000000000000000000, -1.000000000000000000, -0.000000000000000000 ) ) ;
#121 = VERTEX_POINT ( 'NONE', #530 ) ;
#122 = DIRECTION ( 'NONE',  ( -0.000000000000000000, -1.000000000000000000, -0.000000000000000000 ) ) ;
#123 = FACE_OUTER_BOUND ( 'NONE', #80, .T. ) ;
#124 = ORIENTED_EDGE ( 'NONE', *, *, #629, .T. ) ;
#125 = ORIENTED_EDGE ( 'NONE', *, *, #148, .F. ) ;
#126 = EDGE_CURVE ( 'NONE', #483, #539, #416, .T. ) ;
#127 = DIRECTION ( 'NONE',  ( 0.000000000000000000, 0.000000000000000000, -1.000000000000000000 ) ) ;
#128 = AXIS2_PLACEMENT_3D ( 'NONE', #662, #711, #606 ) ;
#129 = FACE_OUTER_BOUND ( 'NONE', #732, .T. ) ;
#130 = VECTOR ( 'NONE', #84, 1000.000000000000000 ) ;
#131 = AXIS2_PLACEMENT_3D ( 'NONE', #573, #94, #675 ) ;
#132 = CARTESIAN_POINT ( 'NONE',  ( 16.26969999210108853, 7.586010497144015652, -20.00000000000000000 ) ) ;
#133 = ADVANCED_FACE ( 'NONE', ( #108 ), #522, .T. ) ;
#134 = DIRECTION ( 'NONE',  ( -1.000000000000000000, 0.000000000000000000, -0.000000000000000000 ) ) ;
#135 = DIRECTION ( 'NONE',  ( 1.000000000000000000, 0.000000000000000000, 0.000000000000000000 ) ) ;
#136 = CARTESIAN_POINT ( 'NONE',  ( 16.26969999210110274, 7.586010497144012099, 20.00000000000000355 ) ) ;
#137 = ORIENTED_EDGE ( 'NONE', *, *, #380, .F. ) ;
#138 = FACE_OUTER_BOUND ( 'NONE', #336, .T. ) ;
#139 = DIRECTION ( 'NONE',  ( -1.000000000000000000, 3.469446951953610639E-15, 2.602085213965210149E-16 ) ) ;
#140 = EDGE_LOOP ( 'NONE', ( #288, #457, #612, #531 ) ) ;
#141 = VECTOR ( 'NONE', #360, 1000.000000000000000 ) ;
#142 = ADVANCED_FACE ( 'NONE', ( #403 ), #349, .F. ) ;
#143 = CIRCLE ( 'NONE', #191, 6.000000000000000000 ) ;
#144 = VECTOR ( 'NONE', #261, 1000.000000000000000 ) ;
#145 = CARTESIAN_POINT ( 'NONE',  ( -7.730300007898930126, 1.586010497144013653, -14.00000000000000000 ) ) ;
#146 = CARTESIAN_POINT ( 'NONE',  ( 16.26969999210108142, 3.086010497143993891, 20.00000000000000000 ) ) ;
#147 = ORIENTED_EDGE ( 'NONE', *, *, #726, .T. ) ;
#148 = EDGE_CURVE ( 'NONE', #284, #398, #345, .T. ) ;
#149 = DIRECTION ( 'NONE',  ( 0.000000000000000000, 1.000000000000000000, 0.000000000000000000 ) ) ;
#150 = LINE ( 'NONE', #392, #116 ) ;
#151 = EDGE_LOOP ( 'NONE', ( #558, #101 ) ) ;
#152 =( NAMED_UNIT ( * ) PLANE_ANGLE_UNIT ( ) SI_UNIT ( $, .RADIAN. ) );
#153 = CARTESIAN_POINT ( 'NONE',  ( -2.290300007898931067, 1.586010497144013653, -12.00000000000000000 ) ) ;
#154 = SURFACE_SIDE_STYLE ('',( #464 ) ) ;
#155 = VERTEX_POINT ( 'NONE', #233 ) ;
#156 = AXIS2_PLACEMENT_3D ( 'NONE', #638, #237, #642 ) ;
#157 = AXIS2_PLACEMENT_3D ( 'NONE', #216, #159, #497 ) ;
#158 = EDGE_CURVE ( 'NONE', #121, #279, #592, .T. ) ;
#159 = DIRECTION ( 'NONE',  ( -1.000000000000000000, 3.469446951953610639E-15, 2.602085213965210149E-16 ) ) ;
#160 = EDGE_LOOP ( 'NONE', ( #401, #323 ) ) ;
#161 = LINE ( 'NONE', #757, #44 ) ;
#162 = EDGE_CURVE ( 'NONE', #454, #328, #397, .T. ) ;
#163 = DIRECTION ( 'NONE',  ( -1.000000000000000000, -0.000000000000000000, -1.927470528863118802E-16 ) ) ;
#164 = ORIENTED_EDGE ( 'NONE', *, *, #473, .F. ) ;
#165 = CYLINDRICAL_SURFACE ( 'NONE', #434, 6.000000000000000000 ) ;
#166 = EDGE_CURVE ( 'NONE', #344, #538, #170, .T. ) ;
#167 = AXIS2_PLACEMENT_3D ( 'NONE', #655, #719, #537 ) ;
#168 = AXIS2_PLACEMENT_3D ( 'NONE', #683, #24, #619 ) ;
#169 = VECTOR ( 'NONE', #623, 1000.000000000000000 ) ;
#170 = LINE ( 'NONE', #60, #106 ) ;
#171 = VERTEX_POINT ( 'NONE', #755 ) ;
#172 = EDGE_CURVE ( 'NONE', #421, #534, #45, .T. ) ;
#173 = LINE ( 'NONE', #289, #141 ) ;
#174 = ORIENTED_EDGE ( 'NONE', *, *, #599, .F. ) ;
#175 = CARTESIAN_POINT ( 'NONE',  ( 12.26969999210109918, 7.586010497144028086, 14.00000000000000355 ) ) ;
#176 = FACE_OUTER_BOUND ( 'NONE', #622, .T. ) ;
#177 = EDGE_LOOP ( 'NONE', ( #609, #311, #686, #362 ) ) ;
#178 = DIRECTION ( 'NONE',  ( -1.000000000000000000, 3.469446951953610639E-15, 2.602085213965210149E-16 ) ) ;
#179 = AXIS2_PLACEMENT_3D ( 'NONE', #25, #264, #664 ) ;
#180 = DIRECTION ( 'NONE',  ( -0.000000000000000000, -1.000000000000000000, -0.000000000000000000 ) ) ;
#181 = EDGE_LOOP ( 'NONE', ( #696, #621, #588, #234 ) ) ;
#182 = FACE_OUTER_BOUND ( 'NONE', #674, .T. ) ;
#183 = DIRECTION ( 'NONE',  ( -3.469446951953614189E-15, -1.000000000000000000, 0.000000000000000000 ) ) ;
#184 = EDGE_CURVE ( 'NONE', #121, #250, #746, .T. ) ;
#185 = ORIENTED_EDGE ( 'NONE', *, *, #367, .F. ) ;
#186 = FACE_OUTER_BOUND ( 'NONE', #34, .T. ) ;
#187 = DIRECTION ( 'NONE',  ( 0.000000000000000000, 1.000000000000000000, 0.000000000000000000 ) ) ;
#188 = ADVANCED_FACE ( 'NONE', ( #659 ), #706, .T. ) ;
#189 = DIRECTION ( 'NONE',  ( 1.000000000000000000, 0.000000000000000000, -0.000000000000000000 ) ) ;
#190 = CARTESIAN_POINT ( 'NONE',  ( 12.26969999210112050, 13.58601049714402897, 14.00000000000000355 ) ) ;
#191 = AXIS2_PLACEMENT_3D ( 'NONE', #4, #246, #710 ) ;
#192 = DIRECTION ( 'NONE',  ( -1.000000000000000000, 3.469446951953610639E-15, 2.602085213965210149E-16 ) ) ;
#193 = DIRECTION ( 'NONE',  ( -2.312964634635743450E-15, -1.000000000000000000, 0.000000000000000000 ) ) ;
#194 = ORIENTED_EDGE ( 'NONE', *, *, #265, .T. ) ;
#195 = ORIENTED_EDGE ( 'NONE', *, *, #501, .F. ) ;
#196 = CARTESIAN_POINT ( 'NONE',  ( 10.76969999210108142, 3.086010497144014764, -20.00000000000000355 ) ) ;
#197 = CARTESIAN_POINT ( 'NONE',  ( 16.26969999210108853, 3.086010497143995668, 20.00000000000000000 ) ) ;
#198 = PRODUCT ( 'Base Mounting Bracket', 'Base Mounting Bracket', '', ( #569 ) ) ;
#199 = FACE_OUTER_BOUND ( 'NONE', #181, .T. ) ;
#200 = ADVANCED_BREP_SHAPE_REPRESENTATION ( 'Base Mounting Bracket', ( #22, #131 ), #229 ) ;
#201 = CARTESIAN_POINT ( 'NONE',  ( 16.26969999210110274, 7.586010497144013875, 14.00000000000000178 ) ) ;
#202 = ADVANCED_FACE ( 'NONE', ( #6, #596, #608 ), #252, .T. ) ;
#203 =( GEOMETRIC_REPRESENTATION_CONTEXT ( 3 ) GLOBAL_UNCERTAINTY_ASSIGNED_CONTEXT ( ( #286 ) ) GLOBAL_UNIT_ASSIGNED_CONTEXT ( ( #673, #204, #670 ) ) REPRESENTATION_CONTEXT ( 'NONE', 'WORKASPACE' ) );
#204 =( NAMED_UNIT ( * ) PLANE_ANGLE_UNIT ( ) SI_UNIT ( $, .RADIAN. ) );
#205 = AXIS2_PLACEMENT_3D ( 'NONE', #53, #402, #697 ) ;
#206 = STYLED_ITEM ( 'NONE', ( #689 ), #200 ) ;
#207 = DIRECTION ( 'NONE',  ( 1.000000000000000000, -3.491481338843133355E-15, -2.602085213965210149E-16 ) ) ;
#208 = LINE ( 'NONE', #727, #506 ) ;
#209 = CARTESIAN_POINT ( 'NONE',  ( 16.26969999210108853, 3.086010497143993891, 20.00000000000000355 ) ) ;
#210 = ORIENTED_EDGE ( 'NONE', *, *, #676, .F. ) ;
#211 = SURFACE_STYLE_FILL_AREA ( #630 ) ;
#212 = LINE ( 'NONE', #272, #55 ) ;
#213 = ORIENTED_EDGE ( 'NONE', *, *, #758, .T. ) ;
#214 = ORIENTED_EDGE ( 'NONE', *, *, #521, .F. ) ;
#215 = EDGE_CURVE ( 'NONE', #171, #280, #43, .T. ) ;
#216 = CARTESIAN_POINT ( 'NONE',  ( 12.26969999210110274, 9.586010497144027198, -5.100993705852832207E-15 ) ) ;
#217 = ORIENTED_EDGE ( 'NONE', *, *, #473, .T. ) ;
#218 = ORIENTED_EDGE ( 'NONE', *, *, #521, .T. ) ;
#219 = ADVANCED_FACE ( 'NONE', ( #129 ), #249, .T. ) ;
#220 = DIRECTION ( 'NONE',  ( 0.000000000000000000, 1.000000000000000000, 0.000000000000000000 ) ) ;
#221 = ORIENTED_EDGE ( 'NONE', *, *, #265, .F. ) ;
#222 = FILL_AREA_STYLE_COLOUR ( '', #270 ) ;
#223 = EDGE_CURVE ( 'NONE', #279, #660, #425, .T. ) ;
#224 = DIRECTION ( 'NONE',  ( 3.469446951953610639E-15, 1.000000000000000000, 2.891205793294675861E-16 ) ) ;
#225 = ORIENTED_EDGE ( 'NONE', *, *, #361, .F. ) ;
#226 = DIRECTION ( 'NONE',  ( -2.312964634635735561E-15, -1.000000000000000000, 0.000000000000000000 ) ) ;
#227 = ORIENTED_EDGE ( 'NONE', *, *, #726, .F. ) ;
#228 = AXIS2_PLACEMENT_3D ( 'NONE', #458, #452, #672 ) ;
#229 =( GEOMETRIC_REPRESENTATION_CONTEXT ( 3 ) GLOBAL_UNCERTAINTY_ASSIGNED_CONTEXT ( ( #36 ) ) GLOBAL_UNIT_ASSIGNED_CONTEXT ( ( #271, #152, #47 ) ) REPRESENTATION_CONTEXT ( 'NONE', 'WORKASPACE' ) );
#230 = PLANE ( 'NONE',  #505 ) ;
#231 = ORIENTED_EDGE ( 'NONE', *, *, #753, .F. ) ;
#232 = CARTESIAN_POINT ( 'NONE',  ( -2.290300007898931067, 1.586010497144013653, -15.00000000000000000 ) ) ;
#233 = CARTESIAN_POINT ( 'NONE',  ( 12.26969999210109741, 8.086010497144028975, -5.100993705852832207E-15 ) ) ;
#234 = ORIENTED_EDGE ( 'NONE', *, *, #184, .T. ) ;
#235 = FACE_OUTER_BOUND ( 'NONE', #238, .T. ) ;
#236 = EDGE_CURVE ( 'NONE', #76, #113, #247, .T. ) ;
#237 = DIRECTION ( 'NONE',  ( -0.000000000000000000, -0.000000000000000000, -1.000000000000000000 ) ) ;
#238 = EDGE_LOOP ( 'NONE', ( #306, #721, #499, #405, #263, #221 ) ) ;
#239 = DIRECTION ( 'NONE',  ( -0.000000000000000000, -1.000000000000000000, -0.000000000000000000 ) ) ;
#240 = AXIS2_PLACEMENT_3D ( 'NONE', #110, #749, #351 ) ;
#241 = ADVANCED_FACE ( 'NONE', ( #123 ), #68, .F. ) ;
#242 = AXIS2_PLACEMENT_3D ( 'NONE', #297, #532, #307 ) ;
#243 = AXIS2_PLACEMENT_3D ( 'NONE', #248, #488, #189 ) ;
#244 = CARTESIAN_POINT ( 'NONE',  ( 16.26969999210110274, 7.586010497144013875, 14.00000000000000178 ) ) ;
#245 = ORIENTED_EDGE ( 'NONE', *, *, #415, .F. ) ;
#246 = DIRECTION ( 'NONE',  ( 0.000000000000000000, 1.000000000000000000, 0.000000000000000000 ) ) ;
#247 = LINE ( 'NONE', #482, #357 ) ;
#248 = CARTESIAN_POINT ( 'NONE',  ( 10.76969999210108142, 3.086010497144014764, -20.00000000000000355 ) ) ;
#249 = CYLINDRICAL_SURFACE ( 'NONE', #728, 6.000000000000000000 ) ;
#250 = VERTEX_POINT ( 'NONE', #436 ) ;
#251 = DIRECTION ( 'NONE',  ( -3.469446951953610639E-15, -1.000000000000000000, 0.000000000000000000 ) ) ;
#252 = PLANE ( 'NONE',  #540 ) ;
#253 = ORIENTED_EDGE ( 'NONE', *, *, #491, .F. ) ;
#254 = CIRCLE ( 'NONE', #667, 3.000000000000000888 ) ;
#255 = DIRECTION ( 'NONE',  ( -3.061616997868383141E-16, 0.000000000000000000, -1.000000000000000000 ) ) ;
#256 = CYLINDRICAL_SURFACE ( 'NONE', #704, 3.000000000000000888 ) ;
#257 = ORIENTED_EDGE ( 'NONE', *, *, #745, .T. ) ;
#258 = ORIENTED_EDGE ( 'NONE', *, *, #594, .T. ) ;
#259 = PLANE ( 'NONE',  #294 ) ;
#260 = EDGE_CURVE ( 'NONE', #328, #315, #375, .T. ) ;
#261 = DIRECTION ( 'NONE',  ( 1.000000000000000000, -3.469446951953610639E-15, -2.602085213965210149E-16 ) ) ;
#262 = VERTEX_POINT ( 'NONE', #190 ) ;
#263 = ORIENTED_EDGE ( 'NONE', *, *, #518, .F. ) ;
#264 = DIRECTION ( 'NONE',  ( 0.000000000000000000, 1.000000000000000000, 0.000000000000000000 ) ) ;
#265 = EDGE_CURVE ( 'NONE', #694, #171, #377, .T. ) ;
#266 = DIRECTION ( 'NONE',  ( -1.000000000000000000, 3.491481338843133355E-15, 2.602085213965210149E-16 ) ) ;
#267 = VECTOR ( 'NONE', #313, 1000.000000000000000 ) ;
#268 = ORIENTED_EDGE ( 'NONE', *, *, #450, .F. ) ;
#269 = AXIS2_PLACEMENT_3D ( 'NONE', #389, #723, #511 ) ;
#270 = COLOUR_RGB ( '',0.7921568627450980005, 0.8196078431372548767, 0.9333333333333333481 ) ;
#271 =( LENGTH_UNIT ( ) NAMED_UNIT ( * ) SI_UNIT ( .MILLI., .METRE. ) );
#272 = CARTESIAN_POINT ( 'NONE',  ( 12.26969999210112050, 13.58601049714402897, 20.00000000000000355 ) ) ;
#273 = FILL_AREA_STYLE ('',( #562 ) ) ;
#274 = EDGE_CURVE ( 'NONE', #678, #79, #369, .T. ) ;
#275 = CARTESIAN_POINT ( 'NONE',  ( -1.730300007898921688, -2.413989502855986569, 14.00000000000000000 ) ) ;
#276 = VERTEX_POINT ( 'NONE', #601 ) ;
#277 = EDGE_CURVE ( 'NONE', #660, #49, #81, .T. ) ;
#278 = CARTESIAN_POINT ( 'NONE',  ( 16.26969999210108142, 1.586010497143999665, 20.00000000000000000 ) ) ;
#279 = VERTEX_POINT ( 'NONE', #12 ) ;
#280 = VERTEX_POINT ( 'NONE', #544 ) ;
#281 = VECTOR ( 'NONE', #59, 1000.000000000000000 ) ;
#282 = EDGE_CURVE ( 'NONE', #585, #678, #372, .T. ) ;
#283 = CARTESIAN_POINT ( 'NONE',  ( 16.26969999210112050, 13.58601049714401476, 14.00000000000000178 ) ) ;
#284 = VERTEX_POINT ( 'NONE', #72 ) ;
#285 =( NAMED_UNIT ( * ) PLANE_ANGLE_UNIT ( ) SI_UNIT ( $, .RADIAN. ) );
#286 = UNCERTAINTY_MEASURE_WITH_UNIT (LENGTH_MEASURE( 1.000000000000000082E-05 ), #673, 'distance_accuracy_value', 'NONE');
#287 = LINE ( 'NONE', #524, #493 ) ;
#288 = ORIENTED_EDGE ( 'NONE', *, *, #308, .F. ) ;
#289 = CARTESIAN_POINT ( 'NONE',  ( -7.730300007898930126, -2.413989502855986569, -14.00000000000000000 ) ) ;
#290 = VERTEX_POINT ( 'NONE', #309 ) ;
#291 = VECTOR ( 'NONE', #503, 1000.000000000000000 ) ;
#292 = VECTOR ( 'NONE', #120, 1000.000000000000000 ) ;
#293 = PLANE ( 'NONE',  #554 ) ;
#294 = AXIS2_PLACEMENT_3D ( 'NONE', #666, #192, #251 ) ;
#295 = CYLINDRICAL_SURFACE ( 'NONE', #624, 6.000000000000000000 ) ;
#296 = ORIENTED_EDGE ( 'NONE', *, *, #438, .F. ) ;
#297 = CARTESIAN_POINT ( 'NONE',  ( 10.76969999210108142, 3.086010497144014764, 20.00000000000000000 ) ) ;
#298 = DIRECTION ( 'NONE',  ( -1.000000000000000000, 3.491481338843133355E-15, 2.602085213965210149E-16 ) ) ;
#299 = EDGE_LOOP ( 'NONE', ( #147, #217 ) ) ;
#300 = PLANE ( 'NONE',  #205 ) ;
#301 = DIRECTION ( 'NONE',  ( -2.312964634635735561E-15, -1.000000000000000000, 0.000000000000000000 ) ) ;
#302 = ORIENTED_EDGE ( 'NONE', *, *, #395, .T. ) ;
#303 = DIRECTION ( 'NONE',  ( 0.000000000000000000, 1.000000000000000000, -0.000000000000000000 ) ) ;
#304 = VECTOR ( 'NONE', #115, 1000.000000000000000 ) ;
#305 = DIRECTION ( 'NONE',  ( 0.000000000000000000, 0.000000000000000000, 1.000000000000000000 ) ) ;
#306 = ORIENTED_EDGE ( 'NONE', *, *, #547, .F. ) ;
#307 = DIRECTION ( 'NONE',  ( -1.000000000000000000, 0.000000000000000000, 0.000000000000000000 ) ) ;
#308 = EDGE_CURVE ( 'NONE', #678, #585, #29, .T. ) ;
#309 = CARTESIAN_POINT ( 'NONE',  ( -2.290300007898922185, -2.413989502855986569, 9.000000000000000000 ) ) ;
#310 = VERTEX_POINT ( 'NONE', #136 ) ;
#311 = ORIENTED_EDGE ( 'NONE', *, *, #32, .T. ) ;
#312 = DIRECTION ( 'NONE',  ( 0.000000000000000000, 0.000000000000000000, 1.000000000000000000 ) ) ;
#313 = DIRECTION ( 'NONE',  ( -1.000000000000000000, 3.469446951953610639E-15, 2.602085213965210149E-16 ) ) ;
#314 = LINE ( 'NONE', #550, #470 ) ;
#315 = VERTEX_POINT ( 'NONE', #611 ) ;
#316 = DIRECTION ( 'NONE',  ( -2.602085213965207190E-16, 8.673617379884034239E-17, -1.000000000000000000 ) ) ;
#317 = ORIENTED_EDGE ( 'NONE', *, *, #605, .T. ) ;
#318 = CIRCLE ( 'NONE', #645, 1.499999999999999556 ) ;
#319 = ORIENTED_EDGE ( 'NONE', *, *, #162, .T. ) ;
#320 = ADVANCED_FACE ( 'NONE', ( #20 ), #256, .F. ) ;
#321 = PLANE ( 'NONE',  #346 ) ;
#322 = PLANE ( 'NONE',  #168 ) ;
#323 = ORIENTED_EDGE ( 'NONE', *, *, #629, .F. ) ;
#324 = CARTESIAN_POINT ( 'NONE',  ( 12.26969999210107432, 3.086010497144011211, -20.00000000000000355 ) ) ;
#325 = PRODUCT_RELATED_PRODUCT_CATEGORY ( 'part', '', ( #198 ) ) ;
#326 = PRODUCT_DEFINITION_CONTEXT ( 'detailed design', #543, 'design' ) ;
#327 = CARTESIAN_POINT ( 'NONE',  ( 12.26969999210109208, 7.586010497144029863, -20.00000000000000000 ) ) ;
#328 = VERTEX_POINT ( 'NONE', #384 ) ;
#329 = ADVANCED_FACE ( 'NONE', ( #98 ), #31, .F. ) ;
#330 = FACE_OUTER_BOUND ( 'NONE', #597, .T. ) ;
#331 = ORIENTED_EDGE ( 'NONE', *, *, #282, .F. ) ;
#332 = AXIS2_PLACEMENT_3D ( 'NONE', #201, #507, #574 ) ;
#333 = EDGE_LOOP ( 'NONE', ( #548, #616, #111, #627 ) ) ;
#334 = FACE_OUTER_BOUND ( 'NONE', #472, .T. ) ;
#335 = ADVANCED_FACE ( 'NONE', ( #330 ), #322, .F. ) ;
#336 = EDGE_LOOP ( 'NONE', ( #365, #257, #340, #174 ) ) ;
#337 = CARTESIAN_POINT ( 'NONE',  ( 10.76969999210107787, 1.586010497144010101, -20.00000000000000711 ) ) ;
#338 = CARTESIAN_POINT ( 'NONE',  ( -2.290300007898931067, 1.586010497144013653, -12.00000000000000000 ) ) ;
#339 = DIRECTION ( 'NONE',  ( 1.000000000000000000, -3.491481338843133355E-15, -2.602085213965210149E-16 ) ) ;
#340 = ORIENTED_EDGE ( 'NONE', *, *, #605, .F. ) ;
#341 = SURFACE_SIDE_STYLE ('',( #211 ) ) ;
#342 = CARTESIAN_POINT ( 'NONE',  ( 16.26969999210109918, 8.086010497144014764, -6.141827791438915675E-15 ) ) ;
#343 = LINE ( 'NONE', #48, #383 ) ;
#344 = VERTEX_POINT ( 'NONE', #669 ) ;
#345 = CIRCLE ( 'NONE', #759, 3.000000000000000888 ) ;
#346 = AXIS2_PLACEMENT_3D ( 'NONE', #671, #23, #496 ) ;
#347 = EDGE_CURVE ( 'NONE', #483, #113, #620, .T. ) ;
#348 = VECTOR ( 'NONE', #77, 1000.000000000000000 ) ;
#349 = CYLINDRICAL_SURFACE ( 'NONE', #409, 1.500000000000004885 ) ;
#350 = ORIENTED_EDGE ( 'NONE', *, *, #681, .F. ) ;
#351 = DIRECTION ( 'NONE',  ( 0.000000000000000000, 0.000000000000000000, -1.000000000000000000 ) ) ;
#352 = VERTEX_POINT ( 'NONE', #327 ) ;
#353 = EDGE_CURVE ( 'NONE', #538, #262, #212, .T. ) ;
#354 = CARTESIAN_POINT ( 'NONE',  ( 10.76969999210107787, -2.413989502855986569, 20.00000000000000000 ) ) ;
#355 = ORIENTED_EDGE ( 'NONE', *, *, #67, .F. ) ;
#356 = PRESENTATION_LAYER_ASSIGNMENT (  '', '', ( #680 ) ) ;
#357 = VECTOR ( 'NONE', #301, 1000.000000000000000 ) ;
#358 = CARTESIAN_POINT ( 'NONE',  ( 12.26969999210107787, 1.586010497144013653, 20.00000000000000000 ) ) ;
#359 = VECTOR ( 'NONE', #266, 1000.000000000000000 ) ;
#360 = DIRECTION ( 'NONE',  ( 3.061616997868383141E-16, 0.000000000000000000, 1.000000000000000000 ) ) ;
#361 = EDGE_CURVE ( 'NONE', #310, #276, #26, .T. ) ;
#362 = ORIENTED_EDGE ( 'NONE', *, *, #166, .T. ) ;
#363 = DIRECTION ( 'NONE',  ( -2.602085213965199795E-16, 2.891205793294684736E-16, -1.000000000000000000 ) ) ;
#364 = CARTESIAN_POINT ( 'NONE',  ( -2.290300007898930623, 1.586010497144013653, -9.000000000000001776 ) ) ;
#365 = ORIENTED_EDGE ( 'NONE', *, *, #681, .T. ) ;
#366 = PRODUCT_DEFINITION_SHAPE ( 'NONE', 'NONE',  #487 ) ;
#367 = EDGE_CURVE ( 'NONE', #694, #381, #557, .T. ) ;
#368 = CARTESIAN_POINT ( 'NONE',  ( -1.730300007898933901, -2.413989502855986569, -20.00000000000000711 ) ) ;
#369 = LINE ( 'NONE', #74, #267 ) ;
#370 = ORIENTED_EDGE ( 'NONE', *, *, #676, .T. ) ;
#371 = CARTESIAN_POINT ( 'NONE',  ( 32.26969999210110274, 9.586010497143957920, -1.030516413378325270E-14 ) ) ;
#372 = CIRCLE ( 'NONE', #128, 1.499999999999999556 ) ;
#373 = CIRCLE ( 'NONE', #682, 1.500000000000004885 ) ;
#374 =( GEOMETRIC_REPRESENTATION_CONTEXT ( 3 ) GLOBAL_UNCERTAINTY_ASSIGNED_CONTEXT ( ( #687 ) ) GLOBAL_UNIT_ASSIGNED_CONTEXT ( ( #406, #285, #394 ) ) REPRESENTATION_CONTEXT ( 'NONE', 'WORKASPACE' ) );
#375 = LINE ( 'NONE', #364, #740 ) ;
#376 = FACE_BOUND ( 'NONE', #151, .T. ) ;
#377 = LINE ( 'NONE', #647, #422 ) ;
#378 = LINE ( 'NONE', #337, #169 ) ;
#379 = CARTESIAN_POINT ( 'NONE',  ( 16.26969999210110274, 9.586010497144014764, -6.141827791438915675E-15 ) ) ;
#380 = EDGE_CURVE ( 'NONE', #408, #290, #691, .T. ) ;
#381 = VERTEX_POINT ( 'NONE', #197 ) ;
#382 = FACE_OUTER_BOUND ( 'NONE', #656, .T. ) ;
#383 = VECTOR ( 'NONE', #420, 1000.000000000000000 ) ;
#384 = CARTESIAN_POINT ( 'NONE',  ( -2.290300007898930623, 1.586010497144013653, -9.000000000000001776 ) ) ;
#385 = CIRCLE ( 'NONE', #242, 5.500000000000005329 ) ;
#386 = EDGE_CURVE ( 'NONE', #310, #381, #208, .T. ) ;
#387 = PRESENTATION_STYLE_ASSIGNMENT (( #617 ) ) ;
#388 = CARTESIAN_POINT ( 'NONE',  ( -2.290300007898922185, 1.586010497144013653, 12.00000000000000000 ) ) ;
#389 = CARTESIAN_POINT ( 'NONE',  ( -2.290300007898922185, -2.413989502855986569, 12.00000000000000000 ) ) ;
#390 = CYLINDRICAL_SURFACE ( 'NONE', #461, 3.000000000000000888 ) ;
#391 = EDGE_CURVE ( 'NONE', #65, #310, #590, .T. ) ;
#392 = CARTESIAN_POINT ( 'NONE',  ( -2.290300007898931067, 1.586010497144013653, -15.00000000000000000 ) ) ;
#393 = CARTESIAN_POINT ( 'NONE',  ( 16.26969999210112050, 13.58601049714401476, 14.00000000000000178 ) ) ;
#394 =( NAMED_UNIT ( * ) SI_UNIT ( $, .STERADIAN. ) SOLID_ANGLE_UNIT ( ) );
#395 = EDGE_CURVE ( 'NONE', #585, #155, #502, .T. ) ;
#396 = DIRECTION ( 'NONE',  ( -0.000000000000000000, -1.000000000000000000, -0.000000000000000000 ) ) ;
#397 = CIRCLE ( 'NONE', #445, 2.999999999999999112 ) ;
#398 = VERTEX_POINT ( 'NONE', #731 ) ;
#399 = AXIS2_PLACEMENT_3D ( 'NONE', #66, #303, #127 ) ;
#400 = DIRECTION ( 'NONE',  ( 2.602085213965210149E-16, -0.000000000000000000, 1.000000000000000000 ) ) ;
#401 = ORIENTED_EDGE ( 'NONE', *, *, #162, .F. ) ;
#402 = DIRECTION ( 'NONE',  ( -1.000000000000000000, 3.469446951953610639E-15, 2.602085213965210149E-16 ) ) ;
#403 = FACE_OUTER_BOUND ( 'NONE', #9, .T. ) ;
#404 = EDGE_CURVE ( 'NONE', #534, #344, #2, .T. ) ;
#405 = ORIENTED_EDGE ( 'NONE', *, *, #465, .T. ) ;
#406 =( LENGTH_UNIT ( ) NAMED_UNIT ( * ) SI_UNIT ( .MILLI., .METRE. ) );
#407 = DIRECTION ( 'NONE',  ( 0.000000000000000000, 0.000000000000000000, -1.000000000000000000 ) ) ;
#408 = VERTEX_POINT ( 'NONE', #455 ) ;
#409 = AXIS2_PLACEMENT_3D ( 'NONE', #112, #632, #587 ) ;
#410 = AXIS2_PLACEMENT_3D ( 'NONE', #175, #178, #604 ) ;
#411 = CIRCLE ( 'NONE', #542, 2.999999999999999112 ) ;
#412 = CARTESIAN_POINT ( 'NONE',  ( 16.26969999210112050, 13.58601049714401476, 20.00000000000000355 ) ) ;
#413 = ORIENTED_EDGE ( 'NONE', *, *, #518, .T. ) ;
#414 = EDGE_LOOP ( 'NONE', ( #750, #715, #724, #104, #38, #643 ) ) ;
#415 = EDGE_CURVE ( 'NONE', #454, #1, #150, .T. ) ;
#416 = LINE ( 'NONE', #751, #15 ) ;
#417 = ORIENTED_EDGE ( 'NONE', *, *, #32, .F. ) ;
#418 = FACE_BOUND ( 'NONE', #571, .T. ) ;
#419 = ADVANCED_FACE ( 'NONE', ( #734 ), #677, .F. ) ;
#420 = DIRECTION ( 'NONE',  ( 2.602085213965210149E-16, 0.000000000000000000, 1.000000000000000000 ) ) ;
#421 = VERTEX_POINT ( 'NONE', #626 ) ;
#422 = VECTOR ( 'NONE', #316, 1000.000000000000000 ) ;
#423 = DIRECTION ( 'NONE',  ( -3.469446951953614189E-15, -1.000000000000000000, 0.000000000000000000 ) ) ;
#424 = AXIS2_PLACEMENT_3D ( 'NONE', #705, #220, #685 ) ;
#425 = LINE ( 'NONE', #651, #603 ) ;
#426 = ORIENTED_EDGE ( 'NONE', *, *, #126, .T. ) ;
#427 = DIRECTION ( 'NONE',  ( -4.625929269271486900E-15, -1.000000000000000000, 0.000000000000000000 ) ) ;
#428 = DIRECTION ( 'NONE',  ( -0.000000000000000000, -1.000000000000000000, -0.000000000000000000 ) ) ;
#429 = ORIENTED_EDGE ( 'NONE', *, *, #277, .T. ) ;
#430 = ADVANCED_FACE ( 'NONE', ( #665, #96, #334 ), #570, .F. ) ;
#431 = CYLINDRICAL_SURFACE ( 'NONE', #748, 1.499999999999999556 ) ;
#432 = DIRECTION ( 'NONE',  ( -1.000000000000000000, 3.491481338843133355E-15, 2.602085213965210149E-16 ) ) ;
#433 = CARTESIAN_POINT ( 'NONE',  ( -2.290300007898921741, 1.586010497144013653, 15.00000000000000178 ) ) ;
#434 = AXIS2_PLACEMENT_3D ( 'NONE', #466, #51, #407 ) ;
#435 = CIRCLE ( 'NONE', #494, 6.000000000000000000 ) ;
#436 = CARTESIAN_POINT ( 'NONE',  ( -7.730300007898931902, -2.413989502855986569, -13.99999999999999645 ) ) ;
#437 = DIRECTION ( 'NONE',  ( 0.000000000000000000, 0.000000000000000000, 1.000000000000000000 ) ) ;
#438 = EDGE_CURVE ( 'NONE', #155, #79, #107, .T. ) ;
#439 = DIRECTION ( 'NONE',  ( 0.000000000000000000, 0.000000000000000000, -1.000000000000000000 ) ) ;
#440 = EDGE_LOOP ( 'NONE', ( #319, #475, #227, #245 ) ) ;
#441 = CARTESIAN_POINT ( 'NONE',  ( -2.290300007898931067, -2.413989502855986569, -12.00000000000000000 ) ) ;
#442 = LINE ( 'NONE', #476, #281 ) ;
#443 = ORIENTED_EDGE ( 'NONE', *, *, #753, .T. ) ;
#444 = PLANE ( 'NONE',  #741 ) ;
#445 = AXIS2_PLACEMENT_3D ( 'NONE', #103, #533, #581 ) ;
#446 = AXIS2_PLACEMENT_3D ( 'NONE', #379, #546, #193 ) ;
#447 = CARTESIAN_POINT ( 'NONE',  ( 16.26969999210110274, 7.586010497144012099, 20.00000000000000355 ) ) ;
#448 = AXIS2_PLACEMENT_3D ( 'NONE', #196, #504, #729 ) ;
#449 = DIRECTION ( 'NONE',  ( 1.000000000000000000, 0.000000000000000000, 0.000000000000000000 ) ) ;
#450 = EDGE_CURVE ( 'NONE', #280, #456, #442, .T. ) ;
#451 = FACE_OUTER_BOUND ( 'NONE', #739, .T. ) ;
#452 = DIRECTION ( 'NONE',  ( 1.000000000000000000, -3.469446951953610639E-15, -2.602085213965210149E-16 ) ) ;
#453 = CARTESIAN_POINT ( 'NONE',  ( -1.730300007898921688, -2.413989502855986569, 20.00000000000000000 ) ) ;
#454 = VERTEX_POINT ( 'NONE', #232 ) ;
#455 = CARTESIAN_POINT ( 'NONE',  ( -2.290300007898921741, -2.413989502855986569, 15.00000000000000178 ) ) ;
#456 = VERTEX_POINT ( 'NONE', #515 ) ;
#457 = ORIENTED_EDGE ( 'NONE', *, *, #274, .T. ) ;
#458 = CARTESIAN_POINT ( 'NONE',  ( 16.26969999210109563, 7.586010497144013875, -13.99999999999999822 ) ) ;
#459 = AXIS2_PLACEMENT_3D ( 'NONE', #244, #432, #183 ) ;
#460 = CARTESIAN_POINT ( 'NONE',  ( -2.290300007898931067, -2.413989502855986569, -15.00000000000000000 ) ) ;
#461 = AXIS2_PLACEMENT_3D ( 'NONE', #388, #545, #725 ) ;
#462 = ADVANCED_FACE ( 'NONE', ( #480 ), #701, .F. ) ;
#463 = CARTESIAN_POINT ( 'NONE',  ( 32.26969999210110274, 9.586010497143957920, -1.030516413378325270E-14 ) ) ;
#464 = SURFACE_STYLE_FILL_AREA ( #273 ) ;
#465 = EDGE_CURVE ( 'NONE', #538, #352, #435, .T. ) ;
#466 = CARTESIAN_POINT ( 'NONE',  ( -1.730300007898930348, 1.586010497144013653, -14.00000000000000355 ) ) ;
#467 = CARTESIAN_POINT ( 'NONE',  ( -7.730300007898930126, 1.586010497144013653, -14.00000000000000000 ) ) ;
#468 = EDGE_LOOP ( 'NONE', ( #598, #526, #747, #13 ) ) ;
#469 = ADVANCED_FACE ( 'NONE', ( #418, #235 ), #300, .T. ) ;
#470 = VECTOR ( 'NONE', #722, 1000.000000000000000 ) ;
#471 = FACE_OUTER_BOUND ( 'NONE', #468, .T. ) ;
#472 = EDGE_LOOP ( 'NONE', ( #736, #231, #652, #70, #708, #99 ) ) ;
#473 = EDGE_CURVE ( 'NONE', #315, #1, #614, .T. ) ;
#474 = FACE_OUTER_BOUND ( 'NONE', #177, .T. ) ;
#475 = ORIENTED_EDGE ( 'NONE', *, *, #260, .T. ) ;
#476 = CARTESIAN_POINT ( 'NONE',  ( -1.730300007898933901, 1.586010497144013653, -20.00000000000000711 ) ) ;
#477 = CARTESIAN_POINT ( 'NONE',  ( 12.26969999210110807, 11.08601049714402720, -5.437713728773773191E-15 ) ) ;
#478 = ORIENTED_EDGE ( 'NONE', *, *, #215, .F. ) ;
#479 = VECTOR ( 'NONE', #224, 1000.000000000000000 ) ;
#480 = FACE_OUTER_BOUND ( 'NONE', #140, .T. ) ;
#481 = AXIS2_PLACEMENT_3D ( 'NONE', #610, #18, #553 ) ;
#482 = CARTESIAN_POINT ( 'NONE',  ( 10.76969999210107787, 1.586010497144010101, 20.00000000000000000 ) ) ;
#483 = VERTEX_POINT ( 'NONE', #485 ) ;
#484 = EDGE_LOOP ( 'NONE', ( #10, #426, #42, #268 ) ) ;
#485 = CARTESIAN_POINT ( 'NONE',  ( 10.76969999210106721, -2.413989502855990121, -20.00000000000000355 ) ) ;
#486 = DIRECTION ( 'NONE',  ( 0.000000000000000000, 0.000000000000000000, -1.000000000000000000 ) ) ;
#487 = PRODUCT_DEFINITION ( 'BÝLÝNMEYEN', '', #566, #326 ) ;
#488 = DIRECTION ( 'NONE',  ( 0.000000000000000000, 0.000000000000000000, 1.000000000000000000 ) ) ;
#489 = DIRECTION ( 'NONE',  ( -0.000000000000000000, -1.000000000000000000, -0.000000000000000000 ) ) ;
#490 = ORIENTED_EDGE ( 'NONE', *, *, #552, .T. ) ;
#491 = EDGE_CURVE ( 'NONE', #276, #262, #528, .T. ) ;
#492 = CARTESIAN_POINT ( 'NONE',  ( 12.26969999210108497, 3.086010497144009879, 20.00000000000000000 ) ) ;
#493 = VECTOR ( 'NONE', #226, 1000.000000000000000 ) ;
#494 = AXIS2_PLACEMENT_3D ( 'NONE', #742, #754, #423 ) ;
#495 = DIRECTION ( 'NONE',  ( 0.000000000000000000, -0.000000000000000000, 1.000000000000000000 ) ) ;
#496 = DIRECTION ( 'NONE',  ( 1.000000000000000000, 0.000000000000000000, -0.000000000000000000 ) ) ;
#497 = DIRECTION ( 'NONE',  ( -3.469446951953615372E-15, -1.000000000000000000, 0.000000000000000000 ) ) ;
#498 = ORIENTED_EDGE ( 'NONE', *, *, #572, .F. ) ;
#499 = ORIENTED_EDGE ( 'NONE', *, *, #353, .F. ) ;
#500 = CARTESIAN_POINT ( 'NONE',  ( -2.290300007898922185, -2.413989502855986569, 12.00000000000000000 ) ) ;
#501 = EDGE_CURVE ( 'NONE', #46, #49, #529, .T. ) ;
#502 = LINE ( 'NONE', #37, #17 ) ;
#503 = DIRECTION ( 'NONE',  ( 2.602085213965207190E-16, -8.673617379884034239E-17, 1.000000000000000000 ) ) ;
#504 = DIRECTION ( 'NONE',  ( -0.000000000000000000, -0.000000000000000000, -1.000000000000000000 ) ) ;
#505 = AXIS2_PLACEMENT_3D ( 'NONE', #412, #56, #688 ) ;
#506 = VECTOR ( 'NONE', #628, 1000.000000000000000 ) ;
#507 = DIRECTION ( 'NONE',  ( 1.000000000000000000, -3.469446951953610639E-15, -2.602085213965210149E-16 ) ) ;
#508 = VECTOR ( 'NONE', #135, 1000.000000000000000 ) ;
#509 = ORIENTED_EDGE ( 'NONE', *, *, #5, .T. ) ;
#510 = ORIENTED_EDGE ( 'NONE', *, *, #361, .T. ) ;
#511 = DIRECTION ( 'NONE',  ( 0.000000000000000000, 0.000000000000000000, 1.000000000000000000 ) ) ;
#512 = ORIENTED_EDGE ( 'NONE', *, *, #215, .T. ) ;
#513 = DIRECTION ( 'NONE',  ( 0.000000000000000000, 1.000000000000000000, 0.000000000000000000 ) ) ;
#514 = ORIENTED_EDGE ( 'NONE', *, *, #391, .F. ) ;
#515 = CARTESIAN_POINT ( 'NONE',  ( -1.730300007898933901, 1.586010497144013653, -20.00000000000000711 ) ) ;
#516 = LINE ( 'NONE', #559, #28 ) ;
#517 = CIRCLE ( 'NONE', #179, 3.000000000000000888 ) ;
#518 = EDGE_CURVE ( 'NONE', #171, #352, #640, .T. ) ;
#519 = CARTESIAN_POINT ( 'NONE',  ( 16.26969999210106010, -2.413989502856078051, -20.00000000000000355 ) ) ;
#520 = SURFACE_STYLE_USAGE ( .BOTH. , #341 ) ;
#521 = EDGE_CURVE ( 'NONE', #76, #694, #373, .T. ) ;
#522 = CYLINDRICAL_SURFACE ( 'NONE', #156, 5.500000000000006217 ) ;
#523 = EDGE_LOOP ( 'NONE', ( #700, #93, #58, #137 ) ) ;
#524 = CARTESIAN_POINT ( 'NONE',  ( 10.76969999210107787, 1.586010497144010101, -20.00000000000000355 ) ) ;
#525 = ADVANCED_FACE ( 'NONE', ( #182 ), #293, .F. ) ;
#526 = ORIENTED_EDGE ( 'NONE', *, *, #712, .F. ) ;
#527 = AXIS2_PLACEMENT_3D ( 'NONE', #97, #575, #636 ) ;
#528 = CIRCLE ( 'NONE', #410, 6.000000000000000000 ) ;
#529 = LINE ( 'NONE', #541, #717 ) ;
#530 = CARTESIAN_POINT ( 'NONE',  ( -7.730300007898931902, 1.586010497144013653, -13.99999999999999645 ) ) ;
#531 = ORIENTED_EDGE ( 'NONE', *, *, #395, .F. ) ;
#532 = DIRECTION ( 'NONE',  ( 0.000000000000000000, 0.000000000000000000, 1.000000000000000000 ) ) ;
#533 = DIRECTION ( 'NONE',  ( 0.000000000000000000, 1.000000000000000000, 0.000000000000000000 ) ) ;
#534 = VERTEX_POINT ( 'NONE', #595 ) ;
#535 = DIRECTION ( 'NONE',  ( -1.000000000000000000, 1.734723475976801375E-15, 0.000000000000000000 ) ) ;
#536 = EDGE_CURVE ( 'NONE', #456, #539, #161, .T. ) ;
#537 = DIRECTION ( 'NONE',  ( -1.000000000000000000, 0.000000000000000000, 0.000000000000000000 ) ) ;
#538 = VERTEX_POINT ( 'NONE', #591 ) ;
#539 = VERTEX_POINT ( 'NONE', #368 ) ;
#540 = AXIS2_PLACEMENT_3D ( 'NONE', #555, #187, #495 ) ;
#541 = CARTESIAN_POINT ( 'NONE',  ( -1.730300007898921688, 1.586010497144013653, 20.00000000000000000 ) ) ;
#542 = AXIS2_PLACEMENT_3D ( 'NONE', #441, #71, #312 ) ;
#543 = APPLICATION_CONTEXT ( 'automotive_design' ) ;
#544 = CARTESIAN_POINT ( 'NONE',  ( 10.76969999210107787, 1.586010497144013653, -20.00000000000000355 ) ) ;
#545 = DIRECTION ( 'NONE',  ( -0.000000000000000000, -1.000000000000000000, -0.000000000000000000 ) ) ;
#546 = DIRECTION ( 'NONE',  ( -1.000000000000000000, 3.469446951953610639E-15, 2.602085213965210149E-16 ) ) ;
#547 = EDGE_CURVE ( 'NONE', #276, #694, #600, .T. ) ;
#548 = ORIENTED_EDGE ( 'NONE', *, *, #347, .F. ) ;
#549 = ORIENTED_EDGE ( 'NONE', *, *, #367, .T. ) ;
#550 = CARTESIAN_POINT ( 'NONE',  ( -2.290300007898922185, 1.586010497144013653, 9.000000000000000000 ) ) ;
#551 = CARTESIAN_POINT ( 'NONE',  ( -1.730300007898921688, -2.413989502855986569, 14.00000000000000000 ) ) ;
#552 = EDGE_CURVE ( 'NONE', #456, #121, #30, .T. ) ;
#553 = DIRECTION ( 'NONE',  ( 0.000000000000000000, 0.000000000000000000, 1.000000000000000000 ) ) ;
#554 = AXIS2_PLACEMENT_3D ( 'NONE', #278, #363, #650 ) ;
#555 = CARTESIAN_POINT ( 'NONE',  ( -1.730300007898921688, 1.586010497144013653, 14.00000000000000000 ) ) ;
#556 = DIRECTION ( 'NONE',  ( 1.000000000000000000, -3.469446951953610639E-15, -2.602085213965210149E-16 ) ) ;
#557 = LINE ( 'NONE', #146, #144 ) ;
#558 = ORIENTED_EDGE ( 'NONE', *, *, #282, .T. ) ;
#559 = CARTESIAN_POINT ( 'NONE',  ( -1.730300007898921688, 1.586010497144013653, 20.00000000000000000 ) ) ;
#560 = CARTESIAN_POINT ( 'NONE',  ( 16.26969999210110629, 11.08601049714401299, -5.437713728773772402E-15 ) ) ;
#561 = DIRECTION ( 'NONE',  ( 0.000000000000000000, 0.000000000000000000, -1.000000000000000000 ) ) ;
#562 = FILL_AREA_STYLE_COLOUR ( '', #563 ) ;
#563 = COLOUR_RGB ( '',0.7921568627450980005, 0.8196078431372548767, 0.9333333333333333481 ) ;
#564 = CIRCLE ( 'NONE', #481, 2.999999999999999112 ) ;
#565 = DIRECTION ( 'NONE',  ( 0.000000000000000000, 0.000000000000000000, -1.000000000000000000 ) ) ;
#566 = PRODUCT_DEFINITION_FORMATION_WITH_SPECIFIED_SOURCE ( 'HERHANGÝ', '', #198, .NOT_KNOWN. ) ;
#567 = ORIENTED_EDGE ( 'NONE', *, *, #380, .T. ) ;
#568 = ORIENTED_EDGE ( 'NONE', *, *, #536, .T. ) ;
#569 = PRODUCT_CONTEXT ( 'NONE', #19, 'mechanical' ) ;
#570 = PLANE ( 'NONE',  #633 ) ;
#571 = EDGE_LOOP ( 'NONE', ( #296, #720 ) ) ;
#572 = EDGE_CURVE ( 'NONE', #279, #46, #143, .T. ) ;
#573 = CARTESIAN_POINT ( 'NONE',  ( 0.000000000000000000, 0.000000000000000000, 0.000000000000000000 ) ) ;
#574 = DIRECTION ( 'NONE',  ( -3.469446951953614189E-15, -1.000000000000000000, 0.000000000000000000 ) ) ;
#575 = DIRECTION ( 'NONE',  ( -1.927470528863118802E-16, 0.000000000000000000, 1.000000000000000000 ) ) ;
#576 = CIRCLE ( 'NONE', #240, 6.000000000000000000 ) ;
#577 = AXIS2_PLACEMENT_3D ( 'NONE', #338, #88, #561 ) ;
#578 = DIRECTION ( 'NONE',  ( 0.000000000000000000, 1.000000000000000000, 0.000000000000000000 ) ) ;
#579 = VECTOR ( 'NONE', #654, 1000.000000000000000 ) ;
#580 = ORIENTED_EDGE ( 'NONE', *, *, #415, .T. ) ;
#581 = DIRECTION ( 'NONE',  ( 0.000000000000000000, 0.000000000000000000, 1.000000000000000000 ) ) ;
#582 = ORIENTED_EDGE ( 'NONE', *, *, #501, .T. ) ;
#583 = ADVANCED_FACE ( 'NONE', ( #186 ), #431, .F. ) ;
#584 = CARTESIAN_POINT ( 'NONE',  ( 10.76969999210107787, 1.586010497144013653, 20.00000000000000000 ) ) ;
#585 = VERTEX_POINT ( 'NONE', #342 ) ;
#586 = DIRECTION ( 'NONE',  ( -4.625929269271486900E-15, -1.000000000000000000, 0.000000000000000000 ) ) ;
#587 = DIRECTION ( 'NONE',  ( 1.000000000000000000, -3.469446951953602750E-15, 0.000000000000000000 ) ) ;
#588 = ORIENTED_EDGE ( 'NONE', *, *, #158, .F. ) ;
#589 = VECTOR ( 'NONE', #699, 1000.000000000000000 ) ;
#590 = CIRCLE ( 'NONE', #332, 6.000000000000000000 ) ;
#591 = CARTESIAN_POINT ( 'NONE',  ( 12.26969999210110984, 13.58601049714402897, -13.99999999999999822 ) ) ;
#592 = LINE ( 'NONE', #467, #589 ) ;
#593 = ORIENTED_EDGE ( 'NONE', *, *, #450, .T. ) ;
#594 = EDGE_CURVE ( 'NONE', #113, #381, #385, .T. ) ;
#595 = CARTESIAN_POINT ( 'NONE',  ( 16.26969999210109563, 7.586010497144015652, -20.00000000000000000 ) ) ;
#596 = FACE_BOUND ( 'NONE', #649, .T. ) ;
#597 = EDGE_LOOP ( 'NONE', ( #413, #118, #109, #210 ) ) ;
#598 = ORIENTED_EDGE ( 'NONE', *, *, #404, .F. ) ;
#599 = EDGE_CURVE ( 'NONE', #398, #290, #314, .T. ) ;
#600 = LINE ( 'NONE', #358, #304 ) ;
#601 = CARTESIAN_POINT ( 'NONE',  ( 12.26969999210109918, 7.586010497144026310, 20.00000000000000355 ) ) ;
#602 = CLOSED_SHELL ( 'NONE', ( #462, #641, #419, #202, #430, #50, #241, #87, #658, #219, #329, #320, #698, #733, #133, #142, #335, #525, #625, #469, #100, #583, #188, #105 ) ) ;
#603 = VECTOR ( 'NONE', #489, 1000.000000000000000 ) ;
#604 = DIRECTION ( 'NONE',  ( -3.469446951953614189E-15, -1.000000000000000000, 0.000000000000000000 ) ) ;
#605 = EDGE_CURVE ( 'NONE', #290, #408, #254, .T. ) ;
#606 = DIRECTION ( 'NONE',  ( -2.312964634635743450E-15, -1.000000000000000000, 0.000000000000000000 ) ) ;
#607 = CARTESIAN_POINT ( 'NONE',  ( 12.26969999210110274, 9.586010497144027198, -5.100993705852832207E-15 ) ) ;
#608 = FACE_OUTER_BOUND ( 'NONE', #637, .T. ) ;
#609 = ORIENTED_EDGE ( 'NONE', *, *, #353, .T. ) ;
#610 = CARTESIAN_POINT ( 'NONE',  ( -2.290300007898931067, 1.586010497144013653, -12.00000000000000000 ) ) ;
#611 = CARTESIAN_POINT ( 'NONE',  ( -2.290300007898930623, -2.413989502855986569, -9.000000000000001776 ) ) ;
#612 = ORIENTED_EDGE ( 'NONE', *, *, #648, .T. ) ;
#613 = LINE ( 'NONE', #433, #348 ) ;
#614 = CIRCLE ( 'NONE', #424, 2.999999999999999112 ) ;
#615 = CARTESIAN_POINT ( 'NONE',  ( 10.76969999210106721, -2.413989502855990121, -20.00000000000000711 ) ) ;
#616 = ORIENTED_EDGE ( 'NONE', *, *, #707, .F. ) ;
#617 = SURFACE_STYLE_USAGE ( .BOTH. , #154 ) ;
#618 = DIRECTION ( 'NONE',  ( 1.000000000000000000, 0.000000000000000000, -3.061616997868383141E-16 ) ) ;
#619 = DIRECTION ( 'NONE',  ( 0.000000000000000000, -1.000000000000000000, -2.891205793294684736E-16 ) ) ;
#620 = LINE ( 'NONE', #615, #130 ) ;
#621 = ORIENTED_EDGE ( 'NONE', *, *, #223, .F. ) ;
#622 = EDGE_LOOP ( 'NONE', ( #752, #39, #679, #568 ) ) ;
#623 = DIRECTION ( 'NONE',  ( 0.000000000000000000, 0.000000000000000000, 1.000000000000000000 ) ) ;
#624 = AXIS2_PLACEMENT_3D ( 'NONE', #634, #744, #695 ) ;
#625 = ADVANCED_FACE ( 'NONE', ( #376, #718 ), #259, .F. ) ;
#626 = CARTESIAN_POINT ( 'NONE',  ( 16.26969999210107432, 3.086010497143997444, -20.00000000000000355 ) ) ;
#627 = ORIENTED_EDGE ( 'NONE', *, *, #594, .F. ) ;
#628 = DIRECTION ( 'NONE',  ( -3.469446951953610639E-15, -1.000000000000000000, -2.891205793294675861E-16 ) ) ;
#629 = EDGE_CURVE ( 'NONE', #328, #454, #564, .T. ) ;
#630 = FILL_AREA_STYLE ('',( #222 ) ) ;
#631 = DIRECTION ( 'NONE',  ( -1.000000000000000000, 3.469446951953610639E-15, 2.602085213965210149E-16 ) ) ;
#632 = DIRECTION ( 'NONE',  ( -0.000000000000000000, -0.000000000000000000, -1.000000000000000000 ) ) ;
#633 = AXIS2_PLACEMENT_3D ( 'NONE', #275, #513, #738 ) ;
#634 = CARTESIAN_POINT ( 'NONE',  ( 16.26969999210108853, 7.586010497144013875, -13.99999999999999822 ) ) ;
#635 = ORIENTED_EDGE ( 'NONE', *, *, #260, .F. ) ;
#636 = DIRECTION ( 'NONE',  ( 1.000000000000000000, 0.000000000000000000, 1.927470528863118802E-16 ) ) ;
#637 = EDGE_LOOP ( 'NONE', ( #509, #61, #593, #490, #653, #14 ) ) ;
#638 = CARTESIAN_POINT ( 'NONE',  ( 10.76969999210108142, 3.086010497144014764, -20.00000000000000711 ) ) ;
#639 = EDGE_LOOP ( 'NONE', ( #635, #124, #580, #164 ) ) ;
#640 = LINE ( 'NONE', #646, #579 ) ;
#641 = ADVANCED_FACE ( 'NONE', ( #138 ), #390, .F. ) ;
#642 = DIRECTION ( 'NONE',  ( 1.000000000000000000, -3.469446951953610245E-15, 0.000000000000000000 ) ) ;
#643 = ORIENTED_EDGE ( 'NONE', *, *, #404, .T. ) ;
#644 = AXIS2_PLACEMENT_3D ( 'NONE', #63, #486, #134 ) ;
#645 = AXIS2_PLACEMENT_3D ( 'NONE', #607, #73, #7 ) ;
#646 = CARTESIAN_POINT ( 'NONE',  ( 12.26969999210111339, 13.58601049714402897, -20.00000000000000000 ) ) ;
#647 = CARTESIAN_POINT ( 'NONE',  ( 12.26969999210108497, 3.086010497144008102, 20.00000000000000355 ) ) ;
#648 = EDGE_CURVE ( 'NONE', #79, #155, #318, .T. ) ;
#649 = EDGE_LOOP ( 'NONE', ( #350, #125 ) ) ;
#650 = DIRECTION ( 'NONE',  ( 0.000000000000000000, 1.000000000000000000, 2.891205793294684736E-16 ) ) ;
#651 = CARTESIAN_POINT ( 'NONE',  ( -7.730300007898922132, 1.586010497144013653, 14.00000000000000000 ) ) ;
#652 = ORIENTED_EDGE ( 'NONE', *, *, #277, .F. ) ;
#653 = ORIENTED_EDGE ( 'NONE', *, *, #158, .T. ) ;
#654 = DIRECTION ( 'NONE',  ( 3.469446951953610639E-15, 1.000000000000000000, 2.891205793294675861E-16 ) ) ;
#655 = CARTESIAN_POINT ( 'NONE',  ( 10.76969999210108142, 3.086010497144014764, -20.00000000000000355 ) ) ;
#656 = EDGE_LOOP ( 'NONE', ( #478, #370, #743, #355 ) ) ;
#657 = LINE ( 'NONE', #132, #3 ) ;
#658 = ADVANCED_FACE ( 'NONE', ( #199 ), #444, .F. ) ;
#659 = FACE_OUTER_BOUND ( 'NONE', #663, .T. ) ;
#660 = VERTEX_POINT ( 'NONE', #11 ) ;
#661 = CARTESIAN_POINT ( 'NONE',  ( -1.730300007898921688, -2.413989502855986569, 20.00000000000000000 ) ) ;
#662 = CARTESIAN_POINT ( 'NONE',  ( 16.26969999210110274, 9.586010497144014764, -6.141827791438915675E-15 ) ) ;
#663 = EDGE_LOOP ( 'NONE', ( #514, #417, #253, #225 ) ) ;
#664 = DIRECTION ( 'NONE',  ( 0.000000000000000000, 0.000000000000000000, 1.000000000000000000 ) ) ;
#665 = FACE_BOUND ( 'NONE', #85, .T. ) ;
#666 = CARTESIAN_POINT ( 'NONE',  ( 16.26969999210106010, -2.413989502856083824, -6.141827791438917253E-15 ) ) ;
#667 = AXIS2_PLACEMENT_3D ( 'NONE', #500, #149, #437 ) ;
#668 = PRESENTATION_LAYER_ASSIGNMENT (  '', '', ( #206 ) ) ;
#669 = CARTESIAN_POINT ( 'NONE',  ( 16.26969999210111339, 13.58601049714401476, -13.99999999999999822 ) ) ;
#670 =( NAMED_UNIT ( * ) SI_UNIT ( $, .STERADIAN. ) SOLID_ANGLE_UNIT ( ) );
#671 = CARTESIAN_POINT ( 'NONE',  ( 10.76969999210108142, 3.086010497144014764, 20.00000000000000000 ) ) ;
#672 = DIRECTION ( 'NONE',  ( -3.469446951953614189E-15, -1.000000000000000000, 0.000000000000000000 ) ) ;
#673 =( LENGTH_UNIT ( ) NAMED_UNIT ( * ) SI_UNIT ( .MILLI., .METRE. ) );
#674 = EDGE_LOOP ( 'NONE', ( #709, #510, #52, #549 ) ) ;
#675 = DIRECTION ( 'NONE',  ( 1.000000000000000000, 0.000000000000000000, 0.000000000000000000 ) ) ;
#676 = EDGE_CURVE ( 'NONE', #171, #421, #86, .T. ) ;
#677 = CYLINDRICAL_SURFACE ( 'NONE', #730, 2.999999999999999112 ) ;
#678 = VERTEX_POINT ( 'NONE', #560 ) ;
#679 = ORIENTED_EDGE ( 'NONE', *, *, #552, .F. ) ;
#680 = STYLED_ITEM ( 'NONE', ( #387 ), #22 ) ;
#681 = EDGE_CURVE ( 'NONE', #398, #284, #517, .T. ) ;
#682 = AXIS2_PLACEMENT_3D ( 'NONE', #102, #119, #535 ) ;
#683 = CARTESIAN_POINT ( 'NONE',  ( 16.26969999210110984, 13.58601049714401476, -20.00000000000000000 ) ) ;
#684 = LINE ( 'NONE', #209, #291 ) ;
#685 = DIRECTION ( 'NONE',  ( 0.000000000000000000, 0.000000000000000000, 1.000000000000000000 ) ) ;
#686 = ORIENTED_EDGE ( 'NONE', *, *, #90, .F. ) ;
#687 = UNCERTAINTY_MEASURE_WITH_UNIT (LENGTH_MEASURE( 1.000000000000000082E-05 ), #406, 'distance_accuracy_value', 'NONE');
#688 = DIRECTION ( 'NONE',  ( 1.000000000000000000, -3.491481338843133355E-15, 0.000000000000000000 ) ) ;
#689 = PRESENTATION_STYLE_ASSIGNMENT (( #520 ) ) ;
#690 = AXIS2_PLACEMENT_3D ( 'NONE', #551, #78, #305 ) ;
#691 = CIRCLE ( 'NONE', #269, 3.000000000000000888 ) ;
#692 = CARTESIAN_POINT ( 'NONE',  ( -2.290300007898922185, 1.586010497144013653, 12.00000000000000000 ) ) ;
#693 = MECHANICAL_DESIGN_GEOMETRIC_PRESENTATION_REPRESENTATION (  '', ( #206 ), #374 ) ;
#694 = VERTEX_POINT ( 'NONE', #492 ) ;
#695 = DIRECTION ( 'NONE',  ( -3.469446951953614189E-15, -1.000000000000000000, 0.000000000000000000 ) ) ;
#696 = ORIENTED_EDGE ( 'NONE', *, *, #57, .T. ) ;
#697 = DIRECTION ( 'NONE',  ( -3.469446951953610639E-15, -1.000000000000000000, 0.000000000000000000 ) ) ;
#698 = ADVANCED_FACE ( 'NONE', ( #451 ), #321, .T. ) ;
#699 = DIRECTION ( 'NONE',  ( 3.061616997868383141E-16, 0.000000000000000000, 1.000000000000000000 ) ) ;
#700 = ORIENTED_EDGE ( 'NONE', *, *, #745, .F. ) ;
#701 = CYLINDRICAL_SURFACE ( 'NONE', #95, 1.499999999999999556 ) ;
#702 = CARTESIAN_POINT ( 'NONE',  ( -2.290300007898922185, 1.586010497144013653, 12.00000000000000000 ) ) ;
#703 = ORIENTED_EDGE ( 'NONE', *, *, #438, .T. ) ;
#704 = AXIS2_PLACEMENT_3D ( 'NONE', #702, #180, #565 ) ;
#705 = CARTESIAN_POINT ( 'NONE',  ( -2.290300007898931067, -2.413989502855986569, -12.00000000000000000 ) ) ;
#706 = CYLINDRICAL_SURFACE ( 'NONE', #459, 6.000000000000000000 ) ;
#707 = EDGE_CURVE ( 'NONE', #421, #483, #69, .T. ) ;
#708 = ORIENTED_EDGE ( 'NONE', *, *, #75, .F. ) ;
#709 = ORIENTED_EDGE ( 'NONE', *, *, #386, .F. ) ;
#710 = DIRECTION ( 'NONE',  ( 0.000000000000000000, 0.000000000000000000, 1.000000000000000000 ) ) ;
#711 = DIRECTION ( 'NONE',  ( -1.000000000000000000, 3.469446951953610639E-15, 2.602085213965210149E-16 ) ) ;
#712 = EDGE_CURVE ( 'NONE', #352, #534, #657, .T. ) ;
#713 = PLANE ( 'NONE',  #243 ) ;
#714 = DIRECTION ( 'NONE',  ( -0.000000000000000000, -1.000000000000000000, -0.000000000000000000 ) ) ;
#715 = ORIENTED_EDGE ( 'NONE', *, *, #391, .T. ) ;
#716 = VECTOR ( 'NONE', #339, 1000.000000000000000 ) ;
#717 = VECTOR ( 'NONE', #122, 1000.000000000000000 ) ;
#718 = FACE_OUTER_BOUND ( 'NONE', #414, .T. ) ;
#719 = DIRECTION ( 'NONE',  ( -0.000000000000000000, -0.000000000000000000, -1.000000000000000000 ) ) ;
#720 = ORIENTED_EDGE ( 'NONE', *, *, #648, .F. ) ;
#721 = ORIENTED_EDGE ( 'NONE', *, *, #491, .T. ) ;
#722 = DIRECTION ( 'NONE',  ( -0.000000000000000000, -1.000000000000000000, -0.000000000000000000 ) ) ;
#723 = DIRECTION ( 'NONE',  ( 0.000000000000000000, 1.000000000000000000, 0.000000000000000000 ) ) ;
#724 = ORIENTED_EDGE ( 'NONE', *, *, #386, .T. ) ;
#725 = DIRECTION ( 'NONE',  ( 0.000000000000000000, 0.000000000000000000, -1.000000000000000000 ) ) ;
#726 = EDGE_CURVE ( 'NONE', #1, #315, #411, .T. ) ;
#727 = CARTESIAN_POINT ( 'NONE',  ( 16.26969999210106721, -2.413989502856089597, 20.00000000000000000 ) ) ;
#728 = AXIS2_PLACEMENT_3D ( 'NONE', #8, #428, #439 ) ;
#729 = DIRECTION ( 'NONE',  ( -1.000000000000000000, 0.000000000000000000, 0.000000000000000000 ) ) ;
#730 = AXIS2_PLACEMENT_3D ( 'NONE', #153, #396, #41 ) ;
#731 = CARTESIAN_POINT ( 'NONE',  ( -2.290300007898922185, 1.586010497144013653, 9.000000000000000000 ) ) ;
#732 = EDGE_LOOP ( 'NONE', ( #429, #195, #498, #89 ) ) ;
#733 = ADVANCED_FACE ( 'NONE', ( #382 ), #713, .F. ) ;
#734 = FACE_OUTER_BOUND ( 'NONE', #440, .T. ) ;
#735 = PLANE ( 'NONE',  #527 ) ;
#736 = ORIENTED_EDGE ( 'NONE', *, *, #347, .T. ) ;
#737 = SHAPE_DEFINITION_REPRESENTATION ( #366, #200 ) ;
#738 = DIRECTION ( 'NONE',  ( 0.000000000000000000, -0.000000000000000000, 1.000000000000000000 ) ) ;
#739 = EDGE_LOOP ( 'NONE', ( #185, #214, #64, #258 ) ) ;
#740 = VECTOR ( 'NONE', #714, 1000.000000000000000 ) ;
#741 = AXIS2_PLACEMENT_3D ( 'NONE', #145, #618, #255 ) ;
#742 = CARTESIAN_POINT ( 'NONE',  ( 12.26969999210109208, 7.586010497144028086, -13.99999999999999645 ) ) ;
#743 = ORIENTED_EDGE ( 'NONE', *, *, #707, .T. ) ;
#744 = DIRECTION ( 'NONE',  ( -1.000000000000000000, 3.491481338843133355E-15, 2.602085213965210149E-16 ) ) ;
#745 = EDGE_CURVE ( 'NONE', #284, #408, #613, .T. ) ;
#746 = LINE ( 'NONE', #760, #292 ) ;
#747 = ORIENTED_EDGE ( 'NONE', *, *, #465, .F. ) ;
#748 = AXIS2_PLACEMENT_3D ( 'NONE', #371, #631, #586 ) ;
#749 = DIRECTION ( 'NONE',  ( 0.000000000000000000, 1.000000000000000000, -0.000000000000000000 ) ) ;
#750 = ORIENTED_EDGE ( 'NONE', *, *, #90, .T. ) ;
#751 = CARTESIAN_POINT ( 'NONE',  ( -1.730300007898933901, -2.413989502855986569, -20.00000000000000711 ) ) ;
#752 = ORIENTED_EDGE ( 'NONE', *, *, #75, .T. ) ;
#753 = EDGE_CURVE ( 'NONE', #49, #113, #83, .T. ) ;
#754 = DIRECTION ( 'NONE',  ( -1.000000000000000000, 3.469446951953610639E-15, 2.602085213965210149E-16 ) ) ;
#755 = CARTESIAN_POINT ( 'NONE',  ( 12.26969999210108497, 3.086010497144009879, -20.00000000000000355 ) ) ;
#756 = ORIENTED_EDGE ( 'NONE', *, *, #5, .F. ) ;
#757 = CARTESIAN_POINT ( 'NONE',  ( -1.730300007898933901, 1.586010497144013653, -20.00000000000000711 ) ) ;
#758 = EDGE_CURVE ( 'NONE', #280, #76, #378, .T. ) ;
#759 = AXIS2_PLACEMENT_3D ( 'NONE', #692, #578, #117 ) ;
#760 = CARTESIAN_POINT ( 'NONE',  ( -7.730300007898931902, 1.586010497144013653, -13.99999999999999645 ) ) ;
ENDSEC;
END-ISO-10303-21;
