ISO-10303-21;
HEADER;
FILE_DESCRIPTION (( 'STEP AP214' ),
    '1' );
FILE_NAME ('Gripper.STEP',
    '2026-04-30T16:22:47',
    ( '' ),
    ( '' ),
    'SwSTEP 2.0',
    'SolidWorks 2022',
    '' );
FILE_SCHEMA (( 'AUTOMOTIVE_DESIGN' ));
ENDSEC;

DATA;
#1 = VERTEX_POINT ( 'NONE', #1000 ) ;
#2 = FILL_AREA_STYLE_COLOUR ( '', #548 ) ;
#3 = VECTOR ( 'NONE', #653, 1000.000000000000000 ) ;
#4 = LINE ( 'NONE', #965, #125 ) ;
#5 = DIRECTION ( 'NONE',  ( 0.000000000000000000, -0.000000000000000000, -1.000000000000000000 ) ) ;
#6 = VERTEX_POINT ( 'NONE', #215 ) ;
#7 =( NAMED_UNIT ( * ) PLANE_ANGLE_UNIT ( ) SI_UNIT ( $, .RADIAN. ) );
#8 = CARTESIAN_POINT ( 'NONE',  ( 23.38931754395152396, 4.500000000000000888, 13.68252473876532171 ) ) ;
#9 = CARTESIAN_POINT ( 'NONE',  ( 78.15345287162564603, -1.500000000000000000, -3.190217748655987950 ) ) ;
#10 = ORIENTED_EDGE ( 'NONE', *, *, #536, .F. ) ;
#11 = EDGE_CURVE ( 'NONE', #774, #1034, #560, .T. ) ;
#12 = EDGE_LOOP ( 'NONE', ( #461, #935, #838, #821 ) ) ;
#13 = CIRCLE ( 'NONE', #646, 2.000000000000001776 ) ;
#14 = LINE ( 'NONE', #8, #253 ) ;
#15 = DIRECTION ( 'NONE',  ( 0.000000000000000000, 0.000000000000000000, -1.000000000000000000 ) ) ;
#16 = ORIENTED_EDGE ( 'NONE', *, *, #598, .T. ) ;
#17 = ADVANCED_FACE ( 'NONE', ( #471 ), #833, .F. ) ;
#18 = CARTESIAN_POINT ( 'NONE',  ( 34.17698179368547073, -1.500000000000000000, 2.896371394142037925 ) ) ;
#19 = DIRECTION ( 'NONE',  ( -0.7772490812546181127, 0.000000000000000000, -0.6291930273682727615 ) ) ;
#20 = EDGE_CURVE ( 'NONE', #1034, #1078, #687, .T. ) ;
#21 = ORIENTED_EDGE ( 'NONE', *, *, #583, .T. ) ;
#22 = CIRCLE ( 'NONE', #655, 2.000000000000000000 ) ;
#23 = ORIENTED_EDGE ( 'NONE', *, *, #77, .F. ) ;
#24 = DIRECTION ( 'NONE',  ( 0.000000000000000000, 0.000000000000000000, -1.000000000000000000 ) ) ;
#25 = DIRECTION ( 'NONE',  ( -0.000000000000000000, -1.000000000000000000, -0.000000000000000000 ) ) ;
#26 = DIRECTION ( 'NONE',  ( 1.000000000000000000, 0.000000000000000000, 0.000000000000000000 ) ) ;
#27 = ORIENTED_EDGE ( 'NONE', *, *, #166, .T. ) ;
#28 = CIRCLE ( 'NONE', #131, 10.00000000000000000 ) ;
#29 = VERTEX_POINT ( 'NONE', #1121 ) ;
#30 = CYLINDRICAL_SURFACE ( 'NONE', #830, 2.000000000000000000 ) ;
#31 = EDGE_CURVE ( 'NONE', #137, #1, #693, .T. ) ;
#32 = DIRECTION ( 'NONE',  ( -0.000000000000000000, -1.000000000000000000, -0.000000000000000000 ) ) ;
#33 = VERTEX_POINT ( 'NONE', #314 ) ;
#34 = DIRECTION ( 'NONE',  ( 0.6291930273683203900, 0.000000000000000000, -0.7772490812545796990 ) ) ;
#35 = ORIENTED_EDGE ( 'NONE', *, *, #652, .T. ) ;
#36 = CIRCLE ( 'NONE', #674, 2.000000000000001776 ) ;
#37 = VERTEX_POINT ( 'NONE', #942 ) ;
#38 = CARTESIAN_POINT ( 'NONE',  ( 23.38931754395152396, 4.500000000000000888, 13.68252473876532171 ) ) ;
#39 = VECTOR ( 'NONE', #695, 1000.000000000000000 ) ;
#40 = ORIENTED_EDGE ( 'NONE', *, *, #306, .T. ) ;
#41 = ADVANCED_FACE ( 'NONE', ( #1127 ), #154, .F. ) ;
#42 = ORIENTED_EDGE ( 'NONE', *, *, #740, .T. ) ;
#43 = CARTESIAN_POINT ( 'NONE',  ( 33.43619114564841510, -1.500000000000000000, 1.038622967744955217 ) ) ;
#44 = COLOUR_RGB ( '',0.7803921568627451011, 0.7607843137254901578, 0.7411764705882353255 ) ;
#45 = CARTESIAN_POINT ( 'NONE',  ( 19.39156579964847182, 4.500000000000000888, 6.682524738765320826 ) ) ;
#46 = VERTEX_POINT ( 'NONE', #1032 ) ;
#47 = MANIFOLD_SOLID_BREP ( 'Ölçek1', #712 ) ;
#48 = ORIENTED_EDGE ( 'NONE', *, *, #272, .T. ) ;
#49 = LINE ( 'NONE', #917, #971 ) ;
#50 = EDGE_CURVE ( 'NONE', #1, #633, #326, .T. ) ;
#51 = DIRECTION ( 'NONE',  ( -0.000000000000000000, -1.000000000000000000, -0.000000000000000000 ) ) ;
#52 = ORIENTED_EDGE ( 'NONE', *, *, #720, .F. ) ;
#53 = EDGE_CURVE ( 'NONE', #391, #6, #332, .T. ) ;
#54 = AXIS2_PLACEMENT_3D ( 'NONE', #706, #516, #87 ) ;
#55 = ORIENTED_EDGE ( 'NONE', *, *, #1054, .T. ) ;
#56 = FACE_BOUND ( 'NONE', #263, .T. ) ;
#57 = VECTOR ( 'NONE', #789, 1000.000000000000000 ) ;
#58 = DIRECTION ( 'NONE',  ( 0.000000000000000000, 0.000000000000000000, 1.000000000000000000 ) ) ;
#59 = CARTESIAN_POINT ( 'NONE',  ( 82.95755179256495637, 4.500000000000000888, -5.373937867588350237 ) ) ;
#60 = SURFACE_SIDE_STYLE ('',( #498 ) ) ;
#61 =( GEOMETRIC_REPRESENTATION_CONTEXT ( 3 ) GLOBAL_UNCERTAINTY_ASSIGNED_CONTEXT ( ( #1084 ) ) GLOBAL_UNIT_ASSIGNED_CONTEXT ( ( #500, #245, #716 ) ) REPRESENTATION_CONTEXT ( 'NONE', 'WORKASPACE' ) );
#62 = EDGE_LOOP ( 'NONE', ( #1001, #561, #354, #390 ) ) ;
#63 = DIRECTION ( 'NONE',  ( 0.000000000000000000, 1.000000000000000000, -0.000000000000000000 ) ) ;
#64 = EDGE_CURVE ( 'NONE', #33, #161, #1019, .T. ) ;
#65 = CARTESIAN_POINT ( 'NONE',  ( 84.79185962432579515, 4.500000000000000888, -3.889042322999129997 ) ) ;
#66 = ORIENTED_EDGE ( 'NONE', *, *, #982, .T. ) ;
#67 = CARTESIAN_POINT ( 'NONE',  ( 71.51504611892563901, 4.500000000000000888, -2.491393174312790837 ) ) ;
#68 = CARTESIAN_POINT ( 'NONE',  ( 15.45698876122486531, 4.500000000000000888, -6.467718804901585017 ) ) ;
#69 = CARTESIAN_POINT ( 'NONE',  ( 79.05437001581827872, 4.500000000000000888, -21.86668471054793983 ) ) ;
#70 = DIRECTION ( 'NONE',  ( 0.7772490812545796990, 0.000000000000000000, 0.6291930273683203900 ) ) ;
#71 = VECTOR ( 'NONE', #941, 1000.000000000000000 ) ;
#72 = VERTEX_POINT ( 'NONE', #1104 ) ;
#73 = CARTESIAN_POINT ( 'NONE',  ( 81.47265624797572059, 4.500000000000000888, -3.539630035827554089 ) ) ;
#74 = CARTESIAN_POINT ( 'NONE',  ( 69.68073828716488549, 4.500000000000000888, -3.976288718902026176 ) ) ;
#75 = VERTEX_POINT ( 'NONE', #320 ) ;
#76 = CARTESIAN_POINT ( 'NONE',  ( 79.05437001581827872, -1.500000000000000000, -21.86668471054793983 ) ) ;
#77 = EDGE_CURVE ( 'NONE', #576, #89, #334, .T. ) ;
#78 = CIRCLE ( 'NONE', #868, 3.000000000000001332 ) ;
#79 = DIRECTION ( 'NONE',  ( 0.7772490812545771455, 0.000000000000000000, 0.6291930273683233876 ) ) ;
#80 = LINE ( 'NONE', #585, #910 ) ;
#81 = DIRECTION ( 'NONE',  ( 0.000000000000000000, 1.000000000000000000, -0.000000000000000000 ) ) ;
#82 = VECTOR ( 'NONE', #415, 1000.000000000000000 ) ;
#83 = ORIENTED_EDGE ( 'NONE', *, *, #227, .F. ) ;
#84 = CARTESIAN_POINT ( 'NONE',  ( 79.63834841621489602, 4.500000000000000888, -5.024525580416786319 ) ) ;
#85 = DIRECTION ( 'NONE',  ( 0.000000000000000000, 1.000000000000000000, 0.000000000000000000 ) ) ;
#86 = EDGE_CURVE ( 'NONE', #857, #451, #760, .T. ) ;
#87 = DIRECTION ( 'NONE',  ( 0.000000000000000000, 0.000000000000000000, 1.000000000000000000 ) ) ;
#88 = ADVANCED_FACE ( 'NONE', ( #860 ), #772, .F. ) ;
#89 = VERTEX_POINT ( 'NONE', #952 ) ;
#90 = LINE ( 'NONE', #600, #509 ) ;
#91 = CARTESIAN_POINT ( 'NONE',  ( 81.47265624797572059, 4.500000000000000888, -3.539630035827554089 ) ) ;
#92 = FACE_BOUND ( 'NONE', #179, .T. ) ;
#93 = ORIENTED_EDGE ( 'NONE', *, *, #525, .T. ) ;
#94 = AXIS2_PLACEMENT_3D ( 'NONE', #582, #151, #1093 ) ;
#95 = FACE_OUTER_BOUND ( 'NONE', #587, .T. ) ;
#96 = DIRECTION ( 'NONE',  ( -0.000000000000000000, -1.000000000000000000, -0.000000000000000000 ) ) ;
#97 = EDGE_CURVE ( 'NONE', #37, #457, #1041, .T. ) ;
#98 = ORIENTED_EDGE ( 'NONE', *, *, #777, .F. ) ;
#99 = ORIENTED_EDGE ( 'NONE', *, *, #780, .T. ) ;
#100 = CARTESIAN_POINT ( 'NONE',  ( 23.38931754395153106, 4.500000000000000888, 11.68252473876531994 ) ) ;
#101 = VECTOR ( 'NONE', #630, 1000.000000000000227 ) ;
#102 = CARTESIAN_POINT ( 'NONE',  ( 66.61086481197914111, -1.500000000000000000, -25.33717312883726791 ) ) ;
#103 = DIRECTION ( 'NONE',  ( 0.000000000000000000, 1.000000000000000000, 0.000000000000000000 ) ) ;
#104 = ORIENTED_EDGE ( 'NONE', *, *, #413, .F. ) ;
#105 = VERTEX_POINT ( 'NONE', #603 ) ;
#106 = CARTESIAN_POINT ( 'NONE',  ( 86.27675516891488883, 4.500000000000000888, -5.723350154759994979 ) ) ;
#107 = AXIS2_PLACEMENT_3D ( 'NONE', #701, #962, #176 ) ;
#108 = DIRECTION ( 'NONE',  ( 0.000000000000000000, 0.000000000000000000, -1.000000000000000000 ) ) ;
#109 = EDGE_LOOP ( 'NONE', ( #734, #1081, #851, #617 ) ) ;
#110 = VECTOR ( 'NONE', #1055, 1000.000000000000227 ) ;
#111 = ORIENTED_EDGE ( 'NONE', *, *, #609, .F. ) ;
#112 = EDGE_CURVE ( 'NONE', #916, #137, #957, .T. ) ;
#113 = DIRECTION ( 'NONE',  ( -0.9248782281665499649, 0.000000000000000000, 0.3802634127332040759 ) ) ;
#114 = CIRCLE ( 'NONE', #990, 2.000000000000000000 ) ;
#115 = PLANE ( 'NONE',  #446 ) ;
#116 = EDGE_LOOP ( 'NONE', ( #277, #83, #351, #727 ) ) ;
#117 = CIRCLE ( 'NONE', #773, 1.999999999999998224 ) ;
#118 = DIRECTION ( 'NONE',  ( -1.000000000000000000, -0.000000000000000000, -0.000000000000000000 ) ) ;
#119 = ORIENTED_EDGE ( 'NONE', *, *, #960, .F. ) ;
#120 = ORIENTED_EDGE ( 'NONE', *, *, #458, .T. ) ;
#121 = AXIS2_PLACEMENT_3D ( 'NONE', #661, #482, #508 ) ;
#122 = CARTESIAN_POINT ( 'NONE',  ( 78.15345287162564603, 4.500000000000000888, -3.190217748655987950 ) ) ;
#123 = EDGE_CURVE ( 'NONE', #451, #916, #807, .T. ) ;
#124 = EDGE_LOOP ( 'NONE', ( #1087, #622, #556, #300 ) ) ;
#125 = VECTOR ( 'NONE', #524, 1000.000000000000000 ) ;
#126 = VERTEX_POINT ( 'NONE', #1046 ) ;
#127 = CARTESIAN_POINT ( 'NONE',  ( 32.52144845121329553, 4.500000000000000888, 1.774226416002888662 ) ) ;
#128 = DIRECTION ( 'NONE',  ( 0.7772490812545826966, 0.000000000000000000, 0.6291930273683166153 ) ) ;
#129 = DIRECTION ( 'NONE',  ( -0.000000000000000000, -1.000000000000000000, -0.000000000000000000 ) ) ;
#130 = EDGE_CURVE ( 'NONE', #810, #259, #1056, .T. ) ;
#131 = AXIS2_PLACEMENT_3D ( 'NONE', #729, #594, #58 ) ;
#132 = ORIENTED_EDGE ( 'NONE', *, *, #31, .F. ) ;
#133 = CARTESIAN_POINT ( 'NONE',  ( -24.60843420035152462, 4.500000000000000888, -6.317475261234680950 ) ) ;
#134 = ADVANCED_FACE ( 'NONE', ( #279 ), #886, .F. ) ;
#135 = ADVANCED_FACE ( 'NONE', ( #721 ), #796, .F. ) ;
#136 = DIRECTION ( 'NONE',  ( 0.6291930273683290498, 0.000000000000000000, -0.7772490812545727046 ) ) ;
#137 = VERTEX_POINT ( 'NONE', #975 ) ;
#138 = ORIENTED_EDGE ( 'NONE', *, *, #53, .F. ) ;
#139 = DIRECTION ( 'NONE',  ( -0.000000000000000000, -1.000000000000000000, -0.000000000000000000 ) ) ;
#140 = DIRECTION ( 'NONE',  ( 0.000000000000000000, 0.000000000000000000, 1.000000000000000000 ) ) ;
#141 = DIRECTION ( 'NONE',  ( 0.000000000000000000, 0.000000000000000000, 1.000000000000000000 ) ) ;
#142 = ORIENTED_EDGE ( 'NONE', *, *, #731, .F. ) ;
#143 = CIRCLE ( 'NONE', #785, 2.000000000000000888 ) ;
#144 = ORIENTED_EDGE ( 'NONE', *, *, #53, .T. ) ;
#145 = DIRECTION ( 'NONE',  ( -0.5610724890695777400, 0.000000000000000000, 0.8277666712360849388 ) ) ;
#146 = ADVANCED_FACE ( 'NONE', ( #92, #714, #268 ), #262, .T. ) ;
#147 = DIRECTION ( 'NONE',  ( -0.000000000000000000, -1.000000000000000000, -0.000000000000000000 ) ) ;
#148 = DIRECTION ( 'NONE',  ( -0.000000000000000000, -1.000000000000000000, -0.000000000000000000 ) ) ;
#149 = CIRCLE ( 'NONE', #1028, 2.000000000000000000 ) ;
#150 = ORIENTED_EDGE ( 'NONE', *, *, #306, .F. ) ;
#151 = DIRECTION ( 'NONE',  ( -0.7772490812545754801, 0.000000000000000000, -0.6291930273683253860 ) ) ;
#152 = CYLINDRICAL_SURFACE ( 'NONE', #309, 3.000000000000001332 ) ;
#153 = DIRECTION ( 'NONE',  ( -0.7772490812545771455, 0.000000000000000000, -0.6291930273683233876 ) ) ;
#154 = PLANE ( 'NONE',  #1122 ) ;
#155 = VECTOR ( 'NONE', #158, 1000.000000000000000 ) ;
#156 = ORIENTED_EDGE ( 'NONE', *, *, #330, .T. ) ;
#157 = LINE ( 'NONE', #488, #418 ) ;
#158 = DIRECTION ( 'NONE',  ( 0.6291930273682743158, 0.000000000000000000, -0.7772490812546168915 ) ) ;
#159 = FILL_AREA_STYLE ('',( #402 ) ) ;
#160 = EDGE_CURVE ( 'NONE', #803, #105, #344, .T. ) ;
#161 = VERTEX_POINT ( 'NONE', #801 ) ;
#162 = DIRECTION ( 'NONE',  ( -0.000000000000000000, -1.000000000000000000, -0.000000000000000000 ) ) ;
#163 = CIRCLE ( 'NONE', #1095, 2.000000000000001776 ) ;
#164 = DIRECTION ( 'NONE',  ( 0.000000000000000000, 1.000000000000000000, -0.000000000000000000 ) ) ;
#165 = CARTESIAN_POINT ( 'NONE',  ( 82.95755179256495637, -1.500000000000000000, -5.373937867588350237 ) ) ;
#166 = EDGE_CURVE ( 'NONE', #554, #551, #250, .T. ) ;
#167 = ORIENTED_EDGE ( 'NONE', *, *, #31, .T. ) ;
#168 = LINE ( 'NONE', #518, #348 ) ;
#169 = CIRCLE ( 'NONE', #937, 2.000000000000001776 ) ;
#170 = DIRECTION ( 'NONE',  ( -0.000000000000000000, -1.000000000000000000, -0.000000000000000000 ) ) ;
#171 = ADVANCED_FACE ( 'NONE', ( #442 ), #538, .F. ) ;
#172 = CARTESIAN_POINT ( 'NONE',  ( 33.43619114564841510, 4.500000000000000888, 1.038622967744955217 ) ) ;
#173 = ORIENTED_EDGE ( 'NONE', *, *, #862, .F. ) ;
#174 = PRESENTATION_STYLE_ASSIGNMENT (( #788 ) ) ;
#175 = LINE ( 'NONE', #713, #954 ) ;
#176 = DIRECTION ( 'NONE',  ( -0.6291930273682743158, 0.000000000000000000, 0.7772490812546168915 ) ) ;
#177 = ORIENTED_EDGE ( 'NONE', *, *, #448, .T. ) ;
#178 =( NAMED_UNIT ( * ) SI_UNIT ( $, .STERADIAN. ) SOLID_ANGLE_UNIT ( ) );
#179 = EDGE_LOOP ( 'NONE', ( #997, #902 ) ) ;
#180 = EDGE_CURVE ( 'NONE', #184, #33, #541, .T. ) ;
#181 = DIRECTION ( 'NONE',  ( 0.000000000000000000, 0.000000000000000000, -1.000000000000000000 ) ) ;
#182 = AXIS2_PLACEMENT_3D ( 'NONE', #951, #141, #579 ) ;
#183 = AXIS2_PLACEMENT_3D ( 'NONE', #654, #1006, #1025 ) ;
#184 = VERTEX_POINT ( 'NONE', #449 ) ;
#185 = CARTESIAN_POINT ( 'NONE',  ( 72.99994166351477531, 4.500000000000000888, -4.325701006073682464 ) ) ;
#186 = CARTESIAN_POINT ( 'NONE',  ( -24.60843420035152462, 4.500000000000000888, 13.68252473876531994 ) ) ;
#187 = EDGE_LOOP ( 'NONE', ( #761, #717, #662, #282 ) ) ;
#188 = DIRECTION ( 'NONE',  ( 0.6291930273683257191, 0.000000000000000000, -0.7772490812545752581 ) ) ;
#189 = FACE_OUTER_BOUND ( 'NONE', #12, .T. ) ;
#190 = CARTESIAN_POINT ( 'NONE',  ( 34.17698179368547073, 4.500000000000000888, 2.896371394142037925 ) ) ;
#191 = ORIENTED_EDGE ( 'NONE', *, *, #934, .T. ) ;
#192 = EDGE_CURVE ( 'NONE', #239, #1013, #299, .T. ) ;
#193 = CARTESIAN_POINT ( 'NONE',  ( 0.000000000000000000, 0.000000000000000000, 0.000000000000000000 ) ) ;
#194 = ORIENTED_EDGE ( 'NONE', *, *, #166, .F. ) ;
#195 = CARTESIAN_POINT ( 'NONE',  ( 19.39156579964847182, -1.500000000000000000, 6.682524738765320826 ) ) ;
#196 = AXIS2_PLACEMENT_3D ( 'NONE', #459, #563, #553 ) ;
#197 = ORIENTED_EDGE ( 'NONE', *, *, #728, .T. ) ;
#198 = AXIS2_PLACEMENT_3D ( 'NONE', #324, #147, #318 ) ;
#199 = LINE ( 'NONE', #1068, #101 ) ;
#200 = PRODUCT_DEFINITION_FORMATION_WITH_SPECIFIED_SOURCE ( 'HERHANGÝ', '', #572, .NOT_KNOWN. ) ;
#201 = DIRECTION ( 'NONE',  ( -0.000000000000000000, -1.000000000000000000, -0.000000000000000000 ) ) ;
#202 = ADVANCED_FACE ( 'NONE', ( #426 ), #786, .F. ) ;
#203 = VERTEX_POINT ( 'NONE', #9 ) ;
#204 = DIRECTION ( 'NONE',  ( 1.000000000000000000, 0.000000000000000000, 0.000000000000000000 ) ) ;
#205 = EDGE_LOOP ( 'NONE', ( #782, #42, #477, #694 ) ) ;
#206 = CARTESIAN_POINT ( 'NONE',  ( -24.60843420035152462, 4.500000000000000888, 13.68252473876531994 ) ) ;
#207 = ADVANCED_FACE ( 'NONE', ( #520 ), #877, .F. ) ;
#208 = LINE ( 'NONE', #549, #341 ) ;
#209 = ORIENTED_EDGE ( 'NONE', *, *, #448, .F. ) ;
#210 = VERTEX_POINT ( 'NONE', #966 ) ;
#211 = DIRECTION ( 'NONE',  ( -1.000000000000000000, 0.000000000000000000, -0.000000000000000000 ) ) ;
#212 = CIRCLE ( 'NONE', #121, 3.000000000000001332 ) ;
#213 = EDGE_CURVE ( 'NONE', #210, #416, #544, .T. ) ;
#214 = CARTESIAN_POINT ( 'NONE',  ( 14.69646193575844428, -1.500000000000000000, -8.317475261234681838 ) ) ;
#215 = CARTESIAN_POINT ( 'NONE',  ( 66.61086481197914111, 4.500000000000000888, -27.33717312883727146 ) ) ;
#216 = ORIENTED_EDGE ( 'NONE', *, *, #112, .F. ) ;
#217 = DIRECTION ( 'NONE',  ( 0.000000000000000000, 1.000000000000000000, -0.000000000000000000 ) ) ;
#218 = FACE_OUTER_BOUND ( 'NONE', #187, .T. ) ;
#219 = ORIENTED_EDGE ( 'NONE', *, *, #240, .F. ) ;
#220 = CIRCLE ( 'NONE', #513, 3.000000000000000444 ) ;
#221 = ORIENTED_EDGE ( 'NONE', *, *, #403, .F. ) ;
#222 = FACE_BOUND ( 'NONE', #793, .T. ) ;
#223 = VECTOR ( 'NONE', #766, 1000.000000000000000 ) ;
#224 = CARTESIAN_POINT ( 'NONE',  ( 84.79185962432579515, -1.500000000000000000, -3.889042322999129997 ) ) ;
#225 = DIRECTION ( 'NONE',  ( 0.000000000000000000, 0.000000000000000000, -1.000000000000000000 ) ) ;
#226 = VERTEX_POINT ( 'NONE', #900 ) ;
#227 = EDGE_CURVE ( 'NONE', #943, #916, #208, .T. ) ;
#228 = ORIENTED_EDGE ( 'NONE', *, *, #323, .T. ) ;
#229 = CARTESIAN_POINT ( 'NONE',  ( 14.69646193575844428, 4.500000000000000888, -8.317475261234681838 ) ) ;
#230 = CYLINDRICAL_SURFACE ( 'NONE', #198, 3.000000000000000444 ) ;
#231 = CARTESIAN_POINT ( 'NONE',  ( 74.83424949527558567, 4.500000000000000888, -2.840805461484436023 ) ) ;
#232 = DIRECTION ( 'NONE',  ( -0.6291930273683257191, 0.000000000000000000, 0.7772490812545752581 ) ) ;
#233 = EDGE_LOOP ( 'NONE', ( #27, #565, #792, #98 ) ) ;
#234 = CARTESIAN_POINT ( 'NONE',  ( 78.22530117954131867, 4.500000000000000888, -20.04661744126519096 ) ) ;
#235 = FACE_OUTER_BOUND ( 'NONE', #397, .T. ) ;
#236 = DIRECTION ( 'NONE',  ( 0.000000000000000000, 1.000000000000000000, 0.000000000000000000 ) ) ;
#237 = CARTESIAN_POINT ( 'NONE',  ( 71.51504611892563901, -1.500000000000000000, -2.491393174312790837 ) ) ;
#238 = AXIS2_PLACEMENT_3D ( 'NONE', #964, #775, #428 ) ;
#239 = VERTEX_POINT ( 'NONE', #659 ) ;
#240 = EDGE_CURVE ( 'NONE', #289, #928, #383, .T. ) ;
#241 = CARTESIAN_POINT ( 'NONE',  ( 57.25067223262521310, -1.500000000000000000, -8.457573948057021340 ) ) ;
#242 = PLANE ( 'NONE',  #182 ) ;
#243 = SURFACE_STYLE_USAGE ( .BOTH. , #60 ) ;
#244 = ORIENTED_EDGE ( 'NONE', *, *, #841, .F. ) ;
#245 =( NAMED_UNIT ( * ) PLANE_ANGLE_UNIT ( ) SI_UNIT ( $, .RADIAN. ) );
#246 = DIRECTION ( 'NONE',  ( -0.000000000000000000, -1.000000000000000000, -0.000000000000000000 ) ) ;
#247 = EDGE_CURVE ( 'NONE', #895, #768, #930, .T. ) ;
#248 = LINE ( 'NONE', #1115, #1053 ) ;
#249 = ORIENTED_EDGE ( 'NONE', *, *, #240, .T. ) ;
#250 = CIRCLE ( 'NONE', #636, 3.000000000000001332 ) ;
#251 = ADVANCED_FACE ( 'NONE', ( #739 ), #115, .F. ) ;
#252 = CARTESIAN_POINT ( 'NONE',  ( 81.47265624797572059, 4.500000000000000888, -3.539630035827554089 ) ) ;
#253 = VECTOR ( 'NONE', #170, 1000.000000000000000 ) ;
#254 = DIRECTION ( 'NONE',  ( 0.7772490812545874705, 0.000000000000000000, 0.6291930273683107311 ) ) ;
#255 = ORIENTED_EDGE ( 'NONE', *, *, #496, .T. ) ;
#256 = SURFACE_STYLE_FILL_AREA ( #1118 ) ;
#257 = STYLED_ITEM ( 'NONE', ( #174 ), #880 ) ;
#258 = DIRECTION ( 'NONE',  ( -0.7772490812545750360, 0.000000000000000000, -0.6291930273683260522 ) ) ;
#259 = VERTEX_POINT ( 'NONE', #38 ) ;
#260 = EDGE_CURVE ( 'NONE', #768, #857, #455, .T. ) ;
#261 = DIRECTION ( 'NONE',  ( -0.000000000000000000, -1.000000000000000000, -0.000000000000000000 ) ) ;
#262 = PLANE ( 'NONE',  #920 ) ;
#263 = EDGE_LOOP ( 'NONE', ( #194, #890 ) ) ;
#264 = VECTOR ( 'NONE', #148, 1000.000000000000000 ) ;
#265 = ORIENTED_EDGE ( 'NONE', *, *, #399, .T. ) ;
#266 = LINE ( 'NONE', #185, #506 ) ;
#267 = VECTOR ( 'NONE', #666, 1000.000000000000000 ) ;
#268 = FACE_BOUND ( 'NONE', #460, .T. ) ;
#269 = ORIENTED_EDGE ( 'NONE', *, *, #362, .F. ) ;
#270 = VERTEX_POINT ( 'NONE', #995 ) ;
#271 = LINE ( 'NONE', #709, #57 ) ;
#272 = EDGE_CURVE ( 'NONE', #809, #226, #641, .T. ) ;
#273 = AXIS2_PLACEMENT_3D ( 'NONE', #746, #1096, #1075 ) ;
#274 = CARTESIAN_POINT ( 'NONE',  ( 69.68073828716488549, -1.500000000000000000, -3.976288718902026176 ) ) ;
#275 = VERTEX_POINT ( 'NONE', #122 ) ;
#276 = VECTOR ( 'NONE', #586, 1000.000000000000000 ) ;
#277 = ORIENTED_EDGE ( 'NONE', *, *, #123, .T. ) ;
#278 = LINE ( 'NONE', #983, #767 ) ;
#279 = FACE_OUTER_BOUND ( 'NONE', #846, .T. ) ;
#280 = ORIENTED_EDGE ( 'NONE', *, *, #948, .T. ) ;
#281 = PRODUCT_CONTEXT ( 'NONE', #794, 'mechanical' ) ;
#282 = ORIENTED_EDGE ( 'NONE', *, *, #272, .F. ) ;
#283 = ADVANCED_FACE ( 'NONE', ( #999 ), #463, .F. ) ;
#284 = VECTOR ( 'NONE', #1071, 1000.000000000000000 ) ;
#285 = LINE ( 'NONE', #639, #626 ) ;
#286 = ORIENTED_EDGE ( 'NONE', *, *, #97, .F. ) ;
#287 = CIRCLE ( 'NONE', #604, 3.000000000000000444 ) ;
#288 = DIRECTION ( 'NONE',  ( 0.7772490812545796990, 0.000000000000000000, 0.6291930273683203900 ) ) ;
#289 = VERTEX_POINT ( 'NONE', #1085 ) ;
#290 = EDGE_LOOP ( 'NONE', ( #265, #23, #142, #883 ) ) ;
#291 = CARTESIAN_POINT ( 'NONE',  ( 19.39156579964847182, 4.500000000000000888, 3.682524738765319494 ) ) ;
#292 = EDGE_CURVE ( 'NONE', #391, #1078, #836, .T. ) ;
#293 = AXIS2_PLACEMENT_3D ( 'NONE', #799, #453, #823 ) ;
#294 = LINE ( 'NONE', #648, #3 ) ;
#295 = ORIENTED_EDGE ( 'NONE', *, *, #484, .F. ) ;
#296 = ORIENTED_EDGE ( 'NONE', *, *, #410, .F. ) ;
#297 = CARTESIAN_POINT ( 'NONE',  ( 57.99146288066229005, -1.500000000000000000, -6.599825521659944627 ) ) ;
#298 = CARTESIAN_POINT ( 'NONE',  ( 67.43993364825611536, 4.500000000000000888, -27.15724039812002033 ) ) ;
#299 = CIRCLE ( 'NONE', #54, 3.000000000000000444 ) ;
#300 = ORIENTED_EDGE ( 'NONE', *, *, #11, .T. ) ;
#301 = ORIENTED_EDGE ( 'NONE', *, *, #820, .T. ) ;
#302 = DIRECTION ( 'NONE',  ( 0.000000000000000000, 0.000000000000000000, -1.000000000000000000 ) ) ;
#303 = VECTOR ( 'NONE', #613, 1000.000000000000227 ) ;
#304 = CARTESIAN_POINT ( 'NONE',  ( -24.60843420035152462, -1.500000000000000000, 13.68252473876531994 ) ) ;
#305 = PRESENTATION_LAYER_ASSIGNMENT (  '', '', ( #257 ) ) ;
#306 = EDGE_CURVE ( 'NONE', #275, #803, #294, .T. ) ;
#307 = DIRECTION ( 'NONE',  ( 0.000000000000000000, 1.000000000000000000, 0.000000000000000000 ) ) ;
#308 = ORIENTED_EDGE ( 'NONE', *, *, #335, .F. ) ;
#309 = AXIS2_PLACEMENT_3D ( 'NONE', #944, #162, #407 ) ;
#310 = ORIENTED_EDGE ( 'NONE', *, *, #130, .T. ) ;
#311 = DIRECTION ( 'NONE',  ( 0.5610724890695777400, 0.000000000000000000, -0.8277666712360848278 ) ) ;
#312 = CARTESIAN_POINT ( 'NONE',  ( 84.79185962432579515, -1.500000000000000000, -3.889042322999129997 ) ) ;
#313 = CARTESIAN_POINT ( 'NONE',  ( 78.15345287162564603, 4.500000000000000888, -3.190217748655987950 ) ) ;
#314 = CARTESIAN_POINT ( 'NONE',  ( 33.43619114564841510, 4.500000000000000888, 1.038622967744955217 ) ) ;
#315 = ORIENTED_EDGE ( 'NONE', *, *, #619, .F. ) ;
#316 = DIRECTION ( 'NONE',  ( 0.000000000000000000, 0.000000000000000000, 1.000000000000000000 ) ) ;
#317 = EDGE_CURVE ( 'NONE', #270, #1047, #143, .T. ) ;
#318 = DIRECTION ( 'NONE',  ( 0.000000000000000000, 0.000000000000000000, -1.000000000000000000 ) ) ;
#319 = CARTESIAN_POINT ( 'NONE',  ( -24.60843420035152462, 4.500000000000000888, 0.6825247387653191611 ) ) ;
#320 = CARTESIAN_POINT ( 'NONE',  ( 33.43619114564841510, -1.500000000000000000, 1.038622967744955217 ) ) ;
#321 = EDGE_LOOP ( 'NONE', ( #703, #1076, #905, #599 ) ) ;
#322 = AXIS2_PLACEMENT_3D ( 'NONE', #631, #113, #454 ) ;
#323 = EDGE_CURVE ( 'NONE', #803, #374, #1004, .T. ) ;
#324 = CARTESIAN_POINT ( 'NONE',  ( -24.60843420035152462, 4.500000000000000888, 3.682524738765319494 ) ) ;
#325 = DIRECTION ( 'NONE',  ( 0.6291930273683260522, 0.000000000000000000, -0.7772490812545749250 ) ) ;
#326 = LINE ( 'NONE', #855, #82 ) ;
#327 = VECTOR ( 'NONE', #736, 1000.000000000000114 ) ;
#328 = ORIENTED_EDGE ( 'NONE', *, *, #642, .T. ) ;
#329 = CARTESIAN_POINT ( 'NONE',  ( 14.69646193575843718, -1.500000000000000000, -6.317475261234680950 ) ) ;
#330 = EDGE_CURVE ( 'NONE', #747, #723, #220, .T. ) ;
#331 = CARTESIAN_POINT ( 'NONE',  ( 67.43993364825611536, 4.500000000000000888, -27.15724039812001678 ) ) ;
#332 = CIRCLE ( 'NONE', #722, 2.000000000000001776 ) ;
#333 = CARTESIAN_POINT ( 'NONE',  ( 23.38931754395153106, -1.500000000000000000, 11.68252473876531994 ) ) ;
#334 = LINE ( 'NONE', #680, #223 ) ;
#335 = EDGE_CURVE ( 'NONE', #551, #650, #831, .T. ) ;
#336 = ORIENTED_EDGE ( 'NONE', *, *, #86, .F. ) ;
#337 = CARTESIAN_POINT ( 'NONE',  ( 33.43619114564841510, 4.500000000000000888, 1.038622967744955217 ) ) ;
#338 = FACE_OUTER_BOUND ( 'NONE', #124, .T. ) ;
#339 =( LENGTH_UNIT ( ) NAMED_UNIT ( * ) SI_UNIT ( .MILLI., .METRE. ) );
#340 = ORIENTED_EDGE ( 'NONE', *, *, #410, .T. ) ;
#341 = VECTOR ( 'NONE', #819, 1000.000000000000000 ) ;
#342 = DIRECTION ( 'NONE',  ( 0.3788101488760216018, 0.000000000000000000, -0.9254744032703046130 ) ) ;
#343 = CIRCLE ( 'NONE', #487, 2.000000000000001776 ) ;
#344 = LINE ( 'NONE', #430, #284 ) ;
#345 = ADVANCED_FACE ( 'NONE', ( #218 ), #388, .T. ) ;
#346 = ORIENTED_EDGE ( 'NONE', *, *, #130, .F. ) ;
#347 = LINE ( 'NONE', #689, #882 ) ;
#348 = VECTOR ( 'NONE', #676, 1000.000000000000000 ) ;
#349 = CARTESIAN_POINT ( 'NONE',  ( 19.39156579964847182, -1.500000000000000000, 3.682524738765319494 ) ) ;
#350 = DIRECTION ( 'NONE',  ( -0.000000000000000000, -1.000000000000000000, -0.000000000000000000 ) ) ;
#351 = ORIENTED_EDGE ( 'NONE', *, *, #856, .F. ) ;
#352 = VERTEX_POINT ( 'NONE', #304 ) ;
#353 = DIRECTION ( 'NONE',  ( 0.000000000000000000, 0.000000000000000000, -1.000000000000000000 ) ) ;
#354 = ORIENTED_EDGE ( 'NONE', *, *, #691, .F. ) ;
#355 = EDGE_CURVE ( 'NONE', #747, #239, #285, .T. ) ;
#356 = CARTESIAN_POINT ( 'NONE',  ( -24.60843420035152462, 4.500000000000000888, -6.317475261234680950 ) ) ;
#357 = DIRECTION ( 'NONE',  ( -0.6291930273682727615, 0.000000000000000000, 0.7772490812546181127 ) ) ;
#358 = VERTEX_POINT ( 'NONE', #373 ) ;
#359 = ORIENTED_EDGE ( 'NONE', *, *, #979, .F. ) ;
#360 = LINE ( 'NONE', #718, #590 ) ;
#361 = AXIS2_PLACEMENT_3D ( 'NONE', #835, #651, #1112 ) ;
#362 = EDGE_CURVE ( 'NONE', #928, #810, #28, .T. ) ;
#363 = LINE ( 'NONE', #719, #824 ) ;
#364 = AXIS2_PLACEMENT_3D ( 'NONE', #479, #246, #1023 ) ;
#365 = DIRECTION ( 'NONE',  ( 0.000000000000000000, 0.000000000000000000, -1.000000000000000000 ) ) ;
#366 = EDGE_CURVE ( 'NONE', #105, #707, #925, .T. ) ;
#367 = EDGE_LOOP ( 'NONE', ( #177, #465, #476, #996 ) ) ;
#368 = MECHANICAL_DESIGN_GEOMETRIC_PRESENTATION_REPRESENTATION (  '', ( #1033 ), #683 ) ;
#369 = DIRECTION ( 'NONE',  ( -0.000000000000000000, -1.000000000000000000, -0.000000000000000000 ) ) ;
#370 = DIRECTION ( 'NONE',  ( 0.000000000000000000, 0.000000000000000000, 1.000000000000000000 ) ) ;
#371 = VERTEX_POINT ( 'NONE', #241 ) ;
#372 = ORIENTED_EDGE ( 'NONE', *, *, #317, .F. ) ;
#373 = CARTESIAN_POINT ( 'NONE',  ( 66.61086481197914111, -1.500000000000000000, -27.33717312883727146 ) ) ;
#374 = VERTEX_POINT ( 'NONE', #73 ) ;
#375 = ADVANCED_FACE ( 'NONE', ( #1030 ), #412, .T. ) ;
#376 = ORIENTED_EDGE ( 'NONE', *, *, #888, .T. ) ;
#377 = CARTESIAN_POINT ( 'NONE',  ( 74.83424949527558567, 4.500000000000000888, -2.840805461484436023 ) ) ;
#378 = CIRCLE ( 'NONE', #1098, 2.000000000000000888 ) ;
#379 = CARTESIAN_POINT ( 'NONE',  ( 69.68073828716488549, 4.500000000000000888, -3.976288718902026176 ) ) ;
#380 = EDGE_LOOP ( 'NONE', ( #156, #715, #991, #550 ) ) ;
#381 = ORIENTED_EDGE ( 'NONE', *, *, #458, .F. ) ;
#382 = FACE_OUTER_BOUND ( 'NONE', #802, .T. ) ;
#383 = LINE ( 'NONE', #919, #745 ) ;
#384 = EDGE_LOOP ( 'NONE', ( #649, #732, #897, #404, #878, #628, #99, #1051, #828, #456, #40, #228, #873, #35, #906, #575, #1067, #328, #144, #869, #1082, #1064, #249, #629, #310, #301, #546 ) ) ;
#385 = ORIENTED_EDGE ( 'NONE', *, *, #534, .F. ) ;
#386 = DIRECTION ( 'NONE',  ( 1.000000000000000000, 0.000000000000000000, 0.000000000000000000 ) ) ;
#387 = ADVANCED_FACE ( 'NONE', ( #338 ), #1126, .F. ) ;
#388 = CYLINDRICAL_SURFACE ( 'NONE', #273, 2.000000000000001776 ) ;
#389 = AXIS2_PLACEMENT_3D ( 'NONE', #190, #893, #108 ) ;
#390 = ORIENTED_EDGE ( 'NONE', *, *, #862, .T. ) ;
#391 = VERTEX_POINT ( 'NONE', #589 ) ;
#392 = FACE_OUTER_BOUND ( 'NONE', #452, .T. ) ;
#393 = VECTOR ( 'NONE', #677, 1000.000000000000000 ) ;
#394 = CYLINDRICAL_SURFACE ( 'NONE', #1044, 2.000000000000001776 ) ;
#395 = VECTOR ( 'NONE', #139, 1000.000000000000000 ) ;
#396 = LINE ( 'NONE', #231, #267 ) ;
#397 = EDGE_LOOP ( 'NONE', ( #308, #197, #439, #381 ) ) ;
#398 = DIRECTION ( 'NONE',  ( 0.000000000000000000, 0.000000000000000000, -1.000000000000000000 ) ) ;
#399 = EDGE_CURVE ( 'NONE', #457, #89, #770, .T. ) ;
#400 = FACE_OUTER_BOUND ( 'NONE', #427, .T. ) ;
#401 = LINE ( 'NONE', #65, #406 ) ;
#402 = FILL_AREA_STYLE_COLOUR ( '', #44 ) ;
#403 = EDGE_CURVE ( 'NONE', #374, #707, #157, .T. ) ;
#404 = ORIENTED_EDGE ( 'NONE', *, *, #247, .T. ) ;
#405 = DIRECTION ( 'NONE',  ( 0.000000000000000000, 0.000000000000000000, 1.000000000000000000 ) ) ;
#406 = VECTOR ( 'NONE', #754, 1000.000000000000000 ) ;
#407 = DIRECTION ( 'NONE',  ( 0.000000000000000000, 0.000000000000000000, -1.000000000000000000 ) ) ;
#408 = LINE ( 'NONE', #679, #555 ) ;
#409 = DIRECTION ( 'NONE',  ( 0.000000000000000000, 0.000000000000000000, -1.000000000000000000 ) ) ;
#410 = EDGE_CURVE ( 'NONE', #1012, #522, #858, .T. ) ;
#411 = ORIENTED_EDGE ( 'NONE', *, *, #738, .F. ) ;
#412 = CYLINDRICAL_SURFACE ( 'NONE', #364, 2.000000000000001776 ) ;
#413 = EDGE_CURVE ( 'NONE', #809, #540, #1107, .T. ) ;
#414 = DIRECTION ( 'NONE',  ( -0.000000000000000000, -1.000000000000000000, -0.000000000000000000 ) ) ;
#415 = DIRECTION ( 'NONE',  ( 0.6291930273683254971, 0.000000000000000000, -0.7772490812545754801 ) ) ;
#416 = VERTEX_POINT ( 'NONE', #950 ) ;
#417 = FACE_OUTER_BOUND ( 'NONE', #109, .T. ) ;
#418 = VECTOR ( 'NONE', #1035, 1000.000000000000000 ) ;
#419 = CARTESIAN_POINT ( 'NONE',  ( 69.68073828716488549, -1.500000000000000000, -3.976288718902026176 ) ) ;
#420 = VECTOR ( 'NONE', #26, 1000.000000000000000 ) ;
#421 = LINE ( 'NONE', #859, #495 ) ;
#422 = ORIENTED_EDGE ( 'NONE', *, *, #570, .T. ) ;
#423 =( LENGTH_UNIT ( ) NAMED_UNIT ( * ) SI_UNIT ( .MILLI., .METRE. ) );
#424 = EDGE_CURVE ( 'NONE', #815, #774, #117, .T. ) ;
#425 = DIRECTION ( 'NONE',  ( 0.000000000000000000, 0.000000000000000000, -1.000000000000000000 ) ) ;
#426 = FACE_OUTER_BOUND ( 'NONE', #567, .T. ) ;
#427 = EDGE_LOOP ( 'NONE', ( #787, #1008, #483, #977 ) ) ;
#428 = DIRECTION ( 'NONE',  ( -0.7772490812545873595, 0.000000000000000000, -0.6291930273683107311 ) ) ;
#429 = CARTESIAN_POINT ( 'NONE',  ( 19.39156579964847182, 4.500000000000000888, 6.682524738765320826 ) ) ;
#430 = CARTESIAN_POINT ( 'NONE',  ( 79.63834841621489602, 4.500000000000000888, -5.024525580416786319 ) ) ;
#431 = ORIENTED_EDGE ( 'NONE', *, *, #20, .F. ) ;
#432 = CIRCLE ( 'NONE', #1080, 1.999999999999998224 ) ;
#433 = ORIENTED_EDGE ( 'NONE', *, *, #536, .T. ) ;
#434 = CARTESIAN_POINT ( 'NONE',  ( 80.07505763587442971, 4.500000000000000888, -20.80714426673159068 ) ) ;
#435 = CARTESIAN_POINT ( 'NONE',  ( 57.99146288066229005, 4.500000000000000888, -6.599825521659944627 ) ) ;
#436 = ORIENTED_EDGE ( 'NONE', *, *, #532, .T. ) ;
#437 = ADVANCED_FACE ( 'NONE', ( #235 ), #152, .F. ) ;
#438 = AXIS2_PLACEMENT_3D ( 'NONE', #291, #440, #24 ) ;
#439 = ORIENTED_EDGE ( 'NONE', *, *, #777, .T. ) ;
#440 = DIRECTION ( 'NONE',  ( -0.000000000000000000, -1.000000000000000000, -0.000000000000000000 ) ) ;
#441 = PLANE ( 'NONE',  #322 ) ;
#442 = FACE_OUTER_BOUND ( 'NONE', #290, .T. ) ;
#443 = ORIENTED_EDGE ( 'NONE', *, *, #598, .F. ) ;
#444 = EDGE_CURVE ( 'NONE', #289, #1047, #501, .T. ) ;
#445 = ORIENTED_EDGE ( 'NONE', *, *, #424, .F. ) ;
#446 = AXIS2_PLACEMENT_3D ( 'NONE', #1089, #34, #733 ) ;
#447 = LINE ( 'NONE', #627, #450 ) ;
#448 = EDGE_CURVE ( 'NONE', #633, #203, #866, .T. ) ;
#449 = CARTESIAN_POINT ( 'NONE',  ( 32.52144845121329553, 4.500000000000000888, 1.774226416002888662 ) ) ;
#450 = VECTOR ( 'NONE', #25, 1000.000000000000000 ) ;
#451 = VERTEX_POINT ( 'NONE', #419 ) ;
#452 = EDGE_LOOP ( 'NONE', ( #610, #1020, #346, #436 ) ) ;
#453 = DIRECTION ( 'NONE',  ( -0.000000000000000000, -1.000000000000000000, -0.000000000000000000 ) ) ;
#454 = DIRECTION ( 'NONE',  ( 0.3802634127332040759, 0.000000000000000000, 0.9248782281665499649 ) ) ;
#455 = LINE ( 'NONE', #813, #840 ) ;
#456 = ORIENTED_EDGE ( 'NONE', *, *, #1125, .T. ) ;
#457 = VERTEX_POINT ( 'NONE', #224 ) ;
#458 = EDGE_CURVE ( 'NONE', #650, #29, #78, .T. ) ;
#459 = CARTESIAN_POINT ( 'NONE',  ( 57.99146288066229005, 4.500000000000000888, -6.599825521659944627 ) ) ;
#460 = EDGE_LOOP ( 'NONE', ( #422, #120 ) ) ;
#461 = ORIENTED_EDGE ( 'NONE', *, *, #86, .T. ) ;
#462 = CYLINDRICAL_SURFACE ( 'NONE', #293, 2.000000000000001776 ) ;
#463 = PLANE ( 'NONE',  #894 ) ;
#464 = VECTOR ( 'NONE', #899, 1000.000000000000000 ) ;
#465 = ORIENTED_EDGE ( 'NONE', *, *, #753, .F. ) ;
#466 = EDGE_LOOP ( 'NONE', ( #743, #296, #947, #93 ) ) ;
#467 = FACE_OUTER_BOUND ( 'NONE', #62, .T. ) ;
#468 = AXIS2_PLACEMENT_3D ( 'NONE', #234, #929, #557 ) ;
#469 = PRODUCT_DEFINITION_CONTEXT ( 'detailed design', #700, 'design' ) ;
#470 = DIRECTION ( 'NONE',  ( 0.000000000000000000, 1.000000000000000000, 0.000000000000000000 ) ) ;
#471 = FACE_OUTER_BOUND ( 'NONE', #485, .T. ) ;
#472 = ADVANCED_FACE ( 'NONE', ( #400 ), #394, .F. ) ;
#473 = ORIENTED_EDGE ( 'NONE', *, *, #1029, .T. ) ;
#474 = DIRECTION ( 'NONE',  ( -0.000000000000000000, -1.000000000000000000, 0.000000000000000000 ) ) ;
#475 = DIRECTION ( 'NONE',  ( 0.000000000000000000, 0.000000000000000000, 1.000000000000000000 ) ) ;
#476 = ORIENTED_EDGE ( 'NONE', *, *, #1125, .F. ) ;
#477 = ORIENTED_EDGE ( 'NONE', *, *, #355, .T. ) ;
#478 = PLANE ( 'NONE',  #1007 ) ;
#479 = CARTESIAN_POINT ( 'NONE',  ( 23.38931754395153106, 4.500000000000000888, 11.68252473876531994 ) ) ;
#480 = VECTOR ( 'NONE', #989, 1000.000000000000000 ) ;
#481 = ADVANCED_FACE ( 'NONE', ( #584 ), #230, .F. ) ;
#482 = DIRECTION ( 'NONE',  ( 0.000000000000000000, 1.000000000000000000, 0.000000000000000000 ) ) ;
#483 = ORIENTED_EDGE ( 'NONE', *, *, #908, .F. ) ;
#484 = EDGE_CURVE ( 'NONE', #576, #815, #939, .T. ) ;
#485 = EDGE_LOOP ( 'NONE', ( #21, #688, #104, #48 ) ) ;
#486 = DIRECTION ( 'NONE',  ( -0.8277666712360849388, 0.000000000000000000, -0.5610724890695777400 ) ) ;
#487 = AXIS2_PLACEMENT_3D ( 'NONE', #18, #1045, #353 ) ;
#488 = CARTESIAN_POINT ( 'NONE',  ( 81.47265624797572059, 4.500000000000000888, -3.539630035827554089 ) ) ;
#489 = AXIS2_PLACEMENT_3D ( 'NONE', #84, #704, #588 ) ;
#490 = DIRECTION ( 'NONE',  ( -0.000000000000000000, -1.000000000000000000, -0.000000000000000000 ) ) ;
#491 = CARTESIAN_POINT ( 'NONE',  ( 67.43993364825611536, -1.500000000000000000, -27.15724039812001678 ) ) ;
#492 = ORIENTED_EDGE ( 'NONE', *, *, #888, .F. ) ;
#493 = CARTESIAN_POINT ( 'NONE',  ( -24.60843420035152462, -1.500000000000000000, 3.682524738765319494 ) ) ;
#494 = CARTESIAN_POINT ( 'NONE',  ( 76.31914503986483567, -1.500000000000000000, -4.675113293245234836 ) ) ;
#495 = VECTOR ( 'NONE', #414, 1000.000000000000000 ) ;
#496 = EDGE_CURVE ( 'NONE', #815, #126, #1114, .T. ) ;
#497 = LINE ( 'NONE', #1103, #710 ) ;
#498 = SURFACE_STYLE_FILL_AREA ( #159 ) ;
#499 = ORIENTED_EDGE ( 'NONE', *, *, #292, .T. ) ;
#500 =( LENGTH_UNIT ( ) NAMED_UNIT ( * ) SI_UNIT ( .MILLI., .METRE. ) );
#501 = LINE ( 'NONE', #507, #564 ) ;
#502 = PLANE ( 'NONE',  #618 ) ;
#503 = CARTESIAN_POINT ( 'NONE',  ( 66.61086481197914111, 4.500000000000000888, -25.33717312883726791 ) ) ;
#504 = EDGE_LOOP ( 'NONE', ( #656, #10, #219, #741 ) ) ;
#505 = PLANE ( 'NONE',  #489 ) ;
#506 = VECTOR ( 'NONE', #961, 1000.000000000000000 ) ;
#507 = CARTESIAN_POINT ( 'NONE',  ( 14.69646193575843718, 4.500000000000000888, -6.317475261234680950 ) ) ;
#508 = DIRECTION ( 'NONE',  ( 0.000000000000000000, 0.000000000000000000, 1.000000000000000000 ) ) ;
#509 = VECTOR ( 'NONE', #511, 1000.000000000000000 ) ;
#510 = EDGE_LOOP ( 'NONE', ( #959, #887, #798, #711, #953, #52, #372, #1097, #385, #492, #431, #927, #1058, #834, #286, #972, #817, #644, #209, #986, #132, #216, #726, #336, #1111, #111, #963 ) ) ;
#511 = DIRECTION ( 'NONE',  ( -0.000000000000000000, -1.000000000000000000, -0.000000000000000000 ) ) ;
#512 = EDGE_CURVE ( 'NONE', #768, #749, #175, .T. ) ;
#513 = AXIS2_PLACEMENT_3D ( 'NONE', #725, #470, #475 ) ;
#514 = DIRECTION ( 'NONE',  ( 0.000000000000000000, 0.000000000000000000, -1.000000000000000000 ) ) ;
#515 = AXIS2_PLACEMENT_3D ( 'NONE', #632, #621, #15 ) ;
#516 = DIRECTION ( 'NONE',  ( 0.000000000000000000, 1.000000000000000000, 0.000000000000000000 ) ) ;
#517 = ORIENTED_EDGE ( 'NONE', *, *, #496, .F. ) ;
#518 = CARTESIAN_POINT ( 'NONE',  ( 80.07505763587442971, -1.500000000000000000, -20.80714426673159068 ) ) ;
#519 = CARTESIAN_POINT ( 'NONE',  ( 57.99146288066229005, -1.500000000000000000, -6.599825521659944627 ) ) ;
#520 = FACE_OUTER_BOUND ( 'NONE', #380, .T. ) ;
#521 = ADVANCED_FACE ( 'NONE', ( #189 ), #537, .F. ) ;
#522 = VERTEX_POINT ( 'NONE', #620 ) ;
#523 = CARTESIAN_POINT ( 'NONE',  ( 25.04485088642370627, -1.500000000000000000, 12.80466971690446698 ) ) ;
#524 = DIRECTION ( 'NONE',  ( -0.000000000000000000, -1.000000000000000000, -0.000000000000000000 ) ) ;
#525 = EDGE_CURVE ( 'NONE', #259, #663, #14, .T. ) ;
#526 = ORIENTED_EDGE ( 'NONE', *, *, #647, .F. ) ;
#527 = MECHANICAL_DESIGN_GEOMETRIC_PRESENTATION_REPRESENTATION (  '', ( #257 ), #61 ) ;
#528 = FACE_OUTER_BOUND ( 'NONE', #616, .T. ) ;
#529 = FACE_OUTER_BOUND ( 'NONE', #1072, .T. ) ;
#530 = CARTESIAN_POINT ( 'NONE',  ( 19.39156579964847182, 4.500000000000000888, 3.682524738765319494 ) ) ;
#531 = VECTOR ( 'NONE', #254, 1000.000000000000114 ) ;
#532 = EDGE_CURVE ( 'NONE', #810, #352, #447, .T. ) ;
#533 = EDGE_LOOP ( 'NONE', ( #1073, #1043, #150, #1099 ) ) ;
#534 = EDGE_CURVE ( 'NONE', #358, #226, #163, .T. ) ;
#535 = DIRECTION ( 'NONE',  ( 0.000000000000000000, 1.000000000000000000, 0.000000000000000000 ) ) ;
#536 = EDGE_CURVE ( 'NONE', #928, #1057, #690, .T. ) ;
#537 = PLANE ( 'NONE',  #845 ) ;
#538 = PLANE ( 'NONE',  #596 ) ;
#539 = ORIENTED_EDGE ( 'NONE', *, *, #112, .T. ) ;
#540 = VERTEX_POINT ( 'NONE', #1040 ) ;
#541 = CIRCLE ( 'NONE', #389, 2.000000000000001776 ) ;
#542 = CARTESIAN_POINT ( 'NONE',  ( 80.07505763587442971, 4.500000000000000888, -20.80714426673159068 ) ) ;
#543 = LINE ( 'NONE', #812, #464 ) ;
#544 = LINE ( 'NONE', #904, #692 ) ;
#545 = CIRCLE ( 'NONE', #1003, 3.000000000000001332 ) ;
#546 = ORIENTED_EDGE ( 'NONE', *, *, #1005, .T. ) ;
#547 = DIRECTION ( 'NONE',  ( -0.000000000000000000, -1.000000000000000000, -0.000000000000000000 ) ) ;
#548 = COLOUR_RGB ( '',0.7803921568627451011, 0.7607843137254901578, 0.7411764705882353255 ) ;
#549 = CARTESIAN_POINT ( 'NONE',  ( 71.51504611892563901, 4.500000000000000888, -2.491393174312790837 ) ) ;
#550 = ORIENTED_EDGE ( 'NONE', *, *, #355, .F. ) ;
#551 = VERTEX_POINT ( 'NONE', #429 ) ;
#552 = DIRECTION ( 'NONE',  ( -0.000000000000000000, -1.000000000000000000, -0.000000000000000000 ) ) ;
#553 = DIRECTION ( 'NONE',  ( 0.000000000000000000, 0.000000000000000000, -1.000000000000000000 ) ) ;
#554 = VERTEX_POINT ( 'NONE', #795 ) ;
#555 = VECTOR ( 'NONE', #1031, 1000.000000000000000 ) ;
#556 = ORIENTED_EDGE ( 'NONE', *, *, #642, .F. ) ;
#557 = DIRECTION ( 'NONE',  ( 0.000000000000000000, 0.000000000000000000, -1.000000000000000000 ) ) ;
#558 = DIRECTION ( 'NONE',  ( -0.000000000000000000, -1.000000000000000000, -0.000000000000000000 ) ) ;
#559 = EDGE_CURVE ( 'NONE', #912, #75, #343, .T. ) ;
#560 = LINE ( 'NONE', #915, #861 ) ;
#561 = ORIENTED_EDGE ( 'NONE', *, *, #624, .F. ) ;
#562 = CARTESIAN_POINT ( 'NONE',  ( 25.04485088642370627, 4.500000000000000888, 12.80466971690446698 ) ) ;
#563 = DIRECTION ( 'NONE',  ( -0.000000000000000000, -1.000000000000000000, 0.000000000000000000 ) ) ;
#564 = VECTOR ( 'NONE', #931, 1000.000000000000000 ) ;
#565 = ORIENTED_EDGE ( 'NONE', *, *, #335, .T. ) ;
#566 = ADVANCED_FACE ( 'NONE', ( #974 ), #1061, .F. ) ;
#567 = EDGE_LOOP ( 'NONE', ( #539, #443, #1052, #730 ) ) ;
#568 = CARTESIAN_POINT ( 'NONE',  ( 78.22530117954131867, -1.500000000000000000, -20.04661744126519096 ) ) ;
#569 = AXIS2_PLACEMENT_3D ( 'NONE', #435, #96, #365 ) ;
#570 = EDGE_CURVE ( 'NONE', #29, #650, #545, .T. ) ;
#571 = EDGE_CURVE ( 'NONE', #46, #457, #271, .T. ) ;
#572 = PRODUCT ( 'Gripper', 'Gripper', '', ( #281 ) ) ;
#573 = CARTESIAN_POINT ( 'NONE',  ( 19.39156579964847182, -1.500000000000000000, 3.682524738765319494 ) ) ;
#574 = FACE_OUTER_BOUND ( 'NONE', #504, .T. ) ;
#575 = ORIENTED_EDGE ( 'NONE', *, *, #484, .T. ) ;
#576 = VERTEX_POINT ( 'NONE', #106 ) ;
#577 = LINE ( 'NONE', #43, #327 ) ;
#578 = DIRECTION ( 'NONE',  ( 0.9100336346413741007, 0.000000000000000000, 0.4145344181384821858 ) ) ;
#579 = DIRECTION ( 'NONE',  ( 1.000000000000000000, 0.000000000000000000, -0.000000000000000000 ) ) ;
#580 =( NAMED_UNIT ( * ) PLANE_ANGLE_UNIT ( ) SI_UNIT ( $, .RADIAN. ) );
#581 = ORIENTED_EDGE ( 'NONE', *, *, #213, .F. ) ;
#582 = CARTESIAN_POINT ( 'NONE',  ( 74.83424949527558567, 4.500000000000000888, -2.840805461484436023 ) ) ;
#583 = EDGE_CURVE ( 'NONE', #226, #270, #872, .T. ) ;
#584 = FACE_OUTER_BOUND ( 'NONE', #205, .T. ) ;
#585 = CARTESIAN_POINT ( 'NONE',  ( 81.47265624797572059, -1.500000000000000000, -3.539630035827554089 ) ) ;
#586 = DIRECTION ( 'NONE',  ( 0.6291930273682743158, 0.000000000000000000, -0.7772490812546168915 ) ) ;
#587 = EDGE_LOOP ( 'NONE', ( #967, #517, #295, #669 ) ) ;
#588 = DIRECTION ( 'NONE',  ( -0.7772490812545826966, 0.000000000000000000, -0.6291930273683166153 ) ) ;
#589 = CARTESIAN_POINT ( 'NONE',  ( 67.43993364825611536, 4.500000000000000888, -27.15724039812002033 ) ) ;
#590 = VECTOR ( 'NONE', #547, 1000.000000000000000 ) ;
#591 = LINE ( 'NONE', #945, #155 ) ;
#592 = DIRECTION ( 'NONE',  ( -0.9288742131985401329, 0.000000000000000000, 0.3703953240185315909 ) ) ;
#593 = EDGE_LOOP ( 'NONE', ( #191, #244, #640, #473 ) ) ;
#594 = DIRECTION ( 'NONE',  ( 0.000000000000000000, 1.000000000000000000, 0.000000000000000000 ) ) ;
#595 = CARTESIAN_POINT ( 'NONE',  ( -24.60843420035152462, 4.500000000000000888, 6.682524738765319938 ) ) ;
#596 = AXIS2_PLACEMENT_3D ( 'NONE', #984, #19, #357 ) ;
#597 = DIRECTION ( 'NONE',  ( -0.9100336346413742117, -0.000000000000000000, -0.4145344181384821858 ) ) ;
#598 = EDGE_CURVE ( 'NONE', #210, #137, #266, .T. ) ;
#599 = ORIENTED_EDGE ( 'NONE', *, *, #979, .T. ) ;
#600 = CARTESIAN_POINT ( 'NONE',  ( 57.99146288066229005, 4.500000000000000888, -8.599825521659944627 ) ) ;
#601 = AXIS2_PLACEMENT_3D ( 'NONE', #252, #258, #608 ) ;
#602 = CARTESIAN_POINT ( 'NONE',  ( 58.74908317841433103, 4.500000000000000888, -8.450774328200552077 ) ) ;
#603 = CARTESIAN_POINT ( 'NONE',  ( 79.63834841621489602, -1.500000000000000000, -5.024525580416786319 ) ) ;
#604 = AXIS2_PLACEMENT_3D ( 'NONE', #493, #1002, #405 ) ;
#605 = ORIENTED_EDGE ( 'NONE', *, *, #1042, .F. ) ;
#606 = SURFACE_SIDE_STYLE ('',( #256 ) ) ;
#607 = VECTOR ( 'NONE', #1010, 1000.000000000000000 ) ;
#608 = DIRECTION ( 'NONE',  ( -0.6291930273683260522, 0.000000000000000000, 0.7772490812545750360 ) ) ;
#609 = EDGE_CURVE ( 'NONE', #371, #1086, #22, .T. ) ;
#610 = ORIENTED_EDGE ( 'NONE', *, *, #949, .T. ) ;
#611 = CARTESIAN_POINT ( 'NONE',  ( 57.99146288066229005, -1.500000000000000000, -8.599825521659944627 ) ) ;
#612 = ADVANCED_FACE ( 'NONE', ( #529 ), #876, .T. ) ;
#613 = DIRECTION ( 'NONE',  ( 0.6291930273683260522, 0.000000000000000000, -0.7772490812545749250 ) ) ;
#614 = AXIS2_PLACEMENT_3D ( 'NONE', #867, #236, #1108 ) ;
#615 = CARTESIAN_POINT ( 'NONE',  ( -24.60843420035152462, 4.500000000000000888, 3.682524738765319494 ) ) ;
#616 = EDGE_LOOP ( 'NONE', ( #411, #138, #499, #376 ) ) ;
#617 = ORIENTED_EDGE ( 'NONE', *, *, #647, .T. ) ;
#618 = AXIS2_PLACEMENT_3D ( 'NONE', #926, #686, #153 ) ;
#619 = EDGE_CURVE ( 'NONE', #374, #675, #784, .T. ) ;
#620 = CARTESIAN_POINT ( 'NONE',  ( 25.04485088642370627, -1.500000000000000000, 12.80466971690446698 ) ) ;
#621 = DIRECTION ( 'NONE',  ( -0.000000000000000000, -1.000000000000000000, -0.000000000000000000 ) ) ;
#622 = ORIENTED_EDGE ( 'NONE', *, *, #292, .F. ) ;
#623 = SHAPE_DEFINITION_REPRESENTATION ( #980, #880 ) ;
#624 = EDGE_CURVE ( 'NONE', #72, #633, #4, .T. ) ;
#625 = FACE_OUTER_BOUND ( 'NONE', #233, .T. ) ;
#626 = VECTOR ( 'NONE', #201, 1000.000000000000000 ) ;
#627 = CARTESIAN_POINT ( 'NONE',  ( -24.60843420035152462, 4.500000000000000888, 13.68252473876531994 ) ) ;
#628 = ORIENTED_EDGE ( 'NONE', *, *, #856, .T. ) ;
#629 = ORIENTED_EDGE ( 'NONE', *, *, #362, .T. ) ;
#630 = DIRECTION ( 'NONE',  ( 0.7772490812545727046, 0.000000000000000000, 0.6291930273683288277 ) ) ;
#631 = CARTESIAN_POINT ( 'NONE',  ( 80.07505763587442971, 4.500000000000000888, -20.80714426673159068 ) ) ;
#632 = CARTESIAN_POINT ( 'NONE',  ( 34.17698179368547073, 4.500000000000000888, 2.896371394142037925 ) ) ;
#633 = VERTEX_POINT ( 'NONE', #879 ) ;
#634 = ADVANCED_FACE ( 'NONE', ( #95 ), #441, .F. ) ;
#635 = ORIENTED_EDGE ( 'NONE', *, *, #609, .T. ) ;
#636 = AXIS2_PLACEMENT_3D ( 'NONE', #530, #103, #790 ) ;
#637 = DIRECTION ( 'NONE',  ( 0.000000000000000000, 0.000000000000000000, -1.000000000000000000 ) ) ;
#638 = VECTOR ( 'NONE', #70, 1000.000000000000000 ) ;
#639 = CARTESIAN_POINT ( 'NONE',  ( -24.60843420035152462, 4.500000000000000888, 0.6825247387653191611 ) ) ;
#640 = ORIENTED_EDGE ( 'NONE', *, *, #64, .F. ) ;
#641 = LINE ( 'NONE', #825, #985 ) ;
#642 = EDGE_CURVE ( 'NONE', #774, #391, #543, .T. ) ;
#643 = EDGE_LOOP ( 'NONE', ( #55, #359, #1123, #340 ) ) ;
#644 = ORIENTED_EDGE ( 'NONE', *, *, #816, .F. ) ;
#645 = CARTESIAN_POINT ( 'NONE',  ( 71.51504611892563901, -1.500000000000000000, -2.491393174312790837 ) ) ;
#646 = AXIS2_PLACEMENT_3D ( 'NONE', #100, #535, #1059 ) ;
#647 = EDGE_CURVE ( 'NONE', #675, #37, #363, .T. ) ;
#648 = CARTESIAN_POINT ( 'NONE',  ( 78.15345287162564603, 4.500000000000000888, -3.190217748655987950 ) ) ;
#649 = ORIENTED_EDGE ( 'NONE', *, *, #180, .T. ) ;
#650 = VERTEX_POINT ( 'NONE', #195 ) ;
#651 = DIRECTION ( 'NONE',  ( 0.000000000000000000, 1.000000000000000000, 0.000000000000000000 ) ) ;
#652 = EDGE_CURVE ( 'NONE', #675, #46, #278, .T. ) ;
#653 = DIRECTION ( 'NONE',  ( 0.6291930273683257191, 0.000000000000000000, -0.7772490812545752581 ) ) ;
#654 = CARTESIAN_POINT ( 'NONE',  ( 15.45698876122486531, 4.500000000000000888, -6.467718804901585017 ) ) ;
#655 = AXIS2_PLACEMENT_3D ( 'NONE', #519, #969, #181 ) ;
#656 = ORIENTED_EDGE ( 'NONE', *, *, #720, .T. ) ;
#657 = LINE ( 'NONE', #1014, #678 ) ;
#658 =( GEOMETRIC_REPRESENTATION_CONTEXT ( 3 ) GLOBAL_UNCERTAINTY_ASSIGNED_CONTEXT ( ( #940 ) ) GLOBAL_UNIT_ASSIGNED_CONTEXT ( ( #423, #7, #178 ) ) REPRESENTATION_CONTEXT ( 'NONE', 'WORKASPACE' ) );
#659 = CARTESIAN_POINT ( 'NONE',  ( -24.60843420035152462, -1.500000000000000000, 0.6825247387653191611 ) ) ;
#660 = VECTOR ( 'NONE', #848, 1000.000000000000227 ) ;
#661 = CARTESIAN_POINT ( 'NONE',  ( 19.39156579964847182, 4.500000000000000888, 3.682524738765319494 ) ) ;
#662 = ORIENTED_EDGE ( 'NONE', *, *, #534, .T. ) ;
#663 = VERTEX_POINT ( 'NONE', #843 ) ;
#664 = DIRECTION ( 'NONE',  ( 0.000000000000000000, -1.000000000000000000, 0.000000000000000000 ) ) ;
#665 = DIRECTION ( 'NONE',  ( -0.000000000000000000, -1.000000000000000000, -0.000000000000000000 ) ) ;
#666 = DIRECTION ( 'NONE',  ( 0.6291930273683254971, 0.000000000000000000, -0.7772490812545754801 ) ) ;
#667 = PRESENTATION_STYLE_ASSIGNMENT (( #243 ) ) ;
#668 = EDGE_CURVE ( 'NONE', #663, #522, #1113, .T. ) ;
#669 = ORIENTED_EDGE ( 'NONE', *, *, #77, .T. ) ;
#670 = CARTESIAN_POINT ( 'NONE',  ( 57.99146288066229005, 4.500000000000000888, -8.599825521659944627 ) ) ;
#671 = CARTESIAN_POINT ( 'NONE',  ( 25.04485088642370627, 4.500000000000000888, 12.80466971690446698 ) ) ;
#672 = CARTESIAN_POINT ( 'NONE',  ( 15.45698876122486531, 4.500000000000000888, -6.467718804901585017 ) ) ;
#673 = DIRECTION ( 'NONE',  ( -0.7772490812545752581, 0.000000000000000000, -0.6291930273683257191 ) ) ;
#674 = AXIS2_PLACEMENT_3D ( 'NONE', #1011, #164, #225 ) ;
#675 = VERTEX_POINT ( 'NONE', #59 ) ;
#676 = DIRECTION ( 'NONE',  ( -0.3802634127332040759, -0.000000000000000000, -0.9248782281665499649 ) ) ;
#677 = DIRECTION ( 'NONE',  ( -0.3802634127332040759, -0.000000000000000000, -0.9248782281665499649 ) ) ;
#678 = VECTOR ( 'NONE', #311, 1000.000000000000000 ) ;
#679 = CARTESIAN_POINT ( 'NONE',  ( 19.39156579964847182, 4.500000000000000888, 0.6825247387653183839 ) ) ;
#680 = CARTESIAN_POINT ( 'NONE',  ( 86.27675516891488883, 4.500000000000000888, -5.723350154759994979 ) ) ;
#681 = ORIENTED_EDGE ( 'NONE', *, *, #11, .F. ) ;
#682 = DIRECTION ( 'NONE',  ( 0.7772490812545771455, 0.000000000000000000, 0.6291930273683233876 ) ) ;
#683 =( GEOMETRIC_REPRESENTATION_CONTEXT ( 3 ) GLOBAL_UNCERTAINTY_ASSIGNED_CONTEXT ( ( #1017 ) ) GLOBAL_UNIT_ASSIGNED_CONTEXT ( ( #339, #580, #933 ) ) REPRESENTATION_CONTEXT ( 'NONE', 'WORKASPACE' ) );
#684 = ADVANCED_FACE ( 'NONE', ( #759 ), #502, .F. ) ;
#685 = DIRECTION ( 'NONE',  ( 0.000000000000000000, 0.000000000000000000, -1.000000000000000000 ) ) ;
#686 = DIRECTION ( 'NONE',  ( 0.6291930273683233876, 0.000000000000000000, -0.7772490812545771455 ) ) ;
#687 = LINE ( 'NONE', #491, #844 ) ;
#688 = ORIENTED_EDGE ( 'NONE', *, *, #708, .F. ) ;
#689 = CARTESIAN_POINT ( 'NONE',  ( 76.31914503986483567, 4.500000000000000888, -4.675113293245234836 ) ) ;
#690 = LINE ( 'NONE', #356, #698 ) ;
#691 = EDGE_CURVE ( 'NONE', #416, #72, #396, .T. ) ;
#692 = VECTOR ( 'NONE', #288, 1000.000000000000000 ) ;
#693 = LINE ( 'NONE', #1116, #638 ) ;
#694 = ORIENTED_EDGE ( 'NONE', *, *, #896, .F. ) ;
#695 = DIRECTION ( 'NONE',  ( -0.000000000000000000, -1.000000000000000000, -0.000000000000000000 ) ) ;
#696 = EDGE_CURVE ( 'NONE', #6, #809, #36, .T. ) ;
#697 = ADVANCED_FACE ( 'NONE', ( #574 ), #242, .F. ) ;
#698 = VECTOR ( 'NONE', #800, 1000.000000000000000 ) ;
#699 = DIRECTION ( 'NONE',  ( 0.000000000000000000, 1.000000000000000000, -0.000000000000000000 ) ) ;
#700 = APPLICATION_CONTEXT ( 'automotive_design' ) ;
#701 = CARTESIAN_POINT ( 'NONE',  ( 71.51504611892563901, 4.500000000000000888, -2.491393174312790837 ) ) ;
#702 = AXIS2_PLACEMENT_3D ( 'NONE', #193, #992, #204 ) ;
#703 = ORIENTED_EDGE ( 'NONE', *, *, #559, .T. ) ;
#704 = DIRECTION ( 'NONE',  ( 0.6291930273683166153, 0.000000000000000000, -0.7772490812545826966 ) ) ;
#705 = DIRECTION ( 'NONE',  ( 0.9254744032703045020, 0.000000000000000000, 0.3788101488760216018 ) ) ;
#706 = CARTESIAN_POINT ( 'NONE',  ( -24.60843420035152462, -1.500000000000000000, 3.682524738765319494 ) ) ;
#707 = VERTEX_POINT ( 'NONE', #1036 ) ;
#708 = EDGE_CURVE ( 'NONE', #540, #270, #932, .T. ) ;
#709 = CARTESIAN_POINT ( 'NONE',  ( 84.79185962432579515, 4.500000000000000888, -3.889042322999129997 ) ) ;
#710 = VECTOR ( 'NONE', #490, 1000.000000000000000 ) ;
#711 = ORIENTED_EDGE ( 'NONE', *, *, #949, .F. ) ;
#712 = CLOSED_SHELL ( 'NONE', ( #827, #207, #345, #134, #1022, #146, #135, #41, #875, #521, #283, #202, #251, #994, #684, #88, #1063, #566, #1094, #171, #634, #976, #387, #805, #17, #472, #697, #612, #938, #375, #1015, #481, #437 ) ) ;
#713 = CARTESIAN_POINT ( 'NONE',  ( 58.74908317841433103, 4.500000000000000888, -8.450774328200552077 ) ) ;
#714 = FACE_OUTER_BOUND ( 'NONE', #510, .T. ) ;
#715 = ORIENTED_EDGE ( 'NONE', *, *, #742, .T. ) ;
#716 =( NAMED_UNIT ( * ) SI_UNIT ( $, .STERADIAN. ) SOLID_ANGLE_UNIT ( ) );
#717 = ORIENTED_EDGE ( 'NONE', *, *, #738, .T. ) ;
#718 = CARTESIAN_POINT ( 'NONE',  ( 57.25067223262521310, 4.500000000000000888, -8.457573948057021340 ) ) ;
#719 = CARTESIAN_POINT ( 'NONE',  ( 82.95755179256495637, 4.500000000000000888, -5.373937867588350237 ) ) ;
#720 = EDGE_CURVE ( 'NONE', #1047, #1057, #248, .T. ) ;
#721 = FACE_OUTER_BOUND ( 'NONE', #321, .T. ) ;
#722 = AXIS2_PLACEMENT_3D ( 'NONE', #503, #81, #409 ) ;
#723 = VERTEX_POINT ( 'NONE', #595 ) ;
#724 = DIRECTION ( 'NONE',  ( 0.000000000000000000, 0.000000000000000000, -1.000000000000000000 ) ) ;
#725 = CARTESIAN_POINT ( 'NONE',  ( -24.60843420035152462, 4.500000000000000888, 3.682524738765319494 ) ) ;
#726 = ORIENTED_EDGE ( 'NONE', *, *, #123, .F. ) ;
#727 = ORIENTED_EDGE ( 'NONE', *, *, #791, .T. ) ;
#728 = EDGE_CURVE ( 'NONE', #551, #554, #212, .T. ) ;
#729 = CARTESIAN_POINT ( 'NONE',  ( -24.60843420035152462, 4.500000000000000888, 3.682524738765319494 ) ) ;
#730 = ORIENTED_EDGE ( 'NONE', *, *, #227, .T. ) ;
#731 = EDGE_CURVE ( 'NONE', #46, #576, #401, .T. ) ;
#732 = ORIENTED_EDGE ( 'NONE', *, *, #64, .T. ) ;
#733 = DIRECTION ( 'NONE',  ( -0.7772490812545796990, 0.000000000000000000, -0.6291930273683203900 ) ) ;
#734 = ORIENTED_EDGE ( 'NONE', *, *, #97, .T. ) ;
#735 = ORIENTED_EDGE ( 'NONE', *, *, #330, .F. ) ;
#736 = DIRECTION ( 'NONE',  ( 0.9288742131985401329, 0.000000000000000000, -0.3703953240185316464 ) ) ;
#737 = VECTOR ( 'NONE', #188, 1000.000000000000000 ) ;
#738 = EDGE_CURVE ( 'NONE', #6, #358, #765, .T. ) ;
#739 = FACE_OUTER_BOUND ( 'NONE', #837, .T. ) ;
#740 = EDGE_CURVE ( 'NONE', #723, #747, #1110, .T. ) ;
#741 = ORIENTED_EDGE ( 'NONE', *, *, #444, .T. ) ;
#742 = EDGE_CURVE ( 'NONE', #723, #1013, #497, .T. ) ;
#743 = ORIENTED_EDGE ( 'NONE', *, *, #668, .T. ) ;
#744 = DIRECTION ( 'NONE',  ( 0.000000000000000000, 0.000000000000000000, -1.000000000000000000 ) ) ;
#745 = VECTOR ( 'NONE', #118, 1000.000000000000000 ) ;
#746 = CARTESIAN_POINT ( 'NONE',  ( 66.61086481197914111, 4.500000000000000888, -25.33717312883726791 ) ) ;
#747 = VERTEX_POINT ( 'NONE', #319 ) ;
#748 = AXIS2_PLACEMENT_3D ( 'NONE', #806, #261, #425 ) ;
#749 = VERTEX_POINT ( 'NONE', #74 ) ;
#750 = PLANE ( 'NONE',  #751 ) ;
#751 = AXIS2_PLACEMENT_3D ( 'NONE', #1100, #664, #783 ) ;
#752 = DIRECTION ( 'NONE',  ( -0.4145344181384821858, 0.000000000000000000, 0.9100336346413741007 ) ) ;
#753 = EDGE_CURVE ( 'NONE', #275, #203, #854, .T. ) ;
#754 = DIRECTION ( 'NONE',  ( 0.6291930273682727615, 0.000000000000000000, -0.7772490812546181127 ) ) ;
#755 = DIRECTION ( 'NONE',  ( 0.9288742131985401329, 0.000000000000000000, -0.3703953240185316464 ) ) ;
#756 = EDGE_LOOP ( 'NONE', ( #1026, #221, #1092, #1090 ) ) ;
#757 = PLANE ( 'NONE',  #94 ) ;
#758 = CARTESIAN_POINT ( 'NONE',  ( 78.22530117954131867, 4.500000000000000888, -20.04661744126519096 ) ) ;
#759 = FACE_OUTER_BOUND ( 'NONE', #367, .T. ) ;
#760 = LINE ( 'NONE', #1109, #832 ) ;
#761 = ORIENTED_EDGE ( 'NONE', *, *, #696, .F. ) ;
#762 = CARTESIAN_POINT ( 'NONE',  ( 57.99146288066229005, 4.500000000000000888, -6.599825521659944627 ) ) ;
#763 = VECTOR ( 'NONE', #779, 1000.000000000000000 ) ;
#764 = CARTESIAN_POINT ( 'NONE',  ( 80.07505763587442971, 4.500000000000000888, -20.80714426673159068 ) ) ;
#765 = LINE ( 'NONE', #1024, #71 ) ;
#766 = DIRECTION ( 'NONE',  ( -0.000000000000000000, -1.000000000000000000, -0.000000000000000000 ) ) ;
#767 = VECTOR ( 'NONE', #771, 1000.000000000000114 ) ;
#768 = VERTEX_POINT ( 'NONE', #849 ) ;
#769 = EDGE_CURVE ( 'NONE', #707, #37, #80, .T. ) ;
#770 = LINE ( 'NONE', #312, #607 ) ;
#771 = DIRECTION ( 'NONE',  ( 0.7772490812545874705, 0.000000000000000000, 0.6291930273683107311 ) ) ;
#772 = PLANE ( 'NONE',  #871 ) ;
#773 = AXIS2_PLACEMENT_3D ( 'NONE', #758, #63, #685 ) ;
#774 = VERTEX_POINT ( 'NONE', #69 ) ;
#775 = DIRECTION ( 'NONE',  ( 0.6291930273683107311, 0.000000000000000000, -0.7772490812545873595 ) ) ;
#776 = PRESENTATION_LAYER_ASSIGNMENT (  '', '', ( #1033 ) ) ;
#777 = EDGE_CURVE ( 'NONE', #554, #29, #408, .T. ) ;
#778 = CARTESIAN_POINT ( 'NONE',  ( 79.63834841621489602, -1.500000000000000000, -5.024525580416786319 ) ) ;
#779 = DIRECTION ( 'NONE',  ( -0.000000000000000000, -1.000000000000000000, -0.000000000000000000 ) ) ;
#780 = EDGE_CURVE ( 'NONE', #943, #210, #591, .T. ) ;
#781 = CARTESIAN_POINT ( 'NONE',  ( 33.43619114564841510, 4.500000000000000888, 1.038622967744955217 ) ) ;
#782 = ORIENTED_EDGE ( 'NONE', *, *, #742, .F. ) ;
#783 = DIRECTION ( 'NONE',  ( 0.000000000000000000, -0.000000000000000000, -1.000000000000000000 ) ) ;
#784 = LINE ( 'NONE', #91, #303 ) ;
#785 = AXIS2_PLACEMENT_3D ( 'NONE', #214, #558, #370 ) ;
#786 = PLANE ( 'NONE',  #107 ) ;
#787 = ORIENTED_EDGE ( 'NONE', *, *, #317, .T. ) ;
#788 = SURFACE_STYLE_USAGE ( .BOTH. , #606 ) ;
#789 = DIRECTION ( 'NONE',  ( -0.000000000000000000, -1.000000000000000000, -0.000000000000000000 ) ) ;
#790 = DIRECTION ( 'NONE',  ( 0.000000000000000000, 0.000000000000000000, 1.000000000000000000 ) ) ;
#791 = EDGE_CURVE ( 'NONE', #749, #451, #421, .T. ) ;
#792 = ORIENTED_EDGE ( 'NONE', *, *, #570, .F. ) ;
#793 = EDGE_LOOP ( 'NONE', ( #735, #978 ) ) ;
#794 = APPLICATION_CONTEXT ( 'automotive_design' ) ;
#795 = CARTESIAN_POINT ( 'NONE',  ( 19.39156579964847182, 4.500000000000000888, 0.6825247387653183839 ) ) ;
#796 = CYLINDRICAL_SURFACE ( 'NONE', #515, 2.000000000000001776 ) ;
#797 = VECTOR ( 'NONE', #552, 1000.000000000000000 ) ;
#798 = ORIENTED_EDGE ( 'NONE', *, *, #668, .F. ) ;
#799 = CARTESIAN_POINT ( 'NONE',  ( 66.61086481197914111, 4.500000000000000888, -25.33717312883726791 ) ) ;
#800 = DIRECTION ( 'NONE',  ( -0.000000000000000000, -1.000000000000000000, -0.000000000000000000 ) ) ;
#801 = CARTESIAN_POINT ( 'NONE',  ( 57.25067223262521310, 4.500000000000000888, -8.457573948057021340 ) ) ;
#802 = EDGE_LOOP ( 'NONE', ( #66, #681, #445, #255 ) ) ;
#803 = VERTEX_POINT ( 'NONE', #818 ) ;
#804 = CARTESIAN_POINT ( 'NONE',  ( 65.85033798651271297, 4.500000000000000888, -27.18692958517036473 ) ) ;
#805 = ADVANCED_FACE ( 'NONE', ( #528 ), #462, .T. ) ;
#806 = CARTESIAN_POINT ( 'NONE',  ( -24.60843420035152462, 4.500000000000000888, 3.682524738765319494 ) ) ;
#807 = LINE ( 'NONE', #274, #1069 ) ;
#808 = VECTOR ( 'NONE', #870, 1000.000000000000000 ) ;
#809 = VERTEX_POINT ( 'NONE', #804 ) ;
#810 = VERTEX_POINT ( 'NONE', #206 ) ;
#811 = VECTOR ( 'NONE', #842, 1000.000000000000000 ) ;
#812 = CARTESIAN_POINT ( 'NONE',  ( 67.43993364825611536, 4.500000000000000888, -27.15724039812001678 ) ) ;
#813 = CARTESIAN_POINT ( 'NONE',  ( 58.74908317841433103, 4.500000000000000888, -8.450774328200552077 ) ) ;
#814 = PRODUCT_RELATED_PRODUCT_CATEGORY ( 'part', '', ( #572 ) ) ;
#815 = VERTEX_POINT ( 'NONE', #542 ) ;
#816 = EDGE_CURVE ( 'NONE', #203, #105, #903, .T. ) ;
#817 = ORIENTED_EDGE ( 'NONE', *, *, #366, .F. ) ;
#818 = CARTESIAN_POINT ( 'NONE',  ( 79.63834841621489602, 4.500000000000000888, -5.024525580416786319 ) ) ;
#819 = DIRECTION ( 'NONE',  ( -0.000000000000000000, -1.000000000000000000, -0.000000000000000000 ) ) ;
#820 = EDGE_CURVE ( 'NONE', #259, #1012, #13, .T. ) ;
#821 = ORIENTED_EDGE ( 'NONE', *, *, #260, .T. ) ;
#822 = EDGE_LOOP ( 'NONE', ( #1105, #526, #315, #863 ) ) ;
#823 = DIRECTION ( 'NONE',  ( 0.000000000000000000, 0.000000000000000000, -1.000000000000000000 ) ) ;
#824 = VECTOR ( 'NONE', #1070, 1000.000000000000000 ) ;
#825 = CARTESIAN_POINT ( 'NONE',  ( 65.85033798651271297, 4.500000000000000888, -27.18692958517036473 ) ) ;
#826 = ORIENTED_EDGE ( 'NONE', *, *, #841, .T. ) ;
#827 = ADVANCED_FACE ( 'NONE', ( #625 ), #891, .F. ) ;
#828 = ORIENTED_EDGE ( 'NONE', *, *, #691, .T. ) ;
#829 = CARTESIAN_POINT ( 'NONE',  ( 25.04485088642370627, 4.500000000000000888, 12.80466971690446698 ) ) ;
#830 = AXIS2_PLACEMENT_3D ( 'NONE', #987, #369, #724 ) ;
#831 = LINE ( 'NONE', #45, #918 ) ;
#832 = VECTOR ( 'NONE', #946, 1000.000000000000227 ) ;
#833 = PLANE ( 'NONE',  #183 ) ;
#834 = ORIENTED_EDGE ( 'NONE', *, *, #399, .F. ) ;
#835 = CARTESIAN_POINT ( 'NONE',  ( -24.60843420035152462, -1.500000000000000000, 3.682524738765319494 ) ) ;
#836 = LINE ( 'NONE', #298, #480 ) ;
#837 = EDGE_LOOP ( 'NONE', ( #167, #173, #581, #16 ) ) ;
#838 = ORIENTED_EDGE ( 'NONE', *, *, #512, .F. ) ;
#839 = DIRECTION ( 'NONE',  ( 0.000000000000000000, 0.000000000000000000, -1.000000000000000000 ) ) ;
#840 = VECTOR ( 'NONE', #32, 1000.000000000000000 ) ;
#841 = EDGE_CURVE ( 'NONE', #161, #371, #360, .T. ) ;
#842 = DIRECTION ( 'NONE',  ( -0.000000000000000000, -1.000000000000000000, -0.000000000000000000 ) ) ;
#843 = CARTESIAN_POINT ( 'NONE',  ( 23.38931754395152396, -1.500000000000000000, 13.68252473876532171 ) ) ;
#844 = VECTOR ( 'NONE', #597, 1000.000000000000000 ) ;
#845 = AXIS2_PLACEMENT_3D ( 'NONE', #602, #342, #885 ) ;
#846 = EDGE_LOOP ( 'NONE', ( #911, #923, #993, #1117 ) ) ;
#847 = FACE_OUTER_BOUND ( 'NONE', #384, .T. ) ;
#848 = DIRECTION ( 'NONE',  ( 0.7772490812545826966, 0.000000000000000000, 0.6291930273683166153 ) ) ;
#849 = CARTESIAN_POINT ( 'NONE',  ( 58.74908317841433103, 4.500000000000000888, -8.450774328200552077 ) ) ;
#850 = DIRECTION ( 'NONE',  ( -0.3703953240185315909, 0.000000000000000000, -0.9288742131985401329 ) ) ;
#851 = ORIENTED_EDGE ( 'NONE', *, *, #652, .F. ) ;
#852 = DIRECTION ( 'NONE',  ( -0.000000000000000000, -1.000000000000000000, -0.000000000000000000 ) ) ;
#853 = DIRECTION ( 'NONE',  ( 0.000000000000000000, 1.000000000000000000, 0.000000000000000000 ) ) ;
#854 = LINE ( 'NONE', #313, #264 ) ;
#855 = CARTESIAN_POINT ( 'NONE',  ( 74.83424949527558567, -1.500000000000000000, -2.840805461484436023 ) ) ;
#856 = EDGE_CURVE ( 'NONE', #749, #943, #199, .T. ) ;
#857 = VERTEX_POINT ( 'NONE', #981 ) ;
#858 = LINE ( 'NONE', #671, #811 ) ;
#859 = CARTESIAN_POINT ( 'NONE',  ( 69.68073828716488549, 4.500000000000000888, -3.976288718902026176 ) ) ;
#860 = FACE_OUTER_BOUND ( 'NONE', #533, .T. ) ;
#861 = VECTOR ( 'NONE', #129, 1000.000000000000000 ) ;
#862 = EDGE_CURVE ( 'NONE', #416, #1, #898, .T. ) ;
#863 = ORIENTED_EDGE ( 'NONE', *, *, #403, .T. ) ;
#864 = CARTESIAN_POINT ( 'NONE',  ( -24.60843420035152462, -1.500000000000000000, -6.317475261234680950 ) ) ;
#865 = CIRCLE ( 'NONE', #361, 10.00000000000000000 ) ;
#866 = LINE ( 'NONE', #494, #958 ) ;
#867 = CARTESIAN_POINT ( 'NONE',  ( -24.60843420035152462, 4.500000000000000888, 3.682524738765319494 ) ) ;
#868 = AXIS2_PLACEMENT_3D ( 'NONE', #573, #853, #140 ) ;
#869 = ORIENTED_EDGE ( 'NONE', *, *, #696, .T. ) ;
#870 = DIRECTION ( 'NONE',  ( 0.5610724890695777400, 0.000000000000000000, -0.8277666712360848278 ) ) ;
#871 = AXIS2_PLACEMENT_3D ( 'NONE', #1037, #673, #232 ) ;
#872 = LINE ( 'NONE', #956, #110 ) ;
#873 = ORIENTED_EDGE ( 'NONE', *, *, #619, .T. ) ;
#874 = FACE_OUTER_BOUND ( 'NONE', #756, .T. ) ;
#875 = ADVANCED_FACE ( 'NONE', ( #907 ), #30, .F. ) ;
#876 = CYLINDRICAL_SURFACE ( 'NONE', #748, 10.00000000000000000 ) ;
#877 = CYLINDRICAL_SURFACE ( 'NONE', #1039, 3.000000000000000444 ) ;
#878 = ORIENTED_EDGE ( 'NONE', *, *, #512, .T. ) ;
#879 = CARTESIAN_POINT ( 'NONE',  ( 76.31914503986483567, -1.500000000000000000, -4.675113293245234836 ) ) ;
#880 = ADVANCED_BREP_SHAPE_REPRESENTATION ( 'Gripper', ( #47, #702 ), #658 ) ;
#881 = DIRECTION ( 'NONE',  ( 0.7772490812545727046, 0.000000000000000000, 0.6291930273683288277 ) ) ;
#882 = VECTOR ( 'NONE', #682, 1000.000000000000227 ) ;
#883 = ORIENTED_EDGE ( 'NONE', *, *, #571, .T. ) ;
#884 = CARTESIAN_POINT ( 'NONE',  ( 78.15345287162564603, -1.500000000000000000, -3.190217748655987950 ) ) ;
#885 = DIRECTION ( 'NONE',  ( -0.9254744032703046130, 0.000000000000000000, -0.3788101488760216018 ) ) ;
#886 = CYLINDRICAL_SURFACE ( 'NONE', #569, 2.000000000000000000 ) ;
#887 = ORIENTED_EDGE ( 'NONE', *, *, #1054, .F. ) ;
#888 = EDGE_CURVE ( 'NONE', #1078, #358, #169, .T. ) ;
#889 = APPLICATION_PROTOCOL_DEFINITION ( 'draft international standard', 'automotive_design', 1998, #700 ) ;
#890 = ORIENTED_EDGE ( 'NONE', *, *, #728, .F. ) ;
#891 = CYLINDRICAL_SURFACE ( 'NONE', #438, 3.000000000000001332 ) ;
#892 = DIRECTION ( 'NONE',  ( -0.000000000000000000, -1.000000000000000000, -0.000000000000000000 ) ) ;
#893 = DIRECTION ( 'NONE',  ( -0.000000000000000000, -1.000000000000000000, 0.000000000000000000 ) ) ;
#894 = AXIS2_PLACEMENT_3D ( 'NONE', #379, #136, #1079 ) ;
#895 = VERTEX_POINT ( 'NONE', #670 ) ;
#896 = EDGE_CURVE ( 'NONE', #1013, #239, #287, .T. ) ;
#897 = ORIENTED_EDGE ( 'NONE', *, *, #960, .T. ) ;
#898 = LINE ( 'NONE', #377, #797 ) ;
#899 = DIRECTION ( 'NONE',  ( -0.9100336346413742117, -0.000000000000000000, -0.4145344181384821858 ) ) ;
#900 = CARTESIAN_POINT ( 'NONE',  ( 65.85033798651271297, -1.500000000000000000, -27.18692958517036473 ) ) ;
#901 = AXIS2_PLACEMENT_3D ( 'NONE', #924, #302, #211 ) ;
#902 = ORIENTED_EDGE ( 'NONE', *, *, #896, .T. ) ;
#903 = LINE ( 'NONE', #884, #737 ) ;
#904 = CARTESIAN_POINT ( 'NONE',  ( 72.99994166351477531, 4.500000000000000888, -4.325701006073682464 ) ) ;
#905 = ORIENTED_EDGE ( 'NONE', *, *, #180, .F. ) ;
#906 = ORIENTED_EDGE ( 'NONE', *, *, #731, .T. ) ;
#907 = FACE_OUTER_BOUND ( 'NONE', #1038, .T. ) ;
#908 = EDGE_CURVE ( 'NONE', #540, #289, #378, .T. ) ;
#909 = DIRECTION ( 'NONE',  ( -0.000000000000000000, -1.000000000000000000, -0.000000000000000000 ) ) ;
#910 = VECTOR ( 'NONE', #325, 1000.000000000000227 ) ;
#911 = ORIENTED_EDGE ( 'NONE', *, *, #247, .F. ) ;
#912 = VERTEX_POINT ( 'NONE', #936 ) ;
#913 = LINE ( 'NONE', #127, #395 ) ;
#914 = CARTESIAN_POINT ( 'NONE',  ( 79.63834841621489602, 4.500000000000000888, -5.024525580416786319 ) ) ;
#915 = CARTESIAN_POINT ( 'NONE',  ( 79.05437001581827872, 4.500000000000000888, -21.86668471054793983 ) ) ;
#916 = VERTEX_POINT ( 'NONE', #645 ) ;
#917 = CARTESIAN_POINT ( 'NONE',  ( -24.60843420035152462, -1.500000000000000000, 13.68252473876531994 ) ) ;
#918 = VECTOR ( 'NONE', #51, 1000.000000000000000 ) ;
#919 = CARTESIAN_POINT ( 'NONE',  ( -24.60843420035152462, 4.500000000000000888, -6.317475261234680950 ) ) ;
#920 = AXIS2_PLACEMENT_3D ( 'NONE', #970, #1062, #5 ) ;
#921 = ORIENTED_EDGE ( 'NONE', *, *, #532, .F. ) ;
#922 = EDGE_CURVE ( 'NONE', #1086, #857, #149, .T. ) ;
#923 = ORIENTED_EDGE ( 'NONE', *, *, #1042, .T. ) ;
#924 = CARTESIAN_POINT ( 'NONE',  ( -24.60843420035152462, 4.500000000000000888, 13.68252473876531994 ) ) ;
#925 = LINE ( 'NONE', #778, #660 ) ;
#926 = CARTESIAN_POINT ( 'NONE',  ( 76.31914503986483567, 4.500000000000000888, -4.675113293245234836 ) ) ;
#927 = ORIENTED_EDGE ( 'NONE', *, *, #982, .F. ) ;
#928 = VERTEX_POINT ( 'NONE', #133 ) ;
#929 = DIRECTION ( 'NONE',  ( -0.000000000000000000, -1.000000000000000000, -0.000000000000000000 ) ) ;
#930 = CIRCLE ( 'NONE', #196, 2.000000000000000000 ) ;
#931 = DIRECTION ( 'NONE',  ( -0.000000000000000000, -1.000000000000000000, -0.000000000000000000 ) ) ;
#932 = LINE ( 'NONE', #672, #763 ) ;
#933 =( NAMED_UNIT ( * ) SI_UNIT ( $, .STERADIAN. ) SOLID_ANGLE_UNIT ( ) );
#934 = EDGE_CURVE ( 'NONE', #75, #371, #577, .T. ) ;
#935 = ORIENTED_EDGE ( 'NONE', *, *, #791, .F. ) ;
#936 = CARTESIAN_POINT ( 'NONE',  ( 32.52144845121329553, -1.500000000000000000, 1.774226416002888662 ) ) ;
#937 = AXIS2_PLACEMENT_3D ( 'NONE', #1074, #1083, #637 ) ;
#938 = ADVANCED_FACE ( 'NONE', ( #392 ), #998, .F. ) ;
#939 = LINE ( 'NONE', #764, #393 ) ;
#940 = UNCERTAINTY_MEASURE_WITH_UNIT (LENGTH_MEASURE( 1.000000000000000082E-05 ), #423, 'distance_accuracy_value', 'NONE');
#941 = DIRECTION ( 'NONE',  ( -0.000000000000000000, -1.000000000000000000, -0.000000000000000000 ) ) ;
#942 = CARTESIAN_POINT ( 'NONE',  ( 82.95755179256495637, -1.500000000000000000, -5.373937867588350237 ) ) ;
#943 = VERTEX_POINT ( 'NONE', #67 ) ;
#944 = CARTESIAN_POINT ( 'NONE',  ( 19.39156579964847182, 4.500000000000000888, 3.682524738765319494 ) ) ;
#945 = CARTESIAN_POINT ( 'NONE',  ( 71.51504611892563901, 4.500000000000000888, -2.491393174312790837 ) ) ;
#946 = DIRECTION ( 'NONE',  ( 0.9254744032703045020, 0.000000000000000000, 0.3788101488760216018 ) ) ;
#947 = ORIENTED_EDGE ( 'NONE', *, *, #820, .F. ) ;
#948 = EDGE_CURVE ( 'NONE', #1057, #352, #865, .T. ) ;
#949 = EDGE_CURVE ( 'NONE', #352, #663, #49, .T. ) ;
#950 = CARTESIAN_POINT ( 'NONE',  ( 74.83424949527558567, 4.500000000000000888, -2.840805461484436023 ) ) ;
#951 = CARTESIAN_POINT ( 'NONE',  ( -24.60843420035152462, 4.500000000000000888, -6.317475261234680950 ) ) ;
#952 = CARTESIAN_POINT ( 'NONE',  ( 86.27675516891488883, -1.500000000000000000, -5.723350154759994979 ) ) ;
#953 = ORIENTED_EDGE ( 'NONE', *, *, #948, .F. ) ;
#954 = VECTOR ( 'NONE', #705, 1000.000000000000227 ) ;
#955 = LINE ( 'NONE', #523, #808 ) ;
#956 = CARTESIAN_POINT ( 'NONE',  ( 15.45698876122486531, -1.500000000000000000, -6.467718804901585017 ) ) ;
#957 = LINE ( 'NONE', #237, #276 ) ;
#958 = VECTOR ( 'NONE', #79, 1000.000000000000227 ) ;
#959 = ORIENTED_EDGE ( 'NONE', *, *, #559, .F. ) ;
#960 = EDGE_CURVE ( 'NONE', #161, #895, #114, .T. ) ;
#961 = DIRECTION ( 'NONE',  ( -0.000000000000000000, -1.000000000000000000, -0.000000000000000000 ) ) ;
#962 = DIRECTION ( 'NONE',  ( -0.7772490812546168915, 0.000000000000000000, -0.6291930273682743158 ) ) ;
#963 = ORIENTED_EDGE ( 'NONE', *, *, #934, .F. ) ;
#964 = CARTESIAN_POINT ( 'NONE',  ( 82.95755179256495637, 4.500000000000000888, -5.373937867588350237 ) ) ;
#965 = CARTESIAN_POINT ( 'NONE',  ( 76.31914503986483567, 4.500000000000000888, -4.675113293245234836 ) ) ;
#966 = CARTESIAN_POINT ( 'NONE',  ( 72.99994166351477531, 4.500000000000000888, -4.325701006073682464 ) ) ;
#967 = ORIENTED_EDGE ( 'NONE', *, *, #1060, .T. ) ;
#968 = AXIS2_PLACEMENT_3D ( 'NONE', #333, #307, #1018 ) ;
#969 = DIRECTION ( 'NONE',  ( -0.000000000000000000, -1.000000000000000000, 0.000000000000000000 ) ) ;
#970 = CARTESIAN_POINT ( 'NONE',  ( 34.17698179368547073, -1.500000000000000000, 2.896371394142037925 ) ) ;
#971 = VECTOR ( 'NONE', #386, 1000.000000000000000 ) ;
#972 = ORIENTED_EDGE ( 'NONE', *, *, #769, .F. ) ;
#973 = VECTOR ( 'NONE', #755, 1000.000000000000114 ) ;
#974 = FACE_OUTER_BOUND ( 'NONE', #822, .T. ) ;
#975 = CARTESIAN_POINT ( 'NONE',  ( 72.99994166351477531, -1.500000000000000000, -4.325701006073682464 ) ) ;
#976 = ADVANCED_FACE ( 'NONE', ( #382 ), #1009, .T. ) ;
#977 = ORIENTED_EDGE ( 'NONE', *, *, #708, .T. ) ;
#978 = ORIENTED_EDGE ( 'NONE', *, *, #740, .F. ) ;
#979 = EDGE_CURVE ( 'NONE', #184, #912, #913, .T. ) ;
#980 = PRODUCT_DEFINITION_SHAPE ( 'NONE', 'NONE',  #1066 ) ;
#981 = CARTESIAN_POINT ( 'NONE',  ( 58.74908317841433103, -1.500000000000000000, -8.450774328200552077 ) ) ;
#982 = EDGE_CURVE ( 'NONE', #126, #1034, #432, .T. ) ;
#983 = CARTESIAN_POINT ( 'NONE',  ( 82.95755179256495637, 4.500000000000000888, -5.373937867588350237 ) ) ;
#984 = CARTESIAN_POINT ( 'NONE',  ( 84.79185962432579515, 4.500000000000000888, -3.889042322999129997 ) ) ;
#985 = VECTOR ( 'NONE', #909, 1000.000000000000000 ) ;
#986 = ORIENTED_EDGE ( 'NONE', *, *, #50, .F. ) ;
#987 = CARTESIAN_POINT ( 'NONE',  ( 57.99146288066229005, 4.500000000000000888, -6.599825521659944627 ) ) ;
#988 = VECTOR ( 'NONE', #892, 1000.000000000000000 ) ;
#989 = DIRECTION ( 'NONE',  ( -0.000000000000000000, -1.000000000000000000, -0.000000000000000000 ) ) ;
#990 = AXIS2_PLACEMENT_3D ( 'NONE', #762, #1021, #744 ) ;
#991 = ORIENTED_EDGE ( 'NONE', *, *, #192, .F. ) ;
#992 = DIRECTION ( 'NONE',  ( 0.000000000000000000, 0.000000000000000000, 1.000000000000000000 ) ) ;
#993 = ORIENTED_EDGE ( 'NONE', *, *, #922, .T. ) ;
#994 = ADVANCED_FACE ( 'NONE', ( #467 ), #757, .F. ) ;
#995 = CARTESIAN_POINT ( 'NONE',  ( 15.45698876122486531, -1.500000000000000000, -6.467718804901585017 ) ) ;
#996 = ORIENTED_EDGE ( 'NONE', *, *, #624, .T. ) ;
#997 = ORIENTED_EDGE ( 'NONE', *, *, #192, .T. ) ;
#998 = PLANE ( 'NONE',  #901 ) ;
#999 = FACE_OUTER_BOUND ( 'NONE', #116, .T. ) ;
#1000 = CARTESIAN_POINT ( 'NONE',  ( 74.83424949527558567, -1.500000000000000000, -2.840805461484436023 ) ) ;
#1001 = ORIENTED_EDGE ( 'NONE', *, *, #50, .T. ) ;
#1002 = DIRECTION ( 'NONE',  ( 0.000000000000000000, 1.000000000000000000, 0.000000000000000000 ) ) ;
#1003 = AXIS2_PLACEMENT_3D ( 'NONE', #349, #85, #1049 ) ;
#1004 = LINE ( 'NONE', #914, #1091 ) ;
#1005 = EDGE_CURVE ( 'NONE', #1012, #184, #657, .T. ) ;
#1006 = DIRECTION ( 'NONE',  ( 0.3802634127332067404, -0.000000000000000000, 0.9248782281665489657 ) ) ;
#1007 = AXIS2_PLACEMENT_3D ( 'NONE', #562, #486, #145 ) ;
#1008 = ORIENTED_EDGE ( 'NONE', *, *, #444, .F. ) ;
#1009 = CYLINDRICAL_SURFACE ( 'NONE', #468, 1.999999999999998224 ) ;
#1010 = DIRECTION ( 'NONE',  ( 0.6291930273682727615, 0.000000000000000000, -0.7772490812546181127 ) ) ;
#1011 = CARTESIAN_POINT ( 'NONE',  ( 66.61086481197914111, 4.500000000000000888, -25.33717312883726791 ) ) ;
#1012 = VERTEX_POINT ( 'NONE', #829 ) ;
#1013 = VERTEX_POINT ( 'NONE', #1088 ) ;
#1014 = CARTESIAN_POINT ( 'NONE',  ( 25.04485088642370627, 4.500000000000000888, 12.80466971690446698 ) ) ;
#1015 = ADVANCED_FACE ( 'NONE', ( #1106 ), #478, .F. ) ;
#1016 = DIRECTION ( 'NONE',  ( 0.000000000000000000, 0.000000000000000000, -1.000000000000000000 ) ) ;
#1017 = UNCERTAINTY_MEASURE_WITH_UNIT (LENGTH_MEASURE( 1.000000000000000082E-05 ), #339, 'distance_accuracy_value', 'NONE');
#1018 = DIRECTION ( 'NONE',  ( 0.000000000000000000, 0.000000000000000000, 1.000000000000000000 ) ) ;
#1019 = LINE ( 'NONE', #172, #973 ) ;
#1020 = ORIENTED_EDGE ( 'NONE', *, *, #525, .F. ) ;
#1021 = DIRECTION ( 'NONE',  ( -0.000000000000000000, -1.000000000000000000, 0.000000000000000000 ) ) ;
#1022 = ADVANCED_FACE ( 'NONE', ( #847, #222, #56 ), #750, .F. ) ;
#1023 = DIRECTION ( 'NONE',  ( 0.000000000000000000, 0.000000000000000000, -1.000000000000000000 ) ) ;
#1024 = CARTESIAN_POINT ( 'NONE',  ( 66.61086481197914111, 4.500000000000000888, -27.33717312883727146 ) ) ;
#1025 = DIRECTION ( 'NONE',  ( 0.9248782281665489657, 0.000000000000000000, -0.3802634127332067404 ) ) ;
#1026 = ORIENTED_EDGE ( 'NONE', *, *, #366, .T. ) ;
#1027 = CARTESIAN_POINT ( 'NONE',  ( 67.43993364825611536, -1.500000000000000000, -27.15724039812002033 ) ) ;
#1028 = AXIS2_PLACEMENT_3D ( 'NONE', #297, #474, #398 ) ;
#1029 = EDGE_CURVE ( 'NONE', #33, #75, #1124, .T. ) ;
#1030 = FACE_OUTER_BOUND ( 'NONE', #466, .T. ) ;
#1031 = DIRECTION ( 'NONE',  ( -0.000000000000000000, -1.000000000000000000, -0.000000000000000000 ) ) ;
#1032 = CARTESIAN_POINT ( 'NONE',  ( 84.79185962432579515, 4.500000000000000888, -3.889042322999129997 ) ) ;
#1033 = STYLED_ITEM ( 'NONE', ( #667 ), #47 ) ;
#1034 = VERTEX_POINT ( 'NONE', #76 ) ;
#1035 = DIRECTION ( 'NONE',  ( -0.000000000000000000, -1.000000000000000000, -0.000000000000000000 ) ) ;
#1036 = CARTESIAN_POINT ( 'NONE',  ( 81.47265624797572059, -1.500000000000000000, -3.539630035827554089 ) ) ;
#1037 = CARTESIAN_POINT ( 'NONE',  ( 78.15345287162564603, 4.500000000000000888, -3.190217748655987950 ) ) ;
#1038 = EDGE_LOOP ( 'NONE', ( #605, #119, #826, #635 ) ) ;
#1039 = AXIS2_PLACEMENT_3D ( 'NONE', #615, #350, #1050 ) ;
#1040 = CARTESIAN_POINT ( 'NONE',  ( 15.45698876122486531, 4.500000000000000888, -6.467718804901585017 ) ) ;
#1041 = LINE ( 'NONE', #165, #531 ) ;
#1042 = EDGE_CURVE ( 'NONE', #895, #1086, #90, .T. ) ;
#1043 = ORIENTED_EDGE ( 'NONE', *, *, #160, .F. ) ;
#1044 = AXIS2_PLACEMENT_3D ( 'NONE', #1102, #665, #1016 ) ;
#1045 = DIRECTION ( 'NONE',  ( -0.000000000000000000, -1.000000000000000000, 0.000000000000000000 ) ) ;
#1046 = CARTESIAN_POINT ( 'NONE',  ( 80.07505763587442971, -1.500000000000000000, -20.80714426673159068 ) ) ;
#1047 = VERTEX_POINT ( 'NONE', #329 ) ;
#1048 = PLANE ( 'NONE',  #238 ) ;
#1049 = DIRECTION ( 'NONE',  ( 0.000000000000000000, 0.000000000000000000, 1.000000000000000000 ) ) ;
#1050 = DIRECTION ( 'NONE',  ( 0.000000000000000000, 0.000000000000000000, -1.000000000000000000 ) ) ;
#1051 = ORIENTED_EDGE ( 'NONE', *, *, #213, .T. ) ;
#1052 = ORIENTED_EDGE ( 'NONE', *, *, #780, .F. ) ;
#1053 = VECTOR ( 'NONE', #1120, 1000.000000000000000 ) ;
#1054 = EDGE_CURVE ( 'NONE', #522, #912, #955, .T. ) ;
#1055 = DIRECTION ( 'NONE',  ( -0.9248782281665488547, -0.000000000000000000, 0.3802634127332066294 ) ) ;
#1056 = LINE ( 'NONE', #186, #420 ) ;
#1057 = VERTEX_POINT ( 'NONE', #864 ) ;
#1058 = ORIENTED_EDGE ( 'NONE', *, *, #1060, .F. ) ;
#1059 = DIRECTION ( 'NONE',  ( 0.000000000000000000, 0.000000000000000000, 1.000000000000000000 ) ) ;
#1060 = EDGE_CURVE ( 'NONE', #89, #126, #168, .T. ) ;
#1061 = PLANE ( 'NONE',  #601 ) ;
#1062 = DIRECTION ( 'NONE',  ( 0.000000000000000000, -1.000000000000000000, 0.000000000000000000 ) ) ;
#1063 = ADVANCED_FACE ( 'NONE', ( #874 ), #505, .F. ) ;
#1064 = ORIENTED_EDGE ( 'NONE', *, *, #908, .T. ) ;
#1065 = VECTOR ( 'NONE', #1119, 1000.000000000000227 ) ;
#1066 = PRODUCT_DEFINITION ( 'BÝLÝNMEYEN', '', #200, #469 ) ;
#1067 = ORIENTED_EDGE ( 'NONE', *, *, #424, .T. ) ;
#1068 = CARTESIAN_POINT ( 'NONE',  ( 69.68073828716488549, 4.500000000000000888, -3.976288718902026176 ) ) ;
#1069 = VECTOR ( 'NONE', #881, 1000.000000000000227 ) ;
#1070 = DIRECTION ( 'NONE',  ( -0.000000000000000000, -1.000000000000000000, -0.000000000000000000 ) ) ;
#1071 = DIRECTION ( 'NONE',  ( -0.000000000000000000, -1.000000000000000000, -0.000000000000000000 ) ) ;
#1072 = EDGE_LOOP ( 'NONE', ( #280, #921, #269, #433 ) ) ;
#1073 = ORIENTED_EDGE ( 'NONE', *, *, #816, .T. ) ;
#1074 = CARTESIAN_POINT ( 'NONE',  ( 66.61086481197914111, -1.500000000000000000, -25.33717312883726791 ) ) ;
#1075 = DIRECTION ( 'NONE',  ( 0.000000000000000000, 0.000000000000000000, -1.000000000000000000 ) ) ;
#1076 = ORIENTED_EDGE ( 'NONE', *, *, #1029, .F. ) ;
#1077 = APPLICATION_PROTOCOL_DEFINITION ( 'draft international standard', 'automotive_design', 1998, #794 ) ;
#1078 = VERTEX_POINT ( 'NONE', #1027 ) ;
#1079 = DIRECTION ( 'NONE',  ( -0.7772490812545725936, 0.000000000000000000, -0.6291930273683289387 ) ) ;
#1080 = AXIS2_PLACEMENT_3D ( 'NONE', #568, #217, #839 ) ;
#1081 = ORIENTED_EDGE ( 'NONE', *, *, #571, .F. ) ;
#1082 = ORIENTED_EDGE ( 'NONE', *, *, #413, .T. ) ;
#1083 = DIRECTION ( 'NONE',  ( 0.000000000000000000, 1.000000000000000000, -0.000000000000000000 ) ) ;
#1084 = UNCERTAINTY_MEASURE_WITH_UNIT (LENGTH_MEASURE( 1.000000000000000082E-05 ), #500, 'distance_accuracy_value', 'NONE');
#1085 = CARTESIAN_POINT ( 'NONE',  ( 14.69646193575843718, 4.500000000000000888, -6.317475261234680950 ) ) ;
#1086 = VERTEX_POINT ( 'NONE', #611 ) ;
#1087 = ORIENTED_EDGE ( 'NONE', *, *, #20, .T. ) ;
#1088 = CARTESIAN_POINT ( 'NONE',  ( -24.60843420035152462, -1.500000000000000000, 6.682524738765319938 ) ) ;
#1089 = CARTESIAN_POINT ( 'NONE',  ( 72.99994166351477531, 4.500000000000000888, -4.325701006073682464 ) ) ;
#1090 = ORIENTED_EDGE ( 'NONE', *, *, #160, .T. ) ;
#1091 = VECTOR ( 'NONE', #128, 1000.000000000000227 ) ;
#1092 = ORIENTED_EDGE ( 'NONE', *, *, #323, .F. ) ;
#1093 = DIRECTION ( 'NONE',  ( -0.6291930273683253860, 0.000000000000000000, 0.7772490812545754801 ) ) ;
#1094 = ADVANCED_FACE ( 'NONE', ( #417 ), #1048, .F. ) ;
#1095 = AXIS2_PLACEMENT_3D ( 'NONE', #102, #699, #514 ) ;
#1096 = DIRECTION ( 'NONE',  ( -0.000000000000000000, -1.000000000000000000, -0.000000000000000000 ) ) ;
#1097 = ORIENTED_EDGE ( 'NONE', *, *, #583, .F. ) ;
#1098 = AXIS2_PLACEMENT_3D ( 'NONE', #229, #852, #316 ) ;
#1099 = ORIENTED_EDGE ( 'NONE', *, *, #753, .T. ) ;
#1100 = CARTESIAN_POINT ( 'NONE',  ( 34.17698179368547073, 4.500000000000000888, 2.896371394142037925 ) ) ;
#1101 = AXIS2_PLACEMENT_3D ( 'NONE', #331, #752, #578 ) ;
#1102 = CARTESIAN_POINT ( 'NONE',  ( 14.69646193575844428, 4.500000000000000888, -8.317475261234681838 ) ) ;
#1103 = CARTESIAN_POINT ( 'NONE',  ( -24.60843420035152462, 4.500000000000000888, 6.682524738765319938 ) ) ;
#1104 = CARTESIAN_POINT ( 'NONE',  ( 76.31914503986483567, 4.500000000000000888, -4.675113293245234836 ) ) ;
#1105 = ORIENTED_EDGE ( 'NONE', *, *, #769, .T. ) ;
#1106 = FACE_OUTER_BOUND ( 'NONE', #643, .T. ) ;
#1107 = LINE ( 'NONE', #68, #1065 ) ;
#1108 = DIRECTION ( 'NONE',  ( 0.000000000000000000, 0.000000000000000000, 1.000000000000000000 ) ) ;
#1109 = CARTESIAN_POINT ( 'NONE',  ( 58.74908317841433103, -1.500000000000000000, -8.450774328200552077 ) ) ;
#1110 = CIRCLE ( 'NONE', #614, 3.000000000000000444 ) ;
#1111 = ORIENTED_EDGE ( 'NONE', *, *, #922, .F. ) ;
#1112 = DIRECTION ( 'NONE',  ( 0.000000000000000000, 0.000000000000000000, 1.000000000000000000 ) ) ;
#1113 = CIRCLE ( 'NONE', #968, 2.000000000000001776 ) ;
#1114 = LINE ( 'NONE', #434, #988 ) ;
#1115 = CARTESIAN_POINT ( 'NONE',  ( -24.60843420035152462, -1.500000000000000000, -6.317475261234680950 ) ) ;
#1116 = CARTESIAN_POINT ( 'NONE',  ( 72.99994166351477531, -1.500000000000000000, -4.325701006073682464 ) ) ;
#1117 = ORIENTED_EDGE ( 'NONE', *, *, #260, .F. ) ;
#1118 = FILL_AREA_STYLE ('',( #2 ) ) ;
#1119 = DIRECTION ( 'NONE',  ( -0.9248782281665488547, -0.000000000000000000, 0.3802634127332066294 ) ) ;
#1120 = DIRECTION ( 'NONE',  ( -1.000000000000000000, -0.000000000000000000, -0.000000000000000000 ) ) ;
#1121 = CARTESIAN_POINT ( 'NONE',  ( 19.39156579964847182, -1.500000000000000000, 0.6825247387653183839 ) ) ;
#1122 = AXIS2_PLACEMENT_3D ( 'NONE', #781, #850, #592 ) ;
#1123 = ORIENTED_EDGE ( 'NONE', *, *, #1005, .F. ) ;
#1124 = LINE ( 'NONE', #337, #39 ) ;
#1125 = EDGE_CURVE ( 'NONE', #72, #275, #347, .T. ) ;
#1126 = PLANE ( 'NONE',  #1101 ) ;
#1127 = FACE_OUTER_BOUND ( 'NONE', #593, .T. ) ;
ENDSEC;
END-ISO-10303-21;
