ISO-10303-21;
HEADER;
FILE_DESCRIPTION (( 'STEP AP214' ),
    '1' );
FILE_NAME ('pin.STEP',
    '2026-04-30T16:24:08',
    ( '' ),
    ( '' ),
    'SwSTEP 2.0',
    'SolidWorks 2022',
    '' );
FILE_SCHEMA (( 'AUTOMOTIVE_DESIGN' ));
ENDSEC;

DATA;
#1 = DIRECTION ( 'NONE',  ( 0.000000000000000000, 0.000000000000000000, 1.000000000000000000 ) ) ;
#2 = PRODUCT ( 'pin', 'pin', '', ( #97 ) ) ;
#3 = CARTESIAN_POINT ( 'NONE',  ( 7.702737796145138283E-48, 19.00000000000000000, -3.000000000000000444 ) ) ;
#4 = AXIS2_PLACEMENT_3D ( 'NONE', #172, #282, #165 ) ;
#5 = DIRECTION ( 'NONE',  ( 0.000000000000000000, 0.000000000000000000, -1.000000000000000000 ) ) ;
#6 = AXIS2_PLACEMENT_3D ( 'NONE', #34, #155, #242 ) ;
#7 = PRESENTATION_LAYER_ASSIGNMENT (  '', '', ( #211 ) ) ;
#8 = STYLED_ITEM ( 'NONE', ( #61 ), #218 ) ;
#9 = ADVANCED_FACE ( 'NONE', ( #230 ), #158, .T. ) ;
#10 = DIRECTION ( 'NONE',  ( 0.000000000000000000, 0.000000000000000000, 1.000000000000000000 ) ) ;
#11 = LINE ( 'NONE', #103, #270 ) ;
#12 = VECTOR ( 'NONE', #91, 1000.000000000000000 ) ;
#13 = EDGE_LOOP ( 'NONE', ( #280, #114, #139, #182 ) ) ;
#14 = ORIENTED_EDGE ( 'NONE', *, *, #152, .T. ) ;
#15 = ORIENTED_EDGE ( 'NONE', *, *, #166, .T. ) ;
#16 = DIRECTION ( 'NONE',  ( -0.000000000000000000, -1.000000000000000000, -0.000000000000000000 ) ) ;
#17 = ORIENTED_EDGE ( 'NONE', *, *, #284, .F. ) ;
#18 = DIRECTION ( 'NONE',  ( 0.000000000000000000, 1.000000000000000000, 0.000000000000000000 ) ) ;
#19 = ORIENTED_EDGE ( 'NONE', *, *, #194, .F. ) ;
#20 = EDGE_LOOP ( 'NONE', ( #19, #204 ) ) ;
#21 = AXIS2_PLACEMENT_3D ( 'NONE', #64, #106, #266 ) ;
#22 = VERTEX_POINT ( 'NONE', #200 ) ;
#23 = PRODUCT_DEFINITION ( 'BÝLÝNMEYEN', '', #33, #72 ) ;
#24 = UNCERTAINTY_MEASURE_WITH_UNIT (LENGTH_MEASURE( 1.000000000000000082E-05 ), #195, 'distance_accuracy_value', 'NONE');
#25 = ORIENTED_EDGE ( 'NONE', *, *, #152, .F. ) ;
#26 = EDGE_LOOP ( 'NONE', ( #50, #159 ) ) ;
#27 = DIRECTION ( 'NONE',  ( 0.000000000000000000, 0.000000000000000000, 1.000000000000000000 ) ) ;
#28 = AXIS2_PLACEMENT_3D ( 'NONE', #231, #18, #205 ) ;
#29 = EDGE_CURVE ( 'NONE', #120, #177, #67, .T. ) ;
#30 = DIRECTION ( 'NONE',  ( 0.000000000000000000, 1.000000000000000000, 0.000000000000000000 ) ) ;
#31 = CIRCLE ( 'NONE', #55, 3.000000000000000444 ) ;
#32 = FACE_OUTER_BOUND ( 'NONE', #228, .T. ) ;
#33 = PRODUCT_DEFINITION_FORMATION_WITH_SPECIFIED_SOURCE ( 'HERHANGÝ', '', #2, .NOT_KNOWN. ) ;
#34 = CARTESIAN_POINT ( 'NONE',  ( 7.702737796145138283E-48, -5.000000000000001776, 3.540428214978041761E-17 ) ) ;
#35 = EDGE_CURVE ( 'NONE', #84, #210, #279, .T. ) ;
#36 = FACE_OUTER_BOUND ( 'NONE', #26, .T. ) ;
#37 = CYLINDRICAL_SURFACE ( 'NONE', #283, 3.000000000000000444 ) ;
#38 = DIRECTION ( 'NONE',  ( 0.000000000000000000, -0.000000000000000000, 1.000000000000000000 ) ) ;
#39 = ORIENTED_EDGE ( 'NONE', *, *, #40, .F. ) ;
#40 = EDGE_CURVE ( 'NONE', #225, #43, #192, .T. ) ;
#41 = VERTEX_POINT ( 'NONE', #138 ) ;
#42 = APPLICATION_CONTEXT ( 'automotive_design' ) ;
#43 = VERTEX_POINT ( 'NONE', #113 ) ;
#44 = CARTESIAN_POINT ( 'NONE',  ( 7.702737796145138283E-48, -5.000000000000001776, -3.000000000000000444 ) ) ;
#45 = ORIENTED_EDGE ( 'NONE', *, *, #143, .F. ) ;
#46 = PRESENTATION_STYLE_ASSIGNMENT (( #249 ) ) ;
#47 = VECTOR ( 'NONE', #16, 1000.000000000000000 ) ;
#48 = ORIENTED_EDGE ( 'NONE', *, *, #188, .F. ) ;
#49 = CIRCLE ( 'NONE', #28, 5.000000000000000000 ) ;
#50 = ORIENTED_EDGE ( 'NONE', *, *, #174, .F. ) ;
#51 = CARTESIAN_POINT ( 'NONE',  ( 7.702737796145138283E-48, -5.000000000000001776, 3.540428214978041761E-17 ) ) ;
#52 = PLANE ( 'NONE',  #222 ) ;
#53 = AXIS2_PLACEMENT_3D ( 'NONE', #109, #129, #212 ) ;
#54 = PLANE ( 'NONE',  #287 ) ;
#55 = AXIS2_PLACEMENT_3D ( 'NONE', #147, #292, #173 ) ;
#56 = CARTESIAN_POINT ( 'NONE',  ( 7.702737796145138283E-48, 19.00000000000000000, 3.540428214978041761E-17 ) ) ;
#57 = FACE_BOUND ( 'NONE', #20, .T. ) ;
#58 = SURFACE_STYLE_FILL_AREA ( #294 ) ;
#59 = FACE_BOUND ( 'NONE', #234, .T. ) ;
#60 = AXIS2_PLACEMENT_3D ( 'NONE', #227, #275, #110 ) ;
#61 = PRESENTATION_STYLE_ASSIGNMENT (( #245 ) ) ;
#62 = PRODUCT_RELATED_PRODUCT_CATEGORY ( 'part', '', ( #2 ) ) ;
#63 = DIRECTION ( 'NONE',  ( -0.000000000000000000, -1.000000000000000000, -0.000000000000000000 ) ) ;
#64 = CARTESIAN_POINT ( 'NONE',  ( 7.702737796145138283E-48, 21.00000000000000000, 3.540428214978041761E-17 ) ) ;
#65 = ORIENTED_EDGE ( 'NONE', *, *, #35, .T. ) ;
#66 = ORIENTED_EDGE ( 'NONE', *, *, #86, .T. ) ;
#67 = LINE ( 'NONE', #291, #47 ) ;
#68 = ORIENTED_EDGE ( 'NONE', *, *, #284, .T. ) ;
#69 = SURFACE_STYLE_FILL_AREA ( #184 ) ;
#70 = CARTESIAN_POINT ( 'NONE',  ( 7.702737796145138283E-48, -5.000000000000001776, 3.540428214978041761E-17 ) ) ;
#71 = CARTESIAN_POINT ( 'NONE',  ( 7.702737796145138283E-48, -5.000000000000001776, -5.000000000000000888 ) ) ;
#72 = PRODUCT_DEFINITION_CONTEXT ( 'detailed design', #240, 'design' ) ;
#73 = AXIS2_PLACEMENT_3D ( 'NONE', #272, #63, #251 ) ;
#74 = EDGE_CURVE ( 'NONE', #177, #210, #49, .T. ) ;
#75 = ORIENTED_EDGE ( 'NONE', *, *, #143, .T. ) ;
#76 = CIRCLE ( 'NONE', #132, 5.000000000000000888 ) ;
#77 = DIRECTION ( 'NONE',  ( -0.000000000000000000, -1.000000000000000000, -0.000000000000000000 ) ) ;
#78 = COLOUR_RGB ( '',0.7803921568627451011, 0.7607843137254901578, 0.7411764705882353255 ) ;
#79 =( NAMED_UNIT ( * ) SI_UNIT ( $, .STERADIAN. ) SOLID_ANGLE_UNIT ( ) );
#80 = CARTESIAN_POINT ( 'NONE',  ( 7.702737796145138283E-48, 19.00000000000000000, 3.540428214978041761E-17 ) ) ;
#81 = CARTESIAN_POINT ( 'NONE',  ( 7.702737796145138283E-48, 21.00000000000000000, 3.540428214978041761E-17 ) ) ;
#82 = PLANE ( 'NONE',  #285 ) ;
#83 = CARTESIAN_POINT ( 'NONE',  ( 7.702737796145138283E-48, 21.00000000000000000, -5.000000000000000000 ) ) ;
#84 = VERTEX_POINT ( 'NONE', #153 ) ;
#85 = EDGE_LOOP ( 'NONE', ( #236, #208 ) ) ;
#86 = EDGE_CURVE ( 'NONE', #84, #120, #95, .T. ) ;
#87 = CARTESIAN_POINT ( 'NONE',  ( 7.702737796145138283E-48, 19.00000000000000000, 3.540428214978041761E-17 ) ) ;
#88 = CARTESIAN_POINT ( 'NONE',  ( 3.673940397442060361E-16, 19.00000000000000000, 3.000000000000000444 ) ) ;
#89 = EDGE_LOOP ( 'NONE', ( #25, #298, #131, #111 ) ) ;
#90 = FACE_OUTER_BOUND ( 'NONE', #163, .T. ) ;
#91 = DIRECTION ( 'NONE',  ( -0.000000000000000000, -1.000000000000000000, -0.000000000000000000 ) ) ;
#92 = EDGE_LOOP ( 'NONE', ( #66, #15 ) ) ;
#93 = FACE_OUTER_BOUND ( 'NONE', #107, .T. ) ;
#94 = AXIS2_PLACEMENT_3D ( 'NONE', #238, #148, #27 ) ;
#95 = CIRCLE ( 'NONE', #259, 5.000000000000000000 ) ;
#96 = ORIENTED_EDGE ( 'NONE', *, *, #86, .F. ) ;
#97 = PRODUCT_CONTEXT ( 'NONE', #42, 'mechanical' ) ;
#98 = ADVANCED_FACE ( 'NONE', ( #90 ), #37, .T. ) ;
#99 = VECTOR ( 'NONE', #274, 1000.000000000000000 ) ;
#100 = SHAPE_DEFINITION_REPRESENTATION ( #108, #102 ) ;
#101 = CARTESIAN_POINT ( 'NONE',  ( 7.702737796145138283E-48, -7.000000000000001776, 3.540428214978041761E-17 ) ) ;
#102 = ADVANCED_BREP_SHAPE_REPRESENTATION ( 'pin', ( #218, #209 ), #168 ) ;
#103 = CARTESIAN_POINT ( 'NONE',  ( 7.702737796145138283E-48, 19.00000000000000000, -3.000000000000000444 ) ) ;
#104 = CARTESIAN_POINT ( 'NONE',  ( 0.000000000000000000, 0.000000000000000000, 0.000000000000000000 ) ) ;
#105 = CARTESIAN_POINT ( 'NONE',  ( 7.702737796145138283E-48, -7.000000000000001776, -5.000000000000000888 ) ) ;
#106 = DIRECTION ( 'NONE',  ( 0.000000000000000000, 1.000000000000000000, 0.000000000000000000 ) ) ;
#107 = EDGE_LOOP ( 'NONE', ( #189, #96, #65, #183 ) ) ;
#108 = PRODUCT_DEFINITION_SHAPE ( 'NONE', 'NONE',  #23 ) ;
#109 = CARTESIAN_POINT ( 'NONE',  ( 7.702737796145138283E-48, -7.000000000000001776, 3.540428214978041761E-17 ) ) ;
#110 = DIRECTION ( 'NONE',  ( 0.000000000000000000, 0.000000000000000000, 1.000000000000000000 ) ) ;
#111 = ORIENTED_EDGE ( 'NONE', *, *, #174, .T. ) ;
#112 = AXIS2_PLACEMENT_3D ( 'NONE', #281, #133, #116 ) ;
#113 = CARTESIAN_POINT ( 'NONE',  ( 3.673940397442060361E-16, 19.00000000000000000, 3.000000000000000444 ) ) ;
#114 = ORIENTED_EDGE ( 'NONE', *, *, #29, .T. ) ;
#115 = CARTESIAN_POINT ( 'NONE',  ( 7.702737796145138283E-48, 21.00000000000000000, 3.540428214978041761E-17 ) ) ;
#116 = DIRECTION ( 'NONE',  ( 0.000000000000000000, 0.000000000000000000, 1.000000000000000000 ) ) ;
#117 = AXIS2_PLACEMENT_3D ( 'NONE', #51, #77, #193 ) ;
#118 = EDGE_CURVE ( 'NONE', #179, #41, #237, .T. ) ;
#119 = VERTEX_POINT ( 'NONE', #44 ) ;
#120 = VERTEX_POINT ( 'NONE', #207 ) ;
#121 = VERTEX_POINT ( 'NONE', #246 ) ;
#122 = ORIENTED_EDGE ( 'NONE', *, *, #271, .T. ) ;
#123 = CIRCLE ( 'NONE', #112, 3.000000000000000444 ) ;
#124 = DIRECTION ( 'NONE',  ( 0.000000000000000000, 0.000000000000000000, -1.000000000000000000 ) ) ;
#125 =( LENGTH_UNIT ( ) NAMED_UNIT ( * ) SI_UNIT ( .MILLI., .METRE. ) );
#126 = DIRECTION ( 'NONE',  ( 0.000000000000000000, 0.000000000000000000, 1.000000000000000000 ) ) ;
#127 = LINE ( 'NONE', #71, #12 ) ;
#128 = AXIS2_PLACEMENT_3D ( 'NONE', #70, #241, #5 ) ;
#129 = DIRECTION ( 'NONE',  ( 0.000000000000000000, 1.000000000000000000, 0.000000000000000000 ) ) ;
#130 = LINE ( 'NONE', #88, #170 ) ;
#131 = ORIENTED_EDGE ( 'NONE', *, *, #233, .T. ) ;
#132 = AXIS2_PLACEMENT_3D ( 'NONE', #101, #286, #126 ) ;
#133 = DIRECTION ( 'NONE',  ( 0.000000000000000000, 1.000000000000000000, 0.000000000000000000 ) ) ;
#134 = DIRECTION ( 'NONE',  ( 0.000000000000000000, 1.000000000000000000, 0.000000000000000000 ) ) ;
#135 = ORIENTED_EDGE ( 'NONE', *, *, #118, .T. ) ;
#136 = EDGE_LOOP ( 'NONE', ( #248, #14, #122, #144 ) ) ;
#137 = ADVANCED_FACE ( 'NONE', ( #59, #300 ), #244, .F. ) ;
#138 = CARTESIAN_POINT ( 'NONE',  ( 6.123233995736767268E-16, -5.000000000000001776, 5.000000000000000888 ) ) ;
#139 = ORIENTED_EDGE ( 'NONE', *, *, #74, .T. ) ;
#140 = DIRECTION ( 'NONE',  ( -0.000000000000000000, -1.000000000000000000, -0.000000000000000000 ) ) ;
#141 = VECTOR ( 'NONE', #176, 1000.000000000000000 ) ;
#142 = EDGE_LOOP ( 'NONE', ( #135, #160 ) ) ;
#143 = EDGE_CURVE ( 'NONE', #43, #121, #130, .T. ) ;
#144 = ORIENTED_EDGE ( 'NONE', *, *, #233, .F. ) ;
#145 = CIRCLE ( 'NONE', #94, 5.000000000000000888 ) ;
#146 =( NAMED_UNIT ( * ) SI_UNIT ( $, .STERADIAN. ) SOLID_ANGLE_UNIT ( ) );
#147 = CARTESIAN_POINT ( 'NONE',  ( 7.702737796145138283E-48, 19.00000000000000000, 3.540428214978041761E-17 ) ) ;
#148 = DIRECTION ( 'NONE',  ( 0.000000000000000000, 1.000000000000000000, 0.000000000000000000 ) ) ;
#149 = CIRCLE ( 'NONE', #53, 5.000000000000000888 ) ;
#150 = SURFACE_SIDE_STYLE ('',( #58 ) ) ;
#151 = DIRECTION ( 'NONE',  ( 0.000000000000000000, 0.000000000000000000, 1.000000000000000000 ) ) ;
#152 = EDGE_CURVE ( 'NONE', #41, #22, #180, .T. ) ;
#153 = CARTESIAN_POINT ( 'NONE',  ( 7.702737796145138283E-48, 21.00000000000000000, -5.000000000000000000 ) ) ;
#154 = PRESENTATION_LAYER_ASSIGNMENT (  '', '', ( #8 ) ) ;
#155 = DIRECTION ( 'NONE',  ( 0.000000000000000000, 1.000000000000000000, 0.000000000000000000 ) ) ;
#156 = DIRECTION ( 'NONE',  ( 0.000000000000000000, 1.000000000000000000, 0.000000000000000000 ) ) ;
#157 =( LENGTH_UNIT ( ) NAMED_UNIT ( * ) SI_UNIT ( .MILLI., .METRE. ) );
#158 = CYLINDRICAL_SURFACE ( 'NONE', #73, 5.000000000000000000 ) ;
#159 = ORIENTED_EDGE ( 'NONE', *, *, #271, .F. ) ;
#160 = ORIENTED_EDGE ( 'NONE', *, *, #299, .T. ) ;
#161 = ORIENTED_EDGE ( 'NONE', *, *, #40, .T. ) ;
#162 = DIRECTION ( 'NONE',  ( 0.000000000000000000, 0.000000000000000000, -1.000000000000000000 ) ) ;
#163 = EDGE_LOOP ( 'NONE', ( #17, #75, #232, #48 ) ) ;
#164 = DIRECTION ( 'NONE',  ( 0.000000000000000000, 1.000000000000000000, 0.000000000000000000 ) ) ;
#165 = DIRECTION ( 'NONE',  ( 0.000000000000000000, 0.000000000000000000, -1.000000000000000000 ) ) ;
#166 = EDGE_CURVE ( 'NONE', #120, #84, #296, .T. ) ;
#167 =( GEOMETRIC_REPRESENTATION_CONTEXT ( 3 ) GLOBAL_UNCERTAINTY_ASSIGNED_CONTEXT ( ( #258 ) ) GLOBAL_UNIT_ASSIGNED_CONTEXT ( ( #125, #197, #269 ) ) REPRESENTATION_CONTEXT ( 'NONE', 'WORKASPACE' ) );
#168 =( GEOMETRIC_REPRESENTATION_CONTEXT ( 3 ) GLOBAL_UNCERTAINTY_ASSIGNED_CONTEXT ( ( #24 ) ) GLOBAL_UNIT_ASSIGNED_CONTEXT ( ( #195, #220, #79 ) ) REPRESENTATION_CONTEXT ( 'NONE', 'WORKASPACE' ) );
#169 = FACE_OUTER_BOUND ( 'NONE', #92, .T. ) ;
#170 = VECTOR ( 'NONE', #229, 1000.000000000000000 ) ;
#171 = CYLINDRICAL_SURFACE ( 'NONE', #117, 5.000000000000000888 ) ;
#172 = CARTESIAN_POINT ( 'NONE',  ( 7.702737796145138283E-48, 21.00000000000000000, 3.540428214978041761E-17 ) ) ;
#173 = DIRECTION ( 'NONE',  ( 0.000000000000000000, 0.000000000000000000, 1.000000000000000000 ) ) ;
#174 = EDGE_CURVE ( 'NONE', #273, #22, #149, .T. ) ;
#175 = CARTESIAN_POINT ( 'NONE',  ( 7.702737796145138283E-48, -7.000000000000001776, 3.540428214978041761E-17 ) ) ;
#176 = DIRECTION ( 'NONE',  ( -0.000000000000000000, -1.000000000000000000, -0.000000000000000000 ) ) ;
#177 = VERTEX_POINT ( 'NONE', #199 ) ;
#178 = CLOSED_SHELL ( 'NONE', ( #9, #98, #247, #262, #277, #214, #260, #256, #293, #137 ) ) ;
#179 = VERTEX_POINT ( 'NONE', #202 ) ;
#180 = LINE ( 'NONE', #181, #99 ) ;
#181 = CARTESIAN_POINT ( 'NONE',  ( 6.123233995736767268E-16, -5.000000000000001776, 5.000000000000000888 ) ) ;
#182 = ORIENTED_EDGE ( 'NONE', *, *, #35, .F. ) ;
#183 = ORIENTED_EDGE ( 'NONE', *, *, #217, .T. ) ;
#184 = FILL_AREA_STYLE ('',( #276 ) ) ;
#185 = CYLINDRICAL_SURFACE ( 'NONE', #128, 5.000000000000000888 ) ;
#186 = CYLINDRICAL_SURFACE ( 'NONE', #4, 5.000000000000000000 ) ;
#187 = AXIS2_PLACEMENT_3D ( 'NONE', #297, #253, #295 ) ;
#188 = EDGE_CURVE ( 'NONE', #225, #119, #11, .T. ) ;
#189 = ORIENTED_EDGE ( 'NONE', *, *, #29, .F. ) ;
#190 =( NAMED_UNIT ( * ) PLANE_ANGLE_UNIT ( ) SI_UNIT ( $, .RADIAN. ) );
#191 =( GEOMETRIC_REPRESENTATION_CONTEXT ( 3 ) GLOBAL_UNCERTAINTY_ASSIGNED_CONTEXT ( ( #216 ) ) GLOBAL_UNIT_ASSIGNED_CONTEXT ( ( #157, #190, #146 ) ) REPRESENTATION_CONTEXT ( 'NONE', 'WORKASPACE' ) );
#192 = CIRCLE ( 'NONE', #60, 3.000000000000000444 ) ;
#193 = DIRECTION ( 'NONE',  ( 0.000000000000000000, 0.000000000000000000, -1.000000000000000000 ) ) ;
#194 = EDGE_CURVE ( 'NONE', #119, #121, #239, .T. ) ;
#195 =( LENGTH_UNIT ( ) NAMED_UNIT ( * ) SI_UNIT ( .MILLI., .METRE. ) );
#196 = FACE_OUTER_BOUND ( 'NONE', #89, .T. ) ;
#197 =( NAMED_UNIT ( * ) PLANE_ANGLE_UNIT ( ) SI_UNIT ( $, .RADIAN. ) );
#198 = FACE_OUTER_BOUND ( 'NONE', #142, .T. ) ;
#199 = CARTESIAN_POINT ( 'NONE',  ( 6.123233995736766282E-16, 19.00000000000000000, 5.000000000000000000 ) ) ;
#200 = CARTESIAN_POINT ( 'NONE',  ( 6.123233995736767268E-16, -7.000000000000001776, 5.000000000000000888 ) ) ;
#201 = DIRECTION ( 'NONE',  ( -0.000000000000000000, -1.000000000000000000, -0.000000000000000000 ) ) ;
#202 = CARTESIAN_POINT ( 'NONE',  ( 7.702737796145138283E-48, -5.000000000000001776, -5.000000000000000888 ) ) ;
#203 = CARTESIAN_POINT ( 'NONE',  ( 7.702737796145138283E-48, 19.00000000000000000, 3.540428214978041761E-17 ) ) ;
#204 = ORIENTED_EDGE ( 'NONE', *, *, #219, .F. ) ;
#205 = DIRECTION ( 'NONE',  ( 0.000000000000000000, 0.000000000000000000, 1.000000000000000000 ) ) ;
#206 = CIRCLE ( 'NONE', #243, 5.000000000000000000 ) ;
#207 = CARTESIAN_POINT ( 'NONE',  ( 6.123233995736766282E-16, 21.00000000000000000, 5.000000000000000000 ) ) ;
#208 = ORIENTED_EDGE ( 'NONE', *, *, #74, .F. ) ;
#209 = AXIS2_PLACEMENT_3D ( 'NONE', #104, #10, #290 ) ;
#210 = VERTEX_POINT ( 'NONE', #226 ) ;
#211 = STYLED_ITEM ( 'NONE', ( #46 ), #102 ) ;
#212 = DIRECTION ( 'NONE',  ( 0.000000000000000000, 0.000000000000000000, 1.000000000000000000 ) ) ;
#213 = AXIS2_PLACEMENT_3D ( 'NONE', #80, #201, #124 ) ;
#214 = ADVANCED_FACE ( 'NONE', ( #36 ), #82, .F. ) ;
#215 = FACE_OUTER_BOUND ( 'NONE', #136, .T. ) ;
#216 = UNCERTAINTY_MEASURE_WITH_UNIT (LENGTH_MEASURE( 1.000000000000000082E-05 ), #157, 'distance_accuracy_value', 'NONE');
#217 = EDGE_CURVE ( 'NONE', #210, #177, #206, .T. ) ;
#218 = MANIFOLD_SOLID_BREP ( 'Ölçek1', #178 ) ;
#219 = EDGE_CURVE ( 'NONE', #121, #119, #123, .T. ) ;
#220 =( NAMED_UNIT ( * ) PLANE_ANGLE_UNIT ( ) SI_UNIT ( $, .RADIAN. ) );
#221 = APPLICATION_PROTOCOL_DEFINITION ( 'draft international standard', 'automotive_design', 1998, #42 ) ;
#222 = AXIS2_PLACEMENT_3D ( 'NONE', #81, #288, #265 ) ;
#223 = FILL_AREA_STYLE_COLOUR ( '', #257 ) ;
#224 = APPLICATION_PROTOCOL_DEFINITION ( 'draft international standard', 'automotive_design', 1998, #240 ) ;
#225 = VERTEX_POINT ( 'NONE', #3 ) ;
#226 = CARTESIAN_POINT ( 'NONE',  ( 7.702737796145138283E-48, 19.00000000000000000, -5.000000000000000000 ) ) ;
#227 = CARTESIAN_POINT ( 'NONE',  ( 7.702737796145138283E-48, 19.00000000000000000, 3.540428214978041761E-17 ) ) ;
#228 = EDGE_LOOP ( 'NONE', ( #45, #39, #250, #254 ) ) ;
#229 = DIRECTION ( 'NONE',  ( -0.000000000000000000, -1.000000000000000000, -0.000000000000000000 ) ) ;
#230 = FACE_OUTER_BOUND ( 'NONE', #13, .T. ) ;
#231 = CARTESIAN_POINT ( 'NONE',  ( 7.702737796145138283E-48, 19.00000000000000000, 3.540428214978041761E-17 ) ) ;
#232 = ORIENTED_EDGE ( 'NONE', *, *, #219, .T. ) ;
#233 = EDGE_CURVE ( 'NONE', #179, #273, #127, .T. ) ;
#234 = EDGE_LOOP ( 'NONE', ( #161, #68 ) ) ;
#235 = MECHANICAL_DESIGN_GEOMETRIC_PRESENTATION_REPRESENTATION (  '', ( #211 ), #191 ) ;
#236 = ORIENTED_EDGE ( 'NONE', *, *, #217, .F. ) ;
#237 = CIRCLE ( 'NONE', #187, 5.000000000000000888 ) ;
#238 = CARTESIAN_POINT ( 'NONE',  ( 7.702737796145138283E-48, -5.000000000000001776, 3.540428214978041761E-17 ) ) ;
#239 = CIRCLE ( 'NONE', #6, 3.000000000000000444 ) ;
#240 = APPLICATION_CONTEXT ( 'automotive_design' ) ;
#241 = DIRECTION ( 'NONE',  ( -0.000000000000000000, -1.000000000000000000, -0.000000000000000000 ) ) ;
#242 = DIRECTION ( 'NONE',  ( 0.000000000000000000, 0.000000000000000000, 1.000000000000000000 ) ) ;
#243 = AXIS2_PLACEMENT_3D ( 'NONE', #56, #255, #151 ) ;
#244 = PLANE ( 'NONE',  #264 ) ;
#245 = SURFACE_STYLE_USAGE ( .BOTH. , #150 ) ;
#246 = CARTESIAN_POINT ( 'NONE',  ( 3.673940397442060361E-16, -5.000000000000001776, 3.000000000000000444 ) ) ;
#247 = ADVANCED_FACE ( 'NONE', ( #215 ), #185, .T. ) ;
#248 = ORIENTED_EDGE ( 'NONE', *, *, #299, .F. ) ;
#249 = SURFACE_STYLE_USAGE ( .BOTH. , #252 ) ;
#250 = ORIENTED_EDGE ( 'NONE', *, *, #188, .T. ) ;
#251 = DIRECTION ( 'NONE',  ( 0.000000000000000000, 0.000000000000000000, -1.000000000000000000 ) ) ;
#252 = SURFACE_SIDE_STYLE ('',( #69 ) ) ;
#253 = DIRECTION ( 'NONE',  ( 0.000000000000000000, 1.000000000000000000, 0.000000000000000000 ) ) ;
#254 = ORIENTED_EDGE ( 'NONE', *, *, #194, .T. ) ;
#255 = DIRECTION ( 'NONE',  ( 0.000000000000000000, 1.000000000000000000, 0.000000000000000000 ) ) ;
#256 = ADVANCED_FACE ( 'NONE', ( #93 ), #186, .T. ) ;
#257 = COLOUR_RGB ( '',0.7803921568627451011, 0.7607843137254901578, 0.7411764705882353255 ) ;
#258 = UNCERTAINTY_MEASURE_WITH_UNIT (LENGTH_MEASURE( 1.000000000000000082E-05 ), #125, 'distance_accuracy_value', 'NONE');
#259 = AXIS2_PLACEMENT_3D ( 'NONE', #115, #156, #1 ) ;
#260 = ADVANCED_FACE ( 'NONE', ( #32 ), #289, .T. ) ;
#261 = DIRECTION ( 'NONE',  ( 0.000000000000000000, -0.000000000000000000, 1.000000000000000000 ) ) ;
#262 = ADVANCED_FACE ( 'NONE', ( #196 ), #171, .T. ) ;
#263 = CARTESIAN_POINT ( 'NONE',  ( 7.702737796145138283E-48, -5.000000000000001776, 3.540428214978041761E-17 ) ) ;
#264 = AXIS2_PLACEMENT_3D ( 'NONE', #87, #134, #38 ) ;
#265 = DIRECTION ( 'NONE',  ( 0.000000000000000000, -0.000000000000000000, 1.000000000000000000 ) ) ;
#266 = DIRECTION ( 'NONE',  ( 0.000000000000000000, 0.000000000000000000, 1.000000000000000000 ) ) ;
#267 = DIRECTION ( 'NONE',  ( 0.000000000000000000, -0.000000000000000000, 1.000000000000000000 ) ) ;
#268 = DIRECTION ( 'NONE',  ( -0.000000000000000000, -1.000000000000000000, -0.000000000000000000 ) ) ;
#269 =( NAMED_UNIT ( * ) SI_UNIT ( $, .STERADIAN. ) SOLID_ANGLE_UNIT ( ) );
#270 = VECTOR ( 'NONE', #140, 1000.000000000000000 ) ;
#271 = EDGE_CURVE ( 'NONE', #22, #273, #76, .T. ) ;
#272 = CARTESIAN_POINT ( 'NONE',  ( 7.702737796145138283E-48, 21.00000000000000000, 3.540428214978041761E-17 ) ) ;
#273 = VERTEX_POINT ( 'NONE', #105 ) ;
#274 = DIRECTION ( 'NONE',  ( -0.000000000000000000, -1.000000000000000000, -0.000000000000000000 ) ) ;
#275 = DIRECTION ( 'NONE',  ( 0.000000000000000000, 1.000000000000000000, 0.000000000000000000 ) ) ;
#276 = FILL_AREA_STYLE_COLOUR ( '', #78 ) ;
#277 = ADVANCED_FACE ( 'NONE', ( #57, #198 ), #54, .T. ) ;
#278 = MECHANICAL_DESIGN_GEOMETRIC_PRESENTATION_REPRESENTATION (  '', ( #8 ), #167 ) ;
#279 = LINE ( 'NONE', #83, #141 ) ;
#280 = ORIENTED_EDGE ( 'NONE', *, *, #166, .F. ) ;
#281 = CARTESIAN_POINT ( 'NONE',  ( 7.702737796145138283E-48, -5.000000000000001776, 3.540428214978041761E-17 ) ) ;
#282 = DIRECTION ( 'NONE',  ( -0.000000000000000000, -1.000000000000000000, -0.000000000000000000 ) ) ;
#283 = AXIS2_PLACEMENT_3D ( 'NONE', #203, #268, #162 ) ;
#284 = EDGE_CURVE ( 'NONE', #43, #225, #31, .T. ) ;
#285 = AXIS2_PLACEMENT_3D ( 'NONE', #175, #164, #267 ) ;
#286 = DIRECTION ( 'NONE',  ( 0.000000000000000000, 1.000000000000000000, 0.000000000000000000 ) ) ;
#287 = AXIS2_PLACEMENT_3D ( 'NONE', #263, #30, #261 ) ;
#288 = DIRECTION ( 'NONE',  ( 0.000000000000000000, 1.000000000000000000, 0.000000000000000000 ) ) ;
#289 = CYLINDRICAL_SURFACE ( 'NONE', #213, 3.000000000000000444 ) ;
#290 = DIRECTION ( 'NONE',  ( 1.000000000000000000, 0.000000000000000000, 0.000000000000000000 ) ) ;
#291 = CARTESIAN_POINT ( 'NONE',  ( 6.123233995736766282E-16, 21.00000000000000000, 5.000000000000000000 ) ) ;
#292 = DIRECTION ( 'NONE',  ( 0.000000000000000000, 1.000000000000000000, 0.000000000000000000 ) ) ;
#293 = ADVANCED_FACE ( 'NONE', ( #169 ), #52, .T. ) ;
#294 = FILL_AREA_STYLE ('',( #223 ) ) ;
#295 = DIRECTION ( 'NONE',  ( 0.000000000000000000, 0.000000000000000000, 1.000000000000000000 ) ) ;
#296 = CIRCLE ( 'NONE', #21, 5.000000000000000000 ) ;
#297 = CARTESIAN_POINT ( 'NONE',  ( 7.702737796145138283E-48, -5.000000000000001776, 3.540428214978041761E-17 ) ) ;
#298 = ORIENTED_EDGE ( 'NONE', *, *, #118, .F. ) ;
#299 = EDGE_CURVE ( 'NONE', #41, #179, #145, .T. ) ;
#300 = FACE_OUTER_BOUND ( 'NONE', #85, .T. ) ;
ENDSEC;
END-ISO-10303-21;
